<?xml version="1.0" encoding="UTF-8"?>
<svg xmlns="http://www.w3.org/2000/svg" viewBox="0 0 64 64" preserveAspectRatio="xMidYMid meet">

  <rect x="2" y="2" width="60" height="60" rx="10" fill="none" stroke="#0E1116" stroke-width="3"/>
  <circle cx="52" cy="14" r="4" fill="#F5C518"/>
  <path d="M9.41552734375 44.0V27.994140625H15.32373046875L17.36474609375 34.224609375Q17.52587890625 34.7724609375 17.7353515625 35.6533203125Q17.94482421875 36.5341796875 18.15966796875 37.5546875Q18.37451171875 38.5751953125 18.56787109375 39.53125Q18.75048828125 38.5751953125 18.9599609375 37.56005859375Q19.16943359375 36.544921875 19.37890625 35.65869140625Q19.58837890625 34.7724609375 19.74951171875 34.224609375L21.75830078125 27.994140625H27.67724609375V44.0H23.86376953125V37.103515625Q23.86376953125 36.4912109375 23.890625 35.49755859375Q23.91748046875 34.50390625 23.94970703125 33.34375Q23.98193359375 32.18359375 24.00341796875 31.109375Q23.73486328125 32.248046875 23.439453125 33.3974609375Q23.14404296875 34.546875 22.87548828125 35.51904296875Q22.60693359375 36.4912109375 22.41357421875 37.103515625L20.13623046875 44.0H16.96728515625L14.65771484375 37.103515625Q14.47509765625 36.5126953125 14.20654296875 35.578125Q13.93798828125 34.6435546875 13.642578125 33.53173828125Q13.34716796875 32.419921875 13.07861328125 31.2919921875Q13.10009765625 32.3447265625 13.13232421875 33.4619140625Q13.16455078125 34.5791015625 13.19140625 35.54052734375Q13.21826171875 36.501953125 13.21826171875 37.103515625V44.0Z M29.16943359375 44.0V27.994140625H32.96142578125V34.2783203125H39.35302734375V27.994140625H43.13427734375V44.0H39.35302734375V37.3720703125H32.96142578125V44.0Z M44.63720703125 44.0V27.994140625H48.42919921875V40.90625H55.12158203125V44.0Z" fill="#0E1116"/>
</svg>
