<?xml version="1.0" encoding="UTF-8"?>
<svg xmlns="http://www.w3.org/2000/svg" viewBox="0 0 240 240" preserveAspectRatio="xMidYMid meet">
  <rect width="100%" height="100%" fill="#0E1116"/>
  <rect x="20" y="20" width="200" height="200" rx="20" fill="none" stroke="#FAF6EE" stroke-width="6"/>
  <path d="M41.380859375 60.376953125V57.08203125L49.8984375 43.62890625H55.134765625V57.013671875H57.677734375V60.376953125H55.134765625V64.0H51.12890625V60.376953125ZM51.2109375 57.013671875V48.22265625H51.046875L45.591796875 56.849609375V57.013671875Z M60.130859375 64.0V60.9921875L67.349609375 54.224609375Q68.73046875 52.87109375 69.4755859375 51.8662109375Q70.220703125 50.861328125 70.220703125 49.630859375Q70.220703125 48.263671875 69.3251953125 47.4775390625Q68.4296875 46.69140625 67.0625 46.69140625Q65.640625 46.69140625 64.7861328125 47.5390625Q63.931640625 48.38671875 63.931640625 49.876953125H59.939453125Q59.939453125 47.89453125 60.8486328125 46.4248046875Q61.7578125 44.955078125 63.37109375 44.1552734375Q64.984375 43.35546875 67.08984375 43.35546875Q69.25 43.35546875 70.86328125 44.1279296875Q72.4765625 44.900390625 73.3720703125 46.25390625Q74.267578125 47.607421875 74.267578125 49.37109375Q74.267578125 50.505859375 73.8232421875 51.61328125Q73.37890625 52.720703125 72.2373046875 54.0947265625Q71.095703125 55.46875 69.00390625 57.3828125L65.927734375 60.41796875V60.568359375H74.541015625V64.0Z" fill="#FAF6EE"/>
  <circle cx="200" cy="48" r="6" fill="#F5C518"/>
  <path d="M37.23828125 160.0V101.796875H58.72265625L66.14453125 124.453125Q66.73046875 126.4453125 67.4921875 129.6484375Q68.25390625 132.8515625 69.03515625 136.5625Q69.81640625 140.2734375 70.51953125 143.75Q71.18359375 140.2734375 71.9453125 136.58203125Q72.70703125 132.890625 73.46875 129.66796875Q74.23046875 126.4453125 74.81640625 124.453125L82.12109375 101.796875H103.64453125V160.0H89.77734375V134.921875Q89.77734375 132.6953125 89.875 129.08203125Q89.97265625 125.46875 90.08984375 121.25Q90.20703125 117.03125 90.28515625 113.125Q89.30859375 117.265625 88.234375 121.4453125Q87.16015625 125.625 86.18359375 129.16015625Q85.20703125 132.6953125 84.50390625 134.921875L76.22265625 160.0H64.69921875L56.30078125 134.921875Q55.63671875 132.7734375 54.66015625 129.375Q53.68359375 125.9765625 52.609375 121.93359375Q51.53515625 117.890625 50.55859375 113.7890625Q50.63671875 117.6171875 50.75390625 121.6796875Q50.87109375 125.7421875 50.96875 129.23828125Q51.06640625 132.734375 51.06640625 134.921875V160.0Z M109.70703125 160.0V101.796875H123.49609375V124.6484375H146.73828125V101.796875H160.48828125V160.0H146.73828125V135.8984375H123.49609375V160.0Z M166.58984375 160.0V101.796875H180.37890625V148.75H204.71484375V160.0Z" fill="#FAF6EE"/>
  <path d="M38.671142578125 198.0V188.5419921875H40.803955078125L42.866943359375 193.96923828125Q42.962158203125 194.22314453125 43.082763671875 194.626220703125Q43.203369140625 195.029296875 43.330322265625 195.49267578125Q43.457275390625 195.9560546875 43.565185546875 196.3876953125Q43.679443359375 195.96875 43.806396484375 195.50537109375Q43.933349609375 195.0419921875 44.053955078125 194.6357421875Q44.174560546875 194.2294921875 44.269775390625 193.96923828125L46.301025390625 188.5419921875H48.446533203125V198.0H47.005615234375V192.9091796875Q47.005615234375 192.388671875 47.021484375 191.566650390625Q47.037353515625 190.74462890625 47.056396484375 189.951171875Q46.891357421875 190.52880859375 46.713623046875 191.09375Q46.535888671875 191.65869140625 46.377197265625 192.137939453125Q46.218505859375 192.6171875 46.110595703125 192.9091796875L44.174560546875 198.0H42.936767578125L40.975341796875 192.9091796875Q40.810302734375 192.48388671875 40.55322265625 191.67138671875Q40.296142578125 190.85888671875 40.023193359375 189.98291015625Q40.035888671875 190.47802734375 40.048583984375 191.017578125Q40.061279296875 191.55712890625 40.07080078125 192.05224609375Q40.080322265625 192.54736328125 40.080322265625 192.9091796875V198.0Z M56.976806640625 198.126953125Q55.751708984375 198.126953125 54.78369140625 197.54296875Q53.815673828125 196.958984375 53.26025390625 195.87353515625Q52.704833984375 194.7880859375 52.704833984375 193.27734375Q52.704833984375 191.76025390625 53.26025390625 190.671630859375Q53.815673828125 189.5830078125 54.78369140625 188.9990234375Q55.751708984375 188.4150390625 56.976806640625 188.4150390625Q58.201904296875 188.4150390625 59.16357421875 188.9990234375Q60.125244140625 189.5830078125 60.6806640625 190.671630859375Q61.236083984375 191.76025390625 61.236083984375 193.27734375Q61.236083984375 194.7880859375 60.6806640625 195.876708984375Q60.125244140625 196.96533203125 59.16357421875 197.546142578125Q58.201904296875 198.126953125 56.976806640625 198.126953125ZM56.976806640625 196.806640625Q57.782958984375 196.806640625 58.4208984375 196.400390625Q59.058837890625 195.994140625 59.43017578125 195.20703125Q59.801513671875 194.419921875 59.801513671875 193.27734375Q59.801513671875 192.12841796875 59.43017578125 191.338134765625Q59.058837890625 190.5478515625 58.4208984375 190.1416015625Q57.782958984375 189.7353515625 56.976806640625 189.7353515625Q56.164306640625 189.7353515625 55.523193359375 190.1416015625Q54.882080078125 190.5478515625 54.5107421875 191.338134765625Q54.139404296875 192.12841796875 54.139404296875 193.27734375Q54.139404296875 194.419921875 54.5107421875 195.20703125Q54.882080078125 195.994140625 55.523193359375 196.400390625Q56.164306640625 196.806640625 56.976806640625 196.806640625Z M68.674560546875 198.15869140625Q67.081298828125 198.15869140625 66.135498046875 197.412841796875Q65.189697265625 196.6669921875 65.126220703125 195.3720703125H66.579833984375Q66.643310546875 196.146484375 67.246337890625 196.517822265625Q67.849365234375 196.88916015625 68.668212890625 196.88916015625Q69.569580078125 196.88916015625 70.159912109375 196.47021484375Q70.750244140625 196.05126953125 70.750244140625 195.36572265625Q70.750244140625 194.75 70.23291015625 194.448486328125Q69.715576171875 194.14697265625 68.953857421875 193.94384765625L67.849365234375 193.63916015625Q66.687744140625 193.328125 66.037109375 192.71875Q65.386474609375 192.109375 65.386474609375 191.13818359375Q65.386474609375 190.3193359375 65.82763671875 189.706787109375Q66.268798828125 189.09423828125 67.02734375 188.754638671875Q67.785888671875 188.4150390625 68.738037109375 188.4150390625Q69.709228515625 188.4150390625 70.44873046875 188.754638671875Q71.188232421875 189.09423828125 71.6103515625 189.687744140625Q72.032470703125 190.28125 72.051513671875 191.0302734375H70.642333984375Q70.572509765625 190.3828125 70.04248046875 190.02734375Q69.512451171875 189.671875 68.706298828125 189.671875Q67.849365234375 189.671875 67.341552734375 190.062255859375Q66.833740234375 190.45263671875 66.833740234375 191.0556640625Q66.833740234375 191.50634765625 67.106689453125 191.782470703125Q67.379638671875 192.05859375 67.7763671875 192.220458984375Q68.173095703125 192.38232421875 68.534912109375 192.4775390625L69.455322265625 192.71875Q69.906005859375 192.8330078125 70.38525390625 193.026611328125Q70.864501953125 193.22021484375 71.270751953125 193.528076171875Q71.677001953125 193.8359375 71.927734375 194.289794921875Q72.178466796875 194.74365234375 72.178466796875 195.384765625Q72.178466796875 196.1845703125 71.765869140625 196.81298828125Q71.353271484375 197.44140625 70.5693359375 197.800048828125Q69.785400390625 198.15869140625 68.674560546875 198.15869140625Z M75.922607421875 189.7861328125V188.5419921875H83.266845703125V189.7861328125H80.327880859375V198.0H78.874267578125V189.7861328125Z M87.385498046875 198.0V188.5419921875H88.832763671875V196.755859375H93.117431640625V198.0Z M99.997314453125 198.0V194.23583984375L96.512451171875 188.5419921875H98.200927734375L99.978271484375 191.55712890625Q100.200439453125 191.931640625 100.38134765625 192.271240234375Q100.562255859375 192.61083984375 100.733642578125 193.02978515625Q100.911376953125 192.59814453125 101.089111328125 192.258544921875Q101.266845703125 191.9189453125 101.476318359375 191.55712890625L103.234619140625 188.5419921875H104.916748046875L101.444580078125 194.23583984375V198.0Z M114.753662109375 198.0V188.5419921875H116.200927734375V192.541015625H120.885498046875V188.5419921875H122.339111328125V198.0H120.885498046875V193.78515625H116.200927734375V198.0Z M126.210205078125 198.0 129.574462890625 188.5419921875H131.351806640625L134.779541015625 198.0H133.211669921875L132.342041015625 195.50537109375H128.622314453125L127.778076171875 198.0ZM129.034912109375 194.29931640625H131.916748046875L131.370849609375 192.73779296875Q131.180419921875 192.1728515625 130.958251953125 191.427001953125Q130.736083984375 190.68115234375 130.456787109375 189.67822265625Q130.177490234375 190.69384765625 129.95849609375 191.446044921875Q129.739501953125 192.1982421875 129.561767578125 192.73779296875Z M138.650634765625 198.0V188.5419921875H142.040283203125Q143.132080078125 188.5419921875 143.862060546875 188.9228515625Q144.592041015625 189.3037109375 144.953857421875 189.973388671875Q145.315673828125 190.64306640625 145.315673828125 191.5126953125Q145.315673828125 192.46484375 144.884033203125 193.159912109375Q144.452392578125 193.85498046875 143.589111328125 194.1787109375L145.671142578125 198.0H144.027099609375L142.110107421875 194.42626953125Q142.072021484375 194.42626953125 142.027587890625 194.42626953125H140.097900390625V198.0ZM140.097900390625 193.1884765625H141.887939453125Q142.928955078125 193.1884765625 143.38916015625 192.747314453125Q143.849365234375 192.30615234375 143.849365234375 191.5126953125Q143.849365234375 190.712890625 143.385986328125 190.246337890625Q142.922607421875 189.77978515625 141.875244140625 189.77978515625H140.097900390625Z M149.573974609375 198.0V188.5419921875H151.706787109375L153.769775390625 193.96923828125Q153.864990234375 194.22314453125 153.985595703125 194.626220703125Q154.106201171875 195.029296875 154.233154296875 195.49267578125Q154.360107421875 195.9560546875 154.468017578125 196.3876953125Q154.582275390625 195.96875 154.709228515625 195.50537109375Q154.836181640625 195.0419921875 154.956787109375 194.6357421875Q155.077392578125 194.2294921875 155.172607421875 193.96923828125L157.203857421875 188.5419921875H159.349365234375V198.0H157.908447265625V192.9091796875Q157.908447265625 192.388671875 157.92431640625 191.566650390625Q157.940185546875 190.74462890625 157.959228515625 189.951171875Q157.794189453125 190.52880859375 157.616455078125 191.09375Q157.438720703125 191.65869140625 157.280029296875 192.137939453125Q157.121337890625 192.6171875 157.013427734375 192.9091796875L155.077392578125 198.0H153.839599609375L151.878173828125 192.9091796875Q151.713134765625 192.48388671875 151.4560546875 191.67138671875Q151.198974609375 190.85888671875 150.926025390625 189.98291015625Q150.938720703125 190.47802734375 150.951416015625 191.017578125Q150.964111328125 191.55712890625 150.9736328125 192.05224609375Q150.983154296875 192.54736328125 150.983154296875 192.9091796875V198.0Z M163.937744140625 198.0V188.5419921875H165.385009765625V196.755859375H169.669677734375V198.0Z M173.788330078125 198.0V188.5419921875H179.742431640625V189.7861328125H175.235595703125V192.6044921875H179.425048828125V193.84228515625H175.235595703125V196.755859375H179.780517578125V198.0Z M187.301513671875 198.15869140625Q185.708251953125 198.15869140625 184.762451171875 197.412841796875Q183.816650390625 196.6669921875 183.753173828125 195.3720703125H185.206787109375Q185.270263671875 196.146484375 185.873291015625 196.517822265625Q186.476318359375 196.88916015625 187.295166015625 196.88916015625Q188.196533203125 196.88916015625 188.786865234375 196.47021484375Q189.377197265625 196.05126953125 189.377197265625 195.36572265625Q189.377197265625 194.75 188.85986328125 194.448486328125Q188.342529296875 194.14697265625 187.580810546875 193.94384765625L186.476318359375 193.63916015625Q185.314697265625 193.328125 184.6640625 192.71875Q184.013427734375 192.109375 184.013427734375 191.13818359375Q184.013427734375 190.3193359375 184.45458984375 189.706787109375Q184.895751953125 189.09423828125 185.654296875 188.754638671875Q186.412841796875 188.4150390625 187.364990234375 188.4150390625Q188.336181640625 188.4150390625 189.07568359375 188.754638671875Q189.815185546875 189.09423828125 190.2373046875 189.687744140625Q190.659423828125 190.28125 190.678466796875 191.0302734375H189.269287109375Q189.199462890625 190.3828125 188.66943359375 190.02734375Q188.139404296875 189.671875 187.333251953125 189.671875Q186.476318359375 189.671875 185.968505859375 190.062255859375Q185.460693359375 190.45263671875 185.460693359375 191.0556640625Q185.460693359375 191.50634765625 185.733642578125 191.782470703125Q186.006591796875 192.05859375 186.4033203125 192.220458984375Q186.800048828125 192.38232421875 187.161865234375 192.4775390625L188.082275390625 192.71875Q188.532958984375 192.8330078125 189.01220703125 193.026611328125Q189.491455078125 193.22021484375 189.897705078125 193.528076171875Q190.303955078125 193.8359375 190.5546875 194.289794921875Q190.805419921875 194.74365234375 190.805419921875 195.384765625Q190.805419921875 196.1845703125 190.392822265625 196.81298828125Q189.980224609375 197.44140625 189.1962890625 197.800048828125Q188.412353515625 198.15869140625 187.301513671875 198.15869140625Z M198.199462890625 198.15869140625Q196.606201171875 198.15869140625 195.660400390625 197.412841796875Q194.714599609375 196.6669921875 194.651123046875 195.3720703125H196.104736328125Q196.168212890625 196.146484375 196.771240234375 196.517822265625Q197.374267578125 196.88916015625 198.193115234375 196.88916015625Q199.094482421875 196.88916015625 199.684814453125 196.47021484375Q200.275146484375 196.05126953125 200.275146484375 195.36572265625Q200.275146484375 194.75 199.7578125 194.448486328125Q199.240478515625 194.14697265625 198.478759765625 193.94384765625L197.374267578125 193.63916015625Q196.212646484375 193.328125 195.56201171875 192.71875Q194.911376953125 192.109375 194.911376953125 191.13818359375Q194.911376953125 190.3193359375 195.3525390625 189.706787109375Q195.793701171875 189.09423828125 196.55224609375 188.754638671875Q197.310791015625 188.4150390625 198.262939453125 188.4150390625Q199.234130859375 188.4150390625 199.9736328125 188.754638671875Q200.713134765625 189.09423828125 201.13525390625 189.687744140625Q201.557373046875 190.28125 201.576416015625 191.0302734375H200.167236328125Q200.097412109375 190.3828125 199.5673828125 190.02734375Q199.037353515625 189.671875 198.231201171875 189.671875Q197.374267578125 189.671875 196.866455078125 190.062255859375Q196.358642578125 190.45263671875 196.358642578125 191.0556640625Q196.358642578125 191.50634765625 196.631591796875 191.782470703125Q196.904541015625 192.05859375 197.30126953125 192.220458984375Q197.697998046875 192.38232421875 198.059814453125 192.4775390625L198.980224609375 192.71875Q199.430908203125 192.8330078125 199.91015625 193.026611328125Q200.389404296875 193.22021484375 200.795654296875 193.528076171875Q201.201904296875 193.8359375 201.45263671875 194.289794921875Q201.703369140625 194.74365234375 201.703369140625 195.384765625Q201.703369140625 196.1845703125 201.290771484375 196.81298828125Q200.878173828125 197.44140625 200.09423828125 197.800048828125Q199.310302734375 198.15869140625 198.199462890625 198.15869140625Z" fill="#FAF6EE"/>
</svg>
