<?xml version="1.0" encoding="UTF-8"?>
<svg xmlns="http://www.w3.org/2000/svg" viewBox="0 0 400 360" preserveAspectRatio="xMidYMid meet">

  <g transform="translate(80,0)"><rect x="20" y="20" width="200" height="200" rx="20" fill="none" stroke="#0E1116" stroke-width="6"/>
  <path d="M41.380859375 60.376953125V57.08203125L49.8984375 43.62890625H55.134765625V57.013671875H57.677734375V60.376953125H55.134765625V64.0H51.12890625V60.376953125ZM51.2109375 57.013671875V48.22265625H51.046875L45.591796875 56.849609375V57.013671875Z M60.130859375 64.0V60.9921875L67.349609375 54.224609375Q68.73046875 52.87109375 69.4755859375 51.8662109375Q70.220703125 50.861328125 70.220703125 49.630859375Q70.220703125 48.263671875 69.3251953125 47.4775390625Q68.4296875 46.69140625 67.0625 46.69140625Q65.640625 46.69140625 64.7861328125 47.5390625Q63.931640625 48.38671875 63.931640625 49.876953125H59.939453125Q59.939453125 47.89453125 60.8486328125 46.4248046875Q61.7578125 44.955078125 63.37109375 44.1552734375Q64.984375 43.35546875 67.08984375 43.35546875Q69.25 43.35546875 70.86328125 44.1279296875Q72.4765625 44.900390625 73.3720703125 46.25390625Q74.267578125 47.607421875 74.267578125 49.37109375Q74.267578125 50.505859375 73.8232421875 51.61328125Q73.37890625 52.720703125 72.2373046875 54.0947265625Q71.095703125 55.46875 69.00390625 57.3828125L65.927734375 60.41796875V60.568359375H74.541015625V64.0Z" fill="#0E1116"/>
  <circle cx="200" cy="48" r="6" fill="#F5C518"/>
  <path d="M37.23828125 148.0V89.796875H58.72265625L66.14453125 112.453125Q66.73046875 114.4453125 67.4921875 117.6484375Q68.25390625 120.8515625 69.03515625 124.5625Q69.81640625 128.2734375 70.51953125 131.75Q71.18359375 128.2734375 71.9453125 124.58203125Q72.70703125 120.890625 73.46875 117.66796875Q74.23046875 114.4453125 74.81640625 112.453125L82.12109375 89.796875H103.64453125V148.0H89.77734375V122.921875Q89.77734375 120.6953125 89.875 117.08203125Q89.97265625 113.46875 90.08984375 109.25Q90.20703125 105.03125 90.28515625 101.125Q89.30859375 105.265625 88.234375 109.4453125Q87.16015625 113.625 86.18359375 117.16015625Q85.20703125 120.6953125 84.50390625 122.921875L76.22265625 148.0H64.69921875L56.30078125 122.921875Q55.63671875 120.7734375 54.66015625 117.375Q53.68359375 113.9765625 52.609375 109.93359375Q51.53515625 105.890625 50.55859375 101.7890625Q50.63671875 105.6171875 50.75390625 109.6796875Q50.87109375 113.7421875 50.96875 117.23828125Q51.06640625 120.734375 51.06640625 122.921875V148.0Z M109.70703125 148.0V89.796875H123.49609375V112.6484375H146.73828125V89.796875H160.48828125V148.0H146.73828125V123.8984375H123.49609375V148.0Z M166.58984375 148.0V89.796875H180.37890625V136.75H204.71484375V148.0Z" fill="#0E1116"/></g>
  <g transform="translate(200,0)"><path d="M-131.036875 300.0V265.0625H-121.00562500000001L-120.50562500000001 272.0Q-119.06812500000001 268.0625 -116.33375000000001 266.328125Q-113.59937500000001 264.59375 -110.44312500000001 264.59375Q-107.13062500000001 264.59375 -104.92750000000001 266.5Q-102.72437500000001 268.40625 -101.44312500000001 272.6875Q-99.84937500000001 268.375 -96.74000000000001 266.484375Q-93.63062500000001 264.59375 -90.09937500000001 264.59375Q-85.19312500000001 264.59375 -82.05250000000001 267.75Q-78.91187500000001 270.90625 -78.91187500000001 276.4375V300.0H-89.81812500000001V278.90625Q-89.81812500000001 276.25 -91.19312500000001 274.875Q-92.56812500000001 273.5 -94.72437500000001 273.5Q-97.03687500000001 273.5 -98.38062500000001 275.015625Q-99.72437500000001 276.53125 -99.72437500000001 279.03125V300.0H-110.19312500000001V278.75Q-110.19312500000001 276.34375 -111.55250000000001 274.921875Q-112.91187500000001 273.5 -115.06812500000001 273.5Q-117.28687500000001 273.5 -118.70875000000001 275.0Q-120.13062500000001 276.5 -120.13062500000001 279.25V300.0Z M-62.78687500000001 280.0625V300.0H-73.69312500000001V253.4375H-63.00562500000001V272.0Q-61.59937500000001 268.625 -58.99000000000001 266.625Q-56.38062500000001 264.625 -52.31812500000001 264.625Q-46.84937500000001 264.625 -43.53687500000001 268.21875Q-40.22437500000001 271.8125 -40.22437500000001 277.75V300.0H-51.13062500000001V279.875Q-51.13062500000001 276.9375 -52.63062500000001 275.265625Q-54.13062500000001 273.59375 -56.81812500000001 273.59375Q-59.47437500000001 273.59375 -61.13062500000001 275.296875Q-62.78687500000001 277.0 -62.78687500000001 280.0625Z M-24.13062500000001 253.4375V300.0H-35.03687500000001V253.4375Z M-19.59937500000001 292.21875V283.59375L-0.4743750000000091 253.4375H13.431874999999991V283.5H19.02562499999999V292.21875H13.431874999999991V300.0H2.838124999999991V292.21875ZM3.088124999999991 283.5V265.1875H2.713124999999991L-8.630625000000009 283.125V283.5Z M23.02562499999999 300.0V292.09375L39.96312499999999 277.125Q42.83812499999999 274.5 44.44749999999999 272.421875Q46.05687499999999 270.34375 46.05687499999999 267.6875Q46.05687499999999 264.78125 44.18187499999999 263.125Q42.30687499999999 261.46875 39.43187499999999 261.46875Q36.46312499999999 261.46875 34.68187499999999 263.21875Q32.90062499999999 264.96875 32.90062499999999 268.15625H22.40062499999999Q22.40062499999999 263.4375 24.54124999999999 260.0Q26.68187499999999 256.5625 30.52562499999999 254.6875Q34.36937499999999 252.8125 39.46312499999999 252.8125Q44.71312499999999 252.8125 48.60374999999999 254.578125Q52.49437499999999 256.34375 54.61937499999999 259.515625Q56.74437499999999 262.6875 56.74437499999999 266.84375Q56.74437499999999 269.5 55.69749999999999 272.09375Q54.65062499999999 274.6875 51.90062499999999 277.859375Q49.15062499999999 281.03125 44.11937499999999 285.40625L38.33812499999999 290.78125V291.09375H57.33812499999999V300.0Z" fill="#0E1116"/>
  <circle cx="66.77" cy="293.60" r="4.48" fill="#F5C518"/>
  <path d="M94.224375 300.625Q89.193125 300.625 85.95875 298.0625Q82.724375 295.5 82.724375 290.3125Q82.724375 286.4375 84.505625 284.15625Q86.286875 281.875 89.24 280.78125Q92.193125 279.6875 95.724375 279.375Q100.161875 279.0 102.08375 278.453125Q104.005625 277.90625 104.005625 276.28125V276.15625Q104.005625 274.34375 102.74 273.359375Q101.474375 272.375 99.255625 272.375Q96.974375 272.375 95.505625 273.34375Q94.036875 274.3125 93.599375 275.96875L83.724375 274.6875Q84.755625 270.21875 88.77125 267.421875Q92.786875 264.625 99.349375 264.625Q103.693125 264.625 107.20875 265.96875Q110.724375 267.3125 112.8025 269.921875Q114.880625 272.53125 114.880625 276.28125V300.0H104.630625V295.09375H104.349375Q101.443125 300.625 94.224375 300.625ZM97.536875 293.40625Q100.286875 293.40625 102.193125 291.78125Q104.099375 290.15625 104.099375 287.5625V284.21875Q103.161875 284.71875 101.380625 285.0625Q99.599375 285.40625 98.068125 285.65625Q93.036875 286.40625 93.036875 289.8125Q93.036875 291.5625 94.3025 292.484375Q95.568125 293.40625 97.536875 293.40625Z M120.099375 300.0V265.0625H131.005625V300.0ZM125.536875 260.96875Q123.224375 260.96875 121.568125 259.4375Q119.911875 257.90625 119.911875 255.71875Q119.911875 253.53125 121.568125 252.0Q123.224375 250.46875 125.536875 250.46875Q127.880625 250.46875 129.536875 252.0Q131.193125 253.53125 131.193125 255.71875Q131.193125 257.90625 129.536875 259.4375Q127.880625 260.96875 125.536875 260.96875Z" fill="#0E1116"/>
  <path d="M-89.73876953125 330.0V319.814453125H-87.44189453125L-85.22021484375 325.6591796875Q-85.11767578125 325.9326171875 -84.98779296875 326.36669921875Q-84.85791015625 326.80078125 -84.72119140625 327.2998046875Q-84.58447265625 327.798828125 -84.46826171875 328.263671875Q-84.34521484375 327.8125 -84.20849609375 327.3134765625Q-84.07177734375 326.814453125 -83.94189453125 326.376953125Q-83.81201171875 325.939453125 -83.70947265625 325.6591796875L-81.52197265625 319.814453125H-79.21142578125V330.0H-80.76318359375V324.517578125Q-80.76318359375 323.95703125 -80.74609375 323.07177734375Q-80.72900390625 322.1865234375 -80.70849609375 321.33203125Q-80.88623046875 321.9541015625 -81.07763671875 322.5625Q-81.26904296875 323.1708984375 -81.43994140625 323.68701171875Q-81.61083984375 324.203125 -81.72705078125 324.517578125L-83.81201171875 330.0H-85.14501953125L-87.25732421875 324.517578125Q-87.43505859375 324.0595703125 -87.7119140625 323.1845703125Q-87.98876953125 322.3095703125 -88.28271484375 321.3662109375Q-88.26904296875 321.8994140625 -88.25537109375 322.48046875Q-88.24169921875 323.0615234375 -88.2314453125 323.5947265625Q-88.22119140625 324.1279296875 -88.22119140625 324.517578125V330.0Z M-69.71728515625 330.13671875Q-71.03662109375 330.13671875 -72.0791015625 329.5078125Q-73.12158203125 328.87890625 -73.7197265625 327.7099609375Q-74.31787109375 326.541015625 -74.31787109375 324.9140625Q-74.31787109375 323.2802734375 -73.7197265625 322.10791015625Q-73.12158203125 320.935546875 -72.0791015625 320.306640625Q-71.03662109375 319.677734375 -69.71728515625 319.677734375Q-68.39794921875 319.677734375 -67.3623046875 320.306640625Q-66.32666015625 320.935546875 -65.728515625 322.10791015625Q-65.13037109375 323.2802734375 -65.13037109375 324.9140625Q-65.13037109375 326.541015625 -65.728515625 327.71337890625Q-66.32666015625 328.8857421875 -67.3623046875 329.51123046875Q-68.39794921875 330.13671875 -69.71728515625 330.13671875ZM-69.71728515625 328.71484375Q-68.84912109375 328.71484375 -68.162109375 328.27734375Q-67.47509765625 327.83984375 -67.0751953125 326.9921875Q-66.67529296875 326.14453125 -66.67529296875 324.9140625Q-66.67529296875 323.6767578125 -67.0751953125 322.82568359375Q-67.47509765625 321.974609375 -68.162109375 321.537109375Q-68.84912109375 321.099609375 -69.71728515625 321.099609375Q-70.59228515625 321.099609375 -71.28271484375 321.537109375Q-71.97314453125 321.974609375 -72.373046875 322.82568359375Q-72.77294921875 323.6767578125 -72.77294921875 324.9140625Q-72.77294921875 326.14453125 -72.373046875 326.9921875Q-71.97314453125 327.83984375 -71.28271484375 328.27734375Q-70.59228515625 328.71484375 -69.71728515625 328.71484375Z M-56.81201171875 330.1708984375Q-58.52783203125 330.1708984375 -59.54638671875 329.36767578125Q-60.56494140625 328.564453125 -60.63330078125 327.169921875H-59.06787109375Q-58.99951171875 328.00390625 -58.35009765625 328.40380859375Q-57.70068359375 328.8037109375 -56.81884765625 328.8037109375Q-55.84814453125 328.8037109375 -55.21240234375 328.3525390625Q-54.57666015625 327.9013671875 -54.57666015625 327.1630859375Q-54.57666015625 326.5 -55.1337890625 326.17529296875Q-55.69091796875 325.8505859375 -56.51123046875 325.6318359375L-57.70068359375 325.3037109375Q-58.95166015625 324.96875 -59.65234375 324.3125Q-60.35302734375 323.65625 -60.35302734375 322.6103515625Q-60.35302734375 321.728515625 -59.8779296875 321.06884765625Q-59.40283203125 320.4091796875 -58.5859375 320.04345703125Q-57.76904296875 319.677734375 -56.74365234375 319.677734375Q-55.69775390625 319.677734375 -54.9013671875 320.04345703125Q-54.10498046875 320.4091796875 -53.650390625 321.04833984375Q-53.19580078125 321.6875 -53.17529296875 322.494140625H-54.69287109375Q-54.76806640625 321.796875 -55.3388671875 321.4140625Q-55.90966796875 321.03125 -56.77783203125 321.03125Q-57.70068359375 321.03125 -58.24755859375 321.45166015625Q-58.79443359375 321.8720703125 -58.79443359375 322.521484375Q-58.79443359375 323.0068359375 -58.50048828125 323.30419921875Q-58.20654296875 323.6015625 -57.779296875 323.77587890625Q-57.35205078125 323.9501953125 -56.96240234375 324.052734375L-55.97119140625 324.3125Q-55.48583984375 324.435546875 -54.9697265625 324.64404296875Q-54.45361328125 324.8525390625 -54.01611328125 325.18408203125Q-53.57861328125 325.515625 -53.30859375 326.00439453125Q-53.03857421875 326.4931640625 -53.03857421875 327.18359375Q-53.03857421875 328.044921875 -53.48291015625 328.7216796875Q-53.92724609375 329.3984375 -54.771484375 329.78466796875Q-55.61572265625 330.1708984375 -56.81201171875 330.1708984375Z M-48.69873046875 321.154296875V319.814453125H-40.78955078125V321.154296875H-43.95458984375V330.0H-45.52001953125V321.154296875Z M-36.04638671875 330.0V319.814453125H-34.48779296875V328.66015625H-29.87353515625V330.0Z M-22.15673828125 330.0V325.9462890625L-25.90966796875 319.814453125H-24.09130859375L-22.17724609375 323.0615234375Q-21.93798828125 323.46484375 -21.7431640625 323.83056640625Q-21.54833984375 324.1962890625 -21.36376953125 324.6474609375Q-21.17236328125 324.1826171875 -20.98095703125 323.81689453125Q-20.78955078125 323.451171875 -20.56396484375 323.0615234375L-18.67041015625 319.814453125H-16.85888671875L-20.59814453125 325.9462890625V330.0Z M-5.64990234375 330.0V319.814453125H-4.09130859375V324.12109375H0.95361328125V319.814453125H2.51904296875V330.0H0.95361328125V325.4609375H-4.09130859375V330.0Z M6.99560546875 330.0 10.61865234375 319.814453125H12.53271484375L16.22412109375 330.0H14.53564453125L13.59912109375 327.3134765625H9.59326171875L8.68408203125 330.0ZM10.03759765625 326.0146484375H13.14111328125L12.55322265625 324.3330078125Q12.34814453125 323.724609375 12.10888671875 322.92138671875Q11.86962890625 322.1181640625 11.56884765625 321.0380859375Q11.26806640625 322.1318359375 11.0322265625 322.94189453125Q10.79638671875 323.751953125 10.60498046875 324.3330078125Z M20.70068359375 330.0V319.814453125H24.35107421875Q25.52685546875 319.814453125 26.31298828125 320.224609375Q27.09912109375 320.634765625 27.48876953125 321.35595703125Q27.87841796875 322.0771484375 27.87841796875 323.013671875Q27.87841796875 324.0390625 27.41357421875 324.78759765625Q26.94873046875 325.5361328125 26.01904296875 325.884765625L28.26123046875 330.0H26.49072265625L24.42626953125 326.1513671875Q24.38525390625 326.1513671875 24.33740234375 326.1513671875H22.25927734375V330.0ZM22.25927734375 324.818359375H24.18701171875Q25.30810546875 324.818359375 25.8037109375 324.34326171875Q26.29931640625 323.8681640625 26.29931640625 323.013671875Q26.29931640625 322.15234375 25.80029296875 321.64990234375Q25.30126953125 321.1474609375 24.17333984375 321.1474609375H22.25927734375Z M32.77197265625 330.0V319.814453125H35.06884765625L37.29052734375 325.6591796875Q37.39306640625 325.9326171875 37.52294921875 326.36669921875Q37.65283203125 326.80078125 37.78955078125 327.2998046875Q37.92626953125 327.798828125 38.04248046875 328.263671875Q38.16552734375 327.8125 38.30224609375 327.3134765625Q38.43896484375 326.814453125 38.56884765625 326.376953125Q38.69873046875 325.939453125 38.80126953125 325.6591796875L40.98876953125 319.814453125H43.29931640625V330.0H41.74755859375V324.517578125Q41.74755859375 323.95703125 41.7646484375 323.07177734375Q41.78173828125 322.1865234375 41.80224609375 321.33203125Q41.62451171875 321.9541015625 41.43310546875 322.5625Q41.24169921875 323.1708984375 41.07080078125 323.68701171875Q40.89990234375 324.203125 40.78369140625 324.517578125L38.69873046875 330.0H37.36572265625L35.25341796875 324.517578125Q35.07568359375 324.0595703125 34.798828125 323.1845703125Q34.52197265625 322.3095703125 34.22802734375 321.3662109375Q34.24169921875 321.8994140625 34.25537109375 322.48046875Q34.26904296875 323.0615234375 34.279296875 323.5947265625Q34.28955078125 324.1279296875 34.28955078125 324.517578125V330.0Z M48.54833984375 330.0V319.814453125H50.10693359375V328.66015625H54.72119140625V330.0Z M59.46435546875 330.0V319.814453125H65.87646484375V321.154296875H61.02294921875V324.189453125H65.53466796875V325.5224609375H61.02294921875V328.66015625H65.91748046875V330.0Z M74.32470703125 330.1708984375Q72.60888671875 330.1708984375 71.59033203125 329.36767578125Q70.57177734375 328.564453125 70.50341796875 327.169921875H72.06884765625Q72.13720703125 328.00390625 72.78662109375 328.40380859375Q73.43603515625 328.8037109375 74.31787109375 328.8037109375Q75.28857421875 328.8037109375 75.92431640625 328.3525390625Q76.56005859375 327.9013671875 76.56005859375 327.1630859375Q76.56005859375 326.5 76.0029296875 326.17529296875Q75.44580078125 325.8505859375 74.62548828125 325.6318359375L73.43603515625 325.3037109375Q72.18505859375 324.96875 71.484375 324.3125Q70.78369140625 323.65625 70.78369140625 322.6103515625Q70.78369140625 321.728515625 71.2587890625 321.06884765625Q71.73388671875 320.4091796875 72.55078125 320.04345703125Q73.36767578125 319.677734375 74.39306640625 319.677734375Q75.43896484375 319.677734375 76.2353515625 320.04345703125Q77.03173828125 320.4091796875 77.486328125 321.04833984375Q77.94091796875 321.6875 77.96142578125 322.494140625H76.44384765625Q76.36865234375 321.796875 75.7978515625 321.4140625Q75.22705078125 321.03125 74.35888671875 321.03125Q73.43603515625 321.03125 72.88916015625 321.45166015625Q72.34228515625 321.8720703125 72.34228515625 322.521484375Q72.34228515625 323.0068359375 72.63623046875 323.30419921875Q72.93017578125 323.6015625 73.357421875 323.77587890625Q73.78466796875 323.9501953125 74.17431640625 324.052734375L75.16552734375 324.3125Q75.65087890625 324.435546875 76.1669921875 324.64404296875Q76.68310546875 324.8525390625 77.12060546875 325.18408203125Q77.55810546875 325.515625 77.828125 326.00439453125Q78.09814453125 326.4931640625 78.09814453125 327.18359375Q78.09814453125 328.044921875 77.65380859375 328.7216796875Q77.20947265625 329.3984375 76.365234375 329.78466796875Q75.52099609375 330.1708984375 74.32470703125 330.1708984375Z M86.36865234375 330.1708984375Q84.65283203125 330.1708984375 83.63427734375 329.36767578125Q82.61572265625 328.564453125 82.54736328125 327.169921875H84.11279296875Q84.18115234375 328.00390625 84.83056640625 328.40380859375Q85.47998046875 328.8037109375 86.36181640625 328.8037109375Q87.33251953125 328.8037109375 87.96826171875 328.3525390625Q88.60400390625 327.9013671875 88.60400390625 327.1630859375Q88.60400390625 326.5 88.046875 326.17529296875Q87.48974609375 325.8505859375 86.66943359375 325.6318359375L85.47998046875 325.3037109375Q84.22900390625 324.96875 83.5283203125 324.3125Q82.82763671875 323.65625 82.82763671875 322.6103515625Q82.82763671875 321.728515625 83.302734375 321.06884765625Q83.77783203125 320.4091796875 84.5947265625 320.04345703125Q85.41162109375 319.677734375 86.43701171875 319.677734375Q87.48291015625 319.677734375 88.279296875 320.04345703125Q89.07568359375 320.4091796875 89.5302734375 321.04833984375Q89.98486328125 321.6875 90.00537109375 322.494140625H88.48779296875Q88.41259765625 321.796875 87.841796875 321.4140625Q87.27099609375 321.03125 86.40283203125 321.03125Q85.47998046875 321.03125 84.93310546875 321.45166015625Q84.38623046875 321.8720703125 84.38623046875 322.521484375Q84.38623046875 323.0068359375 84.68017578125 323.30419921875Q84.97412109375 323.6015625 85.4013671875 323.77587890625Q85.82861328125 323.9501953125 86.21826171875 324.052734375L87.20947265625 324.3125Q87.69482421875 324.435546875 88.2109375 324.64404296875Q88.72705078125 324.8525390625 89.16455078125 325.18408203125Q89.60205078125 325.515625 89.8720703125 326.00439453125Q90.14208984375 326.4931640625 90.14208984375 327.18359375Q90.14208984375 328.044921875 89.69775390625 328.7216796875Q89.25341796875 329.3984375 88.4091796875 329.78466796875Q87.56494140625 330.1708984375 86.36865234375 330.1708984375Z" fill="#0E1116"/></g>
</svg>
