<?xml version="1.0" encoding="UTF-8"?>
<svg xmlns="http://www.w3.org/2000/svg" viewBox="0 0 380 110" preserveAspectRatio="xMidYMid meet">

  <g transform="translate(8,16)"><path d="M3.59375 56.0V21.0625H13.625L14.125 28.0Q15.5625 24.0625 18.296875 22.328125Q21.03125 20.59375 24.1875 20.59375Q27.5 20.59375 29.703125 22.5Q31.90625 24.40625 33.1875 28.6875Q34.78125 24.375 37.890625 22.484375Q41.0 20.59375 44.53125 20.59375Q49.4375 20.59375 52.578125 23.75Q55.71875 26.90625 55.71875 32.4375V56.0H44.8125V34.90625Q44.8125 32.25 43.4375 30.875Q42.0625 29.5 39.90625 29.5Q37.59375 29.5 36.25 31.015625Q34.90625 32.53125 34.90625 35.03125V56.0H24.4375V34.75Q24.4375 32.34375 23.078125 30.921875Q21.71875 29.5 19.5625 29.5Q17.34375 29.5 15.921875 31.0Q14.5 32.5 14.5 35.25V56.0Z M71.84375 36.0625V56.0H60.9375V9.4375H71.625V28.0Q73.03125 24.625 75.640625 22.625Q78.25 20.625 82.3125 20.625Q87.78125 20.625 91.09375 24.21875Q94.40625 27.8125 94.40625 33.75V56.0H83.5V35.875Q83.5 32.9375 82.0 31.265625Q80.5 29.59375 77.8125 29.59375Q75.15625 29.59375 73.5 31.296875Q71.84375 33.0 71.84375 36.0625Z M110.5 9.4375V56.0H99.59375V9.4375Z M115.03125 48.21875V39.59375L134.15625 9.4375H148.0625V39.5H153.65625V48.21875H148.0625V56.0H137.46875V48.21875ZM137.71875 39.5V21.1875H137.34375L126.0 39.125V39.5Z M157.65625 56.0V48.09375L174.59375 33.125Q177.46875 30.5 179.078125 28.421875Q180.6875 26.34375 180.6875 23.6875Q180.6875 20.78125 178.8125 19.125Q176.9375 17.46875 174.0625 17.46875Q171.09375 17.46875 169.3125 19.21875Q167.53125 20.96875 167.53125 24.15625H157.03125Q157.03125 19.4375 159.171875 16.0Q161.3125 12.5625 165.15625 10.6875Q169.0 8.8125 174.09375 8.8125Q179.34375 8.8125 183.234375 10.578125Q187.125 12.34375 189.25 15.515625Q191.375 18.6875 191.375 22.84375Q191.375 25.5 190.328125 28.09375Q189.28125 30.6875 186.53125 33.859375Q183.78125 37.03125 178.75 41.40625L172.96875 46.78125V47.09375H191.96875V56.0Z" fill="#0E1116"/>
  <circle cx="201.40" cy="49.60" r="4.48" fill="#F5C518"/>
  <path d="M228.855 56.625Q223.82375 56.625 220.589375 54.0625Q217.355 51.5 217.355 46.3125Q217.355 42.4375 219.13625 40.15625Q220.9175 37.875 223.870625 36.78125Q226.82375 35.6875 230.355 35.375Q234.7925 35.0 236.714375 34.453125Q238.63625 33.90625 238.63625 32.28125V32.15625Q238.63625 30.34375 237.370625 29.359375Q236.105 28.375 233.88625 28.375Q231.605 28.375 230.13625 29.34375Q228.6675 30.3125 228.23 31.96875L218.355 30.6875Q219.38625 26.21875 223.401875 23.421875Q227.4175 20.625 233.98 20.625Q238.32375 20.625 241.839375 21.96875Q245.355 23.3125 247.433125 25.921875Q249.51125 28.53125 249.51125 32.28125V56.0H239.26125V51.09375H238.98Q236.07375 56.625 228.855 56.625ZM232.1675 49.40625Q234.9175 49.40625 236.82375 47.78125Q238.73 46.15625 238.73 43.5625V40.21875Q237.7925 40.71875 236.01125 41.0625Q234.23 41.40625 232.69875 41.65625Q227.6675 42.40625 227.6675 45.8125Q227.6675 47.5625 228.933125 48.484375Q230.19875 49.40625 232.1675 49.40625Z M254.73 56.0V21.0625H265.63625V56.0ZM260.1675 16.96875Q257.855 16.96875 256.19875 15.4375Q254.5425 13.90625 254.5425 11.71875Q254.5425 9.53125 256.19875 8.0Q257.855 6.46875 260.1675 6.46875Q262.51125 6.46875 264.1675 8.0Q265.82375 9.53125 265.82375 11.71875Q265.82375 13.90625 264.1675 15.4375Q262.51125 16.96875 260.1675 16.96875Z" fill="#0E1116"/>
  <path d="M5.1279296875 86.0V75.814453125H7.4248046875L9.646484375 81.6591796875Q9.7490234375 81.9326171875 9.87890625 82.36669921875Q10.0087890625 82.80078125 10.1455078125 83.2998046875Q10.2822265625 83.798828125 10.3984375 84.263671875Q10.521484375 83.8125 10.658203125 83.3134765625Q10.794921875 82.814453125 10.9248046875 82.376953125Q11.0546875 81.939453125 11.1572265625 81.6591796875L13.3447265625 75.814453125H15.6552734375V86.0H14.103515625V80.517578125Q14.103515625 79.95703125 14.12060546875 79.07177734375Q14.1376953125 78.1865234375 14.158203125 77.33203125Q13.98046875 77.9541015625 13.7890625 78.5625Q13.59765625 79.1708984375 13.4267578125 79.68701171875Q13.255859375 80.203125 13.1396484375 80.517578125L11.0546875 86.0H9.7216796875L7.609375 80.517578125Q7.431640625 80.0595703125 7.15478515625 79.1845703125Q6.8779296875 78.3095703125 6.583984375 77.3662109375Q6.59765625 77.8994140625 6.611328125 78.48046875Q6.625 79.0615234375 6.63525390625 79.5947265625Q6.6455078125 80.1279296875 6.6455078125 80.517578125V86.0Z M25.1494140625 86.13671875Q23.830078125 86.13671875 22.78759765625 85.5078125Q21.7451171875 84.87890625 21.14697265625 83.7099609375Q20.548828125 82.541015625 20.548828125 80.9140625Q20.548828125 79.2802734375 21.14697265625 78.10791015625Q21.7451171875 76.935546875 22.78759765625 76.306640625Q23.830078125 75.677734375 25.1494140625 75.677734375Q26.46875 75.677734375 27.50439453125 76.306640625Q28.5400390625 76.935546875 29.13818359375 78.10791015625Q29.736328125 79.2802734375 29.736328125 80.9140625Q29.736328125 82.541015625 29.13818359375 83.71337890625Q28.5400390625 84.8857421875 27.50439453125 85.51123046875Q26.46875 86.13671875 25.1494140625 86.13671875ZM25.1494140625 84.71484375Q26.017578125 84.71484375 26.70458984375 84.27734375Q27.3916015625 83.83984375 27.79150390625 82.9921875Q28.19140625 82.14453125 28.19140625 80.9140625Q28.19140625 79.6767578125 27.79150390625 78.82568359375Q27.3916015625 77.974609375 26.70458984375 77.537109375Q26.017578125 77.099609375 25.1494140625 77.099609375Q24.2744140625 77.099609375 23.583984375 77.537109375Q22.8935546875 77.974609375 22.49365234375 78.82568359375Q22.09375 79.6767578125 22.09375 80.9140625Q22.09375 82.14453125 22.49365234375 82.9921875Q22.8935546875 83.83984375 23.583984375 84.27734375Q24.2744140625 84.71484375 25.1494140625 84.71484375Z M38.0546875 86.1708984375Q36.3388671875 86.1708984375 35.3203125 85.36767578125Q34.3017578125 84.564453125 34.2333984375 83.169921875H35.798828125Q35.8671875 84.00390625 36.5166015625 84.40380859375Q37.166015625 84.8037109375 38.0478515625 84.8037109375Q39.0185546875 84.8037109375 39.654296875 84.3525390625Q40.2900390625 83.9013671875 40.2900390625 83.1630859375Q40.2900390625 82.5 39.73291015625 82.17529296875Q39.17578125 81.8505859375 38.35546875 81.6318359375L37.166015625 81.3037109375Q35.9150390625 80.96875 35.21435546875 80.3125Q34.513671875 79.65625 34.513671875 78.6103515625Q34.513671875 77.728515625 34.98876953125 77.06884765625Q35.4638671875 76.4091796875 36.28076171875 76.04345703125Q37.09765625 75.677734375 38.123046875 75.677734375Q39.1689453125 75.677734375 39.96533203125 76.04345703125Q40.76171875 76.4091796875 41.21630859375 77.04833984375Q41.6708984375 77.6875 41.69140625 78.494140625H40.173828125Q40.0986328125 77.796875 39.52783203125 77.4140625Q38.95703125 77.03125 38.0888671875 77.03125Q37.166015625 77.03125 36.619140625 77.45166015625Q36.072265625 77.8720703125 36.072265625 78.521484375Q36.072265625 79.0068359375 36.3662109375 79.30419921875Q36.66015625 79.6015625 37.08740234375 79.77587890625Q37.5146484375 79.9501953125 37.904296875 80.052734375L38.8955078125 80.3125Q39.380859375 80.435546875 39.89697265625 80.64404296875Q40.4130859375 80.8525390625 40.8505859375 81.18408203125Q41.2880859375 81.515625 41.55810546875 82.00439453125Q41.828125 82.4931640625 41.828125 83.18359375Q41.828125 84.044921875 41.3837890625 84.7216796875Q40.939453125 85.3984375 40.09521484375 85.78466796875Q39.2509765625 86.1708984375 38.0546875 86.1708984375Z M46.16796875 77.154296875V75.814453125H54.0771484375V77.154296875H50.912109375V86.0H49.3466796875V77.154296875Z M58.8203125 86.0V75.814453125H60.37890625V84.66015625H64.9931640625V86.0Z M72.7099609375 86.0V81.9462890625L68.95703125 75.814453125H70.775390625L72.689453125 79.0615234375Q72.9287109375 79.46484375 73.12353515625 79.83056640625Q73.318359375 80.1962890625 73.5029296875 80.6474609375Q73.6943359375 80.1826171875 73.8857421875 79.81689453125Q74.0771484375 79.451171875 74.302734375 79.0615234375L76.1962890625 75.814453125H78.0078125L74.2685546875 81.9462890625V86.0Z M89.216796875 86.0V75.814453125H90.775390625V80.12109375H95.8203125V75.814453125H97.3857421875V86.0H95.8203125V81.4609375H90.775390625V86.0Z M101.8623046875 86.0 105.4853515625 75.814453125H107.3994140625L111.0908203125 86.0H109.40234375L108.4658203125 83.3134765625H104.4599609375L103.55078125 86.0ZM104.904296875 82.0146484375H108.0078125L107.419921875 80.3330078125Q107.21484375 79.724609375 106.9755859375 78.92138671875Q106.736328125 78.1181640625 106.435546875 77.0380859375Q106.134765625 78.1318359375 105.89892578125 78.94189453125Q105.6630859375 79.751953125 105.4716796875 80.3330078125Z M115.5673828125 86.0V75.814453125H119.2177734375Q120.3935546875 75.814453125 121.1796875 76.224609375Q121.9658203125 76.634765625 122.35546875 77.35595703125Q122.7451171875 78.0771484375 122.7451171875 79.013671875Q122.7451171875 80.0390625 122.2802734375 80.78759765625Q121.8154296875 81.5361328125 120.8857421875 81.884765625L123.1279296875 86.0H121.357421875L119.29296875 82.1513671875Q119.251953125 82.1513671875 119.2041015625 82.1513671875H117.1259765625V86.0ZM117.1259765625 80.818359375H119.0537109375Q120.1748046875 80.818359375 120.67041015625 80.34326171875Q121.166015625 79.8681640625 121.166015625 79.013671875Q121.166015625 78.15234375 120.6669921875 77.64990234375Q120.16796875 77.1474609375 119.0400390625 77.1474609375H117.1259765625Z M127.638671875 86.0V75.814453125H129.935546875L132.1572265625 81.6591796875Q132.259765625 81.9326171875 132.3896484375 82.36669921875Q132.51953125 82.80078125 132.65625 83.2998046875Q132.79296875 83.798828125 132.9091796875 84.263671875Q133.0322265625 83.8125 133.1689453125 83.3134765625Q133.3056640625 82.814453125 133.435546875 82.376953125Q133.5654296875 81.939453125 133.66796875 81.6591796875L135.85546875 75.814453125H138.166015625V86.0H136.6142578125V80.517578125Q136.6142578125 79.95703125 136.63134765625 79.07177734375Q136.6484375 78.1865234375 136.6689453125 77.33203125Q136.4912109375 77.9541015625 136.2998046875 78.5625Q136.1083984375 79.1708984375 135.9375 79.68701171875Q135.7666015625 80.203125 135.650390625 80.517578125L133.5654296875 86.0H132.232421875L130.1201171875 80.517578125Q129.9423828125 80.0595703125 129.66552734375 79.1845703125Q129.388671875 78.3095703125 129.0947265625 77.3662109375Q129.1083984375 77.8994140625 129.1220703125 78.48046875Q129.1357421875 79.0615234375 129.14599609375 79.5947265625Q129.15625 80.1279296875 129.15625 80.517578125V86.0Z M143.4150390625 86.0V75.814453125H144.9736328125V84.66015625H149.587890625V86.0Z M154.3310546875 86.0V75.814453125H160.7431640625V77.154296875H155.8896484375V80.189453125H160.4013671875V81.5224609375H155.8896484375V84.66015625H160.7841796875V86.0Z M169.19140625 86.1708984375Q167.4755859375 86.1708984375 166.45703125 85.36767578125Q165.4384765625 84.564453125 165.3701171875 83.169921875H166.935546875Q167.00390625 84.00390625 167.6533203125 84.40380859375Q168.302734375 84.8037109375 169.1845703125 84.8037109375Q170.1552734375 84.8037109375 170.791015625 84.3525390625Q171.4267578125 83.9013671875 171.4267578125 83.1630859375Q171.4267578125 82.5 170.86962890625 82.17529296875Q170.3125 81.8505859375 169.4921875 81.6318359375L168.302734375 81.3037109375Q167.0517578125 80.96875 166.35107421875 80.3125Q165.650390625 79.65625 165.650390625 78.6103515625Q165.650390625 77.728515625 166.12548828125 77.06884765625Q166.6005859375 76.4091796875 167.41748046875 76.04345703125Q168.234375 75.677734375 169.259765625 75.677734375Q170.3056640625 75.677734375 171.10205078125 76.04345703125Q171.8984375 76.4091796875 172.35302734375 77.04833984375Q172.8076171875 77.6875 172.828125 78.494140625H171.310546875Q171.2353515625 77.796875 170.66455078125 77.4140625Q170.09375 77.03125 169.2255859375 77.03125Q168.302734375 77.03125 167.755859375 77.45166015625Q167.208984375 77.8720703125 167.208984375 78.521484375Q167.208984375 79.0068359375 167.5029296875 79.30419921875Q167.796875 79.6015625 168.22412109375 79.77587890625Q168.6513671875 79.9501953125 169.041015625 80.052734375L170.0322265625 80.3125Q170.517578125 80.435546875 171.03369140625 80.64404296875Q171.5498046875 80.8525390625 171.9873046875 81.18408203125Q172.4248046875 81.515625 172.69482421875 82.00439453125Q172.96484375 82.4931640625 172.96484375 83.18359375Q172.96484375 84.044921875 172.5205078125 84.7216796875Q172.076171875 85.3984375 171.23193359375 85.78466796875Q170.3876953125 86.1708984375 169.19140625 86.1708984375Z M181.2353515625 86.1708984375Q179.51953125 86.1708984375 178.5009765625 85.36767578125Q177.482421875 84.564453125 177.4140625 83.169921875H178.9794921875Q179.0478515625 84.00390625 179.697265625 84.40380859375Q180.3466796875 84.8037109375 181.228515625 84.8037109375Q182.19921875 84.8037109375 182.8349609375 84.3525390625Q183.470703125 83.9013671875 183.470703125 83.1630859375Q183.470703125 82.5 182.91357421875 82.17529296875Q182.3564453125 81.8505859375 181.5361328125 81.6318359375L180.3466796875 81.3037109375Q179.095703125 80.96875 178.39501953125 80.3125Q177.6943359375 79.65625 177.6943359375 78.6103515625Q177.6943359375 77.728515625 178.16943359375 77.06884765625Q178.64453125 76.4091796875 179.46142578125 76.04345703125Q180.2783203125 75.677734375 181.3037109375 75.677734375Q182.349609375 75.677734375 183.14599609375 76.04345703125Q183.9423828125 76.4091796875 184.39697265625 77.04833984375Q184.8515625 77.6875 184.8720703125 78.494140625H183.3544921875Q183.279296875 77.796875 182.70849609375 77.4140625Q182.1376953125 77.03125 181.26953125 77.03125Q180.3466796875 77.03125 179.7998046875 77.45166015625Q179.2529296875 77.8720703125 179.2529296875 78.521484375Q179.2529296875 79.0068359375 179.546875 79.30419921875Q179.8408203125 79.6015625 180.26806640625 79.77587890625Q180.6953125 79.9501953125 181.0849609375 80.052734375L182.076171875 80.3125Q182.5615234375 80.435546875 183.07763671875 80.64404296875Q183.59375 80.8525390625 184.03125 81.18408203125Q184.46875 81.515625 184.73876953125 82.00439453125Q185.0087890625 82.4931640625 185.0087890625 83.18359375Q185.0087890625 84.044921875 184.564453125 84.7216796875Q184.1201171875 85.3984375 183.27587890625 85.78466796875Q182.431640625 86.1708984375 181.2353515625 86.1708984375Z" fill="#0E1116"/></g>
</svg>
