<?xml version="1.0" encoding="UTF-8"?>
<svg xmlns="http://www.w3.org/2000/svg" viewBox="0 0 380 80" preserveAspectRatio="xMidYMid meet">

  <g transform="translate(8,16)"><path d="M3.59375 56.0V21.0625H13.625L14.125 28.0Q15.5625 24.0625 18.296875 22.328125Q21.03125 20.59375 24.1875 20.59375Q27.5 20.59375 29.703125 22.5Q31.90625 24.40625 33.1875 28.6875Q34.78125 24.375 37.890625 22.484375Q41.0 20.59375 44.53125 20.59375Q49.4375 20.59375 52.578125 23.75Q55.71875 26.90625 55.71875 32.4375V56.0H44.8125V34.90625Q44.8125 32.25 43.4375 30.875Q42.0625 29.5 39.90625 29.5Q37.59375 29.5 36.25 31.015625Q34.90625 32.53125 34.90625 35.03125V56.0H24.4375V34.75Q24.4375 32.34375 23.078125 30.921875Q21.71875 29.5 19.5625 29.5Q17.34375 29.5 15.921875 31.0Q14.5 32.5 14.5 35.25V56.0Z M71.84375 36.0625V56.0H60.9375V9.4375H71.625V28.0Q73.03125 24.625 75.640625 22.625Q78.25 20.625 82.3125 20.625Q87.78125 20.625 91.09375 24.21875Q94.40625 27.8125 94.40625 33.75V56.0H83.5V35.875Q83.5 32.9375 82.0 31.265625Q80.5 29.59375 77.8125 29.59375Q75.15625 29.59375 73.5 31.296875Q71.84375 33.0 71.84375 36.0625Z M110.5 9.4375V56.0H99.59375V9.4375Z M115.03125 48.21875V39.59375L134.15625 9.4375H148.0625V39.5H153.65625V48.21875H148.0625V56.0H137.46875V48.21875ZM137.71875 39.5V21.1875H137.34375L126.0 39.125V39.5Z M157.65625 56.0V48.09375L174.59375 33.125Q177.46875 30.5 179.078125 28.421875Q180.6875 26.34375 180.6875 23.6875Q180.6875 20.78125 178.8125 19.125Q176.9375 17.46875 174.0625 17.46875Q171.09375 17.46875 169.3125 19.21875Q167.53125 20.96875 167.53125 24.15625H157.03125Q157.03125 19.4375 159.171875 16.0Q161.3125 12.5625 165.15625 10.6875Q169.0 8.8125 174.09375 8.8125Q179.34375 8.8125 183.234375 10.578125Q187.125 12.34375 189.25 15.515625Q191.375 18.6875 191.375 22.84375Q191.375 25.5 190.328125 28.09375Q189.28125 30.6875 186.53125 33.859375Q183.78125 37.03125 178.75 41.40625L172.96875 46.78125V47.09375H191.96875V56.0Z" fill="#0E1116"/>
  <circle cx="201.40" cy="49.60" r="4.48" fill="#F5C518"/>
  <path d="M228.855 56.625Q223.82375 56.625 220.589375 54.0625Q217.355 51.5 217.355 46.3125Q217.355 42.4375 219.13625 40.15625Q220.9175 37.875 223.870625 36.78125Q226.82375 35.6875 230.355 35.375Q234.7925 35.0 236.714375 34.453125Q238.63625 33.90625 238.63625 32.28125V32.15625Q238.63625 30.34375 237.370625 29.359375Q236.105 28.375 233.88625 28.375Q231.605 28.375 230.13625 29.34375Q228.6675 30.3125 228.23 31.96875L218.355 30.6875Q219.38625 26.21875 223.401875 23.421875Q227.4175 20.625 233.98 20.625Q238.32375 20.625 241.839375 21.96875Q245.355 23.3125 247.433125 25.921875Q249.51125 28.53125 249.51125 32.28125V56.0H239.26125V51.09375H238.98Q236.07375 56.625 228.855 56.625ZM232.1675 49.40625Q234.9175 49.40625 236.82375 47.78125Q238.73 46.15625 238.73 43.5625V40.21875Q237.7925 40.71875 236.01125 41.0625Q234.23 41.40625 232.69875 41.65625Q227.6675 42.40625 227.6675 45.8125Q227.6675 47.5625 228.933125 48.484375Q230.19875 49.40625 232.1675 49.40625Z M254.73 56.0V21.0625H265.63625V56.0ZM260.1675 16.96875Q257.855 16.96875 256.19875 15.4375Q254.5425 13.90625 254.5425 11.71875Q254.5425 9.53125 256.19875 8.0Q257.855 6.46875 260.1675 6.46875Q262.51125 6.46875 264.1675 8.0Q265.82375 9.53125 265.82375 11.71875Q265.82375 13.90625 264.1675 15.4375Q262.51125 16.96875 260.1675 16.96875Z" fill="#0E1116"/></g>
</svg>
