<?xml version="1.0" encoding="UTF-8"?>
<svg xmlns="http://www.w3.org/2000/svg" viewBox="0 0 600 180" preserveAspectRatio="xMidYMid meet">


  <rect width="600" height="180" fill="#FAF6EE"/>
  <line x1="20" y1="20" x2="20" y2="160" stroke="#F5C518" stroke-width="4"/>
  <g transform="translate(40,10) scale(0.55)">
    <rect x="20" y="20" width="200" height="200" rx="20" fill="none" stroke="#0E1116" stroke-width="6"/>
  <path d="M41.380859375 60.376953125V57.08203125L49.8984375 43.62890625H55.134765625V57.013671875H57.677734375V60.376953125H55.134765625V64.0H51.12890625V60.376953125ZM51.2109375 57.013671875V48.22265625H51.046875L45.591796875 56.849609375V57.013671875Z M60.130859375 64.0V60.9921875L67.349609375 54.224609375Q68.73046875 52.87109375 69.4755859375 51.8662109375Q70.220703125 50.861328125 70.220703125 49.630859375Q70.220703125 48.263671875 69.3251953125 47.4775390625Q68.4296875 46.69140625 67.0625 46.69140625Q65.640625 46.69140625 64.7861328125 47.5390625Q63.931640625 48.38671875 63.931640625 49.876953125H59.939453125Q59.939453125 47.89453125 60.8486328125 46.4248046875Q61.7578125 44.955078125 63.37109375 44.1552734375Q64.984375 43.35546875 67.08984375 43.35546875Q69.25 43.35546875 70.86328125 44.1279296875Q72.4765625 44.900390625 73.3720703125 46.25390625Q74.267578125 47.607421875 74.267578125 49.37109375Q74.267578125 50.505859375 73.8232421875 51.61328125Q73.37890625 52.720703125 72.2373046875 54.0947265625Q71.095703125 55.46875 69.00390625 57.3828125L65.927734375 60.41796875V60.568359375H74.541015625V64.0Z" fill="#0E1116"/>
  <circle cx="200" cy="48" r="6" fill="#F5C518"/>
  <path d="M37.23828125 148.0V89.796875H58.72265625L66.14453125 112.453125Q66.73046875 114.4453125 67.4921875 117.6484375Q68.25390625 120.8515625 69.03515625 124.5625Q69.81640625 128.2734375 70.51953125 131.75Q71.18359375 128.2734375 71.9453125 124.58203125Q72.70703125 120.890625 73.46875 117.66796875Q74.23046875 114.4453125 74.81640625 112.453125L82.12109375 89.796875H103.64453125V148.0H89.77734375V122.921875Q89.77734375 120.6953125 89.875 117.08203125Q89.97265625 113.46875 90.08984375 109.25Q90.20703125 105.03125 90.28515625 101.125Q89.30859375 105.265625 88.234375 109.4453125Q87.16015625 113.625 86.18359375 117.16015625Q85.20703125 120.6953125 84.50390625 122.921875L76.22265625 148.0H64.69921875L56.30078125 122.921875Q55.63671875 120.7734375 54.66015625 117.375Q53.68359375 113.9765625 52.609375 109.93359375Q51.53515625 105.890625 50.55859375 101.7890625Q50.63671875 105.6171875 50.75390625 109.6796875Q50.87109375 113.7421875 50.96875 117.23828125Q51.06640625 120.734375 51.06640625 122.921875V148.0Z M109.70703125 148.0V89.796875H123.49609375V112.6484375H146.73828125V89.796875H160.48828125V148.0H146.73828125V123.8984375H123.49609375V148.0Z M166.58984375 148.0V89.796875H180.37890625V136.75H204.71484375V148.0Z" fill="#0E1116"/>
  </g>
  <g>
    <path d="M187.4228515625 68.21484375Q184.4150390625 68.21484375 182.61572265625 66.8505859375Q180.81640625 65.486328125 180.7734375 62.71484375H184.4150390625Q184.4794921875 63.8857421875 185.27978515625 64.4765625Q186.080078125 65.0673828125 187.3798828125 65.0673828125Q188.5615234375 65.0673828125 189.23828125 64.58935546875Q189.9150390625 64.111328125 189.9150390625 63.3486328125Q189.9150390625 62.6611328125 189.27587890625 62.25830078125Q188.63671875 61.85546875 187.326171875 61.5546875L185.62890625 61.1572265625Q183.5556640625 60.6845703125 182.3740234375 59.6103515625Q181.1923828125 58.5361328125 181.1923828125 56.7314453125Q181.1923828125 55.2490234375 181.99267578125 54.13720703125Q182.79296875 53.025390625 184.2001953125 52.40234375Q185.607421875 51.779296875 187.4228515625 51.779296875Q189.28125 51.779296875 190.6455078125 52.40771484375Q192.009765625 53.0361328125 192.76171875 54.15869140625Q193.513671875 55.28125 193.53515625 56.763671875H189.8935546875Q189.818359375 55.8935546875 189.1845703125 55.41015625Q188.55078125 54.9267578125 187.412109375 54.9267578125Q186.2734375 54.9267578125 185.693359375 55.3671875Q185.11328125 55.8076171875 185.11328125 56.4736328125Q185.11328125 57.21484375 185.7578125 57.61767578125Q186.40234375 58.0205078125 187.4765625 58.2568359375L188.8623046875 58.5791015625Q191.1826171875 59.0947265625 192.46630859375 60.265625Q193.75 61.4365234375 193.75 63.359375Q193.75 65.63671875 192.07421875 66.92578125Q190.3984375 68.21484375 187.4228515625 68.21484375Z M201.736328125 55.990234375V58.7724609375H199.5771484375V64.326171875Q199.5771484375 65.2607421875 200.533203125 65.2607421875Q200.7265625 65.2607421875 201.07568359375 65.21240234375Q201.4248046875 65.1640625 201.5751953125 65.1318359375L202.05859375 67.8603515625Q201.4248046875 68.04296875 200.833984375 68.107421875Q200.2431640625 68.171875 199.716796875 68.171875Q197.8046875 68.171875 196.81640625 67.27490234375Q195.828125 66.3779296875 195.828125 64.6591796875V58.7724609375H194.23828125V55.990234375H195.828125V53.1328125H199.5771484375V55.990234375Z M208.755859375 68.2255859375Q205.9306640625 68.2255859375 204.31396484375 66.57666015625Q202.697265625 64.927734375 202.697265625 62.0380859375Q202.697265625 60.1904296875 203.42236328125 58.7939453125Q204.1474609375 57.3974609375 205.4794921875 56.61865234375Q206.8115234375 55.83984375 208.6162109375 55.83984375Q210.302734375 55.83984375 211.60791015625 56.54345703125Q212.9130859375 57.2470703125 213.65966796875 58.61669921875Q214.40625 59.986328125 214.40625 61.962890625V62.908203125H206.3818359375Q206.435546875 64.2080078125 207.09619140625 64.85791015625Q207.7568359375 65.5078125 208.8203125 65.5078125Q209.572265625 65.5078125 210.1201171875 65.19091796875Q210.66796875 64.8740234375 210.8935546875 64.2724609375L214.234375 64.8203125Q213.783203125 66.3779296875 212.35986328125 67.3017578125Q210.9365234375 68.2255859375 208.755859375 68.2255859375ZM206.4033203125 60.7275390625H210.8505859375Q210.7431640625 59.70703125 210.1845703125 59.13232421875Q209.6259765625 58.5576171875 208.6484375 58.5576171875Q207.66015625 58.5576171875 207.08544921875 59.14306640625Q206.5107421875 59.728515625 206.4033203125 60.7275390625Z M223.0048828125 55.990234375V58.7724609375H220.5986328125V68.0H216.87109375V58.7724609375H214.8515625V55.990234375H216.87109375V55.345703125Q216.87109375 53.283203125 218.009765625 52.2626953125Q219.1484375 51.2421875 220.953125 51.2421875Q221.748046875 51.2421875 222.4462890625 51.36572265625Q223.14453125 51.4892578125 223.4775390625 51.5859375L222.8759765625 54.3251953125Q222.6611328125 54.271484375 222.37109375 54.22314453125Q222.0810546875 54.1748046875 221.791015625 54.1748046875Q221.125 54.1748046875 220.86181640625 54.48095703125Q220.5986328125 54.787109375 220.5986328125 55.3134765625V55.990234375Z M227.7470703125 68.21484375Q226.017578125 68.21484375 224.90576171875 67.333984375Q223.7939453125 66.453125 223.7939453125 64.669921875Q223.7939453125 63.337890625 224.40625 62.5537109375Q225.0185546875 61.76953125 226.03369140625 61.3935546875Q227.048828125 61.017578125 228.2626953125 60.91015625Q229.7880859375 60.78125 230.44873046875 60.59326171875Q231.109375 60.4052734375 231.109375 59.8466796875V59.8037109375Q231.109375 59.1806640625 230.67431640625 58.84228515625Q230.2392578125 58.50390625 229.4765625 58.50390625Q228.6923828125 58.50390625 228.1875 58.8369140625Q227.6826171875 59.169921875 227.5322265625 59.7392578125L224.1376953125 59.298828125Q224.4921875 57.7626953125 225.87255859375 56.80126953125Q227.2529296875 55.83984375 229.5087890625 55.83984375Q231.001953125 55.83984375 232.21044921875 56.3017578125Q233.4189453125 56.763671875 234.13330078125 57.66064453125Q234.84765625 58.5576171875 234.84765625 59.8466796875V68.0H231.32421875V66.3134765625H231.2275390625Q230.228515625 68.21484375 227.7470703125 68.21484375ZM228.8857421875 65.7333984375Q229.8310546875 65.7333984375 230.486328125 65.1748046875Q231.1416015625 64.6162109375 231.1416015625 63.724609375V62.5751953125Q230.8193359375 62.7470703125 230.20703125 62.865234375Q229.5947265625 62.9833984375 229.068359375 63.0693359375Q227.3388671875 63.3271484375 227.3388671875 64.498046875Q227.3388671875 65.099609375 227.77392578125 65.41650390625Q228.208984375 65.7333984375 228.8857421875 65.7333984375Z M240.578125 61.146484375V68.0H236.8291015625V55.990234375H240.3525390625L240.4169921875 58.5791015625Q240.8896484375 57.3330078125 241.802734375 56.58642578125Q242.7158203125 55.83984375 244.1767578125 55.83984375Q246.056640625 55.83984375 247.1953125 57.0751953125Q248.333984375 58.310546875 248.333984375 60.3515625V68.0H244.5849609375V61.08203125Q244.5849609375 60.072265625 244.0693359375 59.49755859375Q243.5537109375 58.9228515625 242.6298828125 58.9228515625Q241.716796875 58.9228515625 241.1474609375 59.50830078125Q240.578125 60.09375 240.578125 61.146484375Z M254.6279296875 68.0V51.994140625H261.2666015625Q263.9521484375 51.994140625 265.32177734375 53.11669921875Q266.69140625 54.2392578125 266.69140625 56.0546875Q266.69140625 57.4296875 265.85888671875 58.33740234375Q265.0263671875 59.2451171875 263.7158203125 59.513671875V59.685546875Q264.671875 59.728515625 265.49365234375 60.201171875Q266.3154296875 60.673828125 266.81494140625 61.5224609375Q267.314453125 62.37109375 267.314453125 63.53125Q267.314453125 64.8203125 266.66455078125 65.830078125Q266.0146484375 66.83984375 264.77392578125 67.419921875Q263.533203125 68.0 261.7607421875 68.0ZM258.419921875 64.9384765625H260.869140625Q262.1474609375 64.9384765625 262.75439453125 64.44970703125Q263.361328125 63.9609375 263.361328125 63.1015625Q263.361328125 62.1669921875 262.71142578125 61.6083984375Q262.0615234375 61.0498046875 260.9443359375 61.0498046875H258.419921875ZM258.419921875 58.58984375H260.6220703125Q261.578125 58.58984375 262.201171875 58.1171875Q262.82421875 57.64453125 262.82421875 56.7744140625Q262.82421875 55.96875 262.244140625 55.49609375Q261.6640625 55.0234375 260.6865234375 55.0234375H258.419921875Z M274.333984375 68.2255859375Q271.5087890625 68.2255859375 269.89208984375 66.57666015625Q268.275390625 64.927734375 268.275390625 62.0380859375Q268.275390625 60.1904296875 269.00048828125 58.7939453125Q269.7255859375 57.3974609375 271.0576171875 56.61865234375Q272.3896484375 55.83984375 274.1943359375 55.83984375Q275.880859375 55.83984375 277.18603515625 56.54345703125Q278.4912109375 57.2470703125 279.23779296875 58.61669921875Q279.984375 59.986328125 279.984375 61.962890625V62.908203125H271.9599609375Q272.013671875 64.2080078125 272.67431640625 64.85791015625Q273.3349609375 65.5078125 274.3984375 65.5078125Q275.150390625 65.5078125 275.6982421875 65.19091796875Q276.24609375 64.8740234375 276.4716796875 64.2724609375L279.8125 64.8203125Q279.361328125 66.3779296875 277.93798828125 67.3017578125Q276.5146484375 68.2255859375 274.333984375 68.2255859375ZM271.9814453125 60.7275390625H276.4287109375Q276.3212890625 59.70703125 275.7626953125 59.13232421875Q275.2041015625 58.5576171875 274.2265625 58.5576171875Q273.23828125 58.5576171875 272.66357421875 59.14306640625Q272.0888671875 59.728515625 271.9814453125 60.7275390625Z M281.41796875 72.2109375 282.255859375 69.4716796875 282.728515625 69.6005859375Q283.73828125 69.869140625 284.361328125 69.568359375Q284.984375 69.267578125 284.94140625 68.5263671875L284.9306640625 68.021484375L280.451171875 55.990234375H284.404296875L286.1982421875 61.8662109375Q286.4345703125 62.6396484375 286.595703125 63.4130859375Q286.7568359375 64.1865234375 286.9072265625 64.9921875Q287.08984375 64.17578125 287.2939453125 63.40234375Q287.498046875 62.62890625 287.7451171875 61.8662109375L289.66796875 55.990234375H293.578125L288.5400390625 69.267578125Q287.9921875 70.728515625 286.9072265625 71.65234375Q285.822265625 72.576171875 283.802734375 72.576171875Q282.3525390625 72.576171875 281.41796875 72.2109375Z M300.146484375 68.2255859375Q297.3212890625 68.2255859375 295.70458984375 66.57666015625Q294.087890625 64.927734375 294.087890625 62.0380859375Q294.087890625 60.1904296875 294.81298828125 58.7939453125Q295.5380859375 57.3974609375 296.8701171875 56.61865234375Q298.2021484375 55.83984375 300.0068359375 55.83984375Q301.693359375 55.83984375 302.99853515625 56.54345703125Q304.3037109375 57.2470703125 305.05029296875 58.61669921875Q305.796875 59.986328125 305.796875 61.962890625V62.908203125H297.7724609375Q297.826171875 64.2080078125 298.48681640625 64.85791015625Q299.1474609375 65.5078125 300.2109375 65.5078125Q300.962890625 65.5078125 301.5107421875 65.19091796875Q302.05859375 64.8740234375 302.2841796875 64.2724609375L305.625 64.8203125Q305.173828125 66.3779296875 303.75048828125 67.3017578125Q302.3271484375 68.2255859375 300.146484375 68.2255859375ZM297.7939453125 60.7275390625H302.2412109375Q302.1337890625 59.70703125 301.5751953125 59.13232421875Q301.0166015625 58.5576171875 300.0390625 58.5576171875Q299.05078125 58.5576171875 298.47607421875 59.14306640625Q297.9013671875 59.728515625 297.7939453125 60.7275390625Z M307.2626953125 68.0V55.990234375H310.904296875V58.181640625H311.033203125Q311.35546875 57.0 312.10205078125 56.419921875Q312.8486328125 55.83984375 313.8369140625 55.83984375Q314.384765625 55.83984375 314.900390625 55.96875V59.234375Q314.6318359375 59.1376953125 314.19677734375 59.08935546875Q313.76171875 59.041015625 313.41796875 59.041015625Q312.3759765625 59.041015625 311.69384765625 59.70703125Q311.01171875 60.373046875 311.01171875 61.447265625V68.0Z" fill="#0E1116"/>
    <path d="M181.1279296875 90.0V79.814453125H183.4248046875L185.646484375 85.6591796875Q185.7490234375 85.9326171875 185.87890625 86.36669921875Q186.0087890625 86.80078125 186.1455078125 87.2998046875Q186.2822265625 87.798828125 186.3984375 88.263671875Q186.521484375 87.8125 186.658203125 87.3134765625Q186.794921875 86.814453125 186.9248046875 86.376953125Q187.0546875 85.939453125 187.1572265625 85.6591796875L189.3447265625 79.814453125H191.6552734375V90.0H190.103515625V84.517578125Q190.103515625 83.95703125 190.12060546875 83.07177734375Q190.1376953125 82.1865234375 190.158203125 81.33203125Q189.98046875 81.9541015625 189.7890625 82.5625Q189.59765625 83.1708984375 189.4267578125 83.68701171875Q189.255859375 84.203125 189.1396484375 84.517578125L187.0546875 90.0H185.7216796875L183.609375 84.517578125Q183.431640625 84.0595703125 183.15478515625 83.1845703125Q182.8779296875 82.3095703125 182.583984375 81.3662109375Q182.59765625 81.8994140625 182.611328125 82.48046875Q182.625 83.0615234375 182.63525390625 83.5947265625Q182.6455078125 84.1279296875 182.6455078125 84.517578125V90.0Z M197.0009765625 90.1572265625Q195.927734375 90.1572265625 195.12451171875 89.6650390625Q194.3212890625 89.1728515625 193.876953125 88.28759765625Q193.4326171875 87.40234375 193.4326171875 86.2197265625Q193.4326171875 85.0302734375 193.876953125 84.13818359375Q194.3212890625 83.24609375 195.12451171875 82.75390625Q195.927734375 82.26171875 197.0009765625 82.26171875Q198.0810546875 82.26171875 198.88427734375 82.75390625Q199.6875 83.24609375 200.1318359375 84.13818359375Q200.576171875 85.0302734375 200.576171875 86.2197265625Q200.576171875 87.40234375 200.1318359375 88.28759765625Q199.6875 89.1728515625 198.88427734375 89.6650390625Q198.0810546875 90.1572265625 197.0009765625 90.1572265625ZM197.0009765625 88.8857421875Q197.6982421875 88.8857421875 198.15283203125 88.52001953125Q198.607421875 88.154296875 198.82958984375 87.54931640625Q199.0517578125 86.9443359375 199.0517578125 86.2197265625Q199.0517578125 85.48828125 198.82958984375 84.87646484375Q198.607421875 84.2646484375 198.15283203125 83.89892578125Q197.6982421875 83.533203125 197.0009765625 83.533203125Q196.310546875 83.533203125 195.859375 83.89892578125Q195.408203125 84.2646484375 195.18603515625 84.87646484375Q194.9638671875 85.48828125 194.9638671875 86.2197265625Q194.9638671875 86.9443359375 195.18603515625 87.54931640625Q195.408203125 88.154296875 195.859375 88.52001953125Q196.310546875 88.8857421875 197.0009765625 88.8857421875Z M204.9853515625 90.1572265625Q203.7412109375 90.1572265625 202.92431640625 89.62060546875Q202.107421875 89.083984375 201.90234375 88.0654296875L203.3173828125 87.771484375Q203.625 88.9404296875 204.9990234375 88.9404296875Q205.73046875 88.9404296875 206.15771484375 88.63623046875Q206.5849609375 88.33203125 206.5849609375 87.908203125Q206.5849609375 87.18359375 205.51171875 86.9443359375L204.2265625 86.650390625Q202.12109375 86.1787109375 202.12109375 84.5380859375Q202.12109375 83.8544921875 202.50048828125 83.341796875Q202.8798828125 82.8291015625 203.54638671875 82.54541015625Q204.212890625 82.26171875 205.0810546875 82.26171875Q206.318359375 82.26171875 207.0224609375 82.79150390625Q207.7265625 83.3212890625 207.97265625 84.1689453125L206.6259765625 84.462890625Q206.482421875 84.0595703125 206.126953125 83.75537109375Q205.771484375 83.451171875 205.0947265625 83.451171875Q204.47265625 83.451171875 204.0556640625 83.7314453125Q203.638671875 84.01171875 203.638671875 84.4423828125Q203.638671875 84.8251953125 203.91552734375 85.06103515625Q204.1923828125 85.296875 204.8212890625 85.4404296875L206.0517578125 85.7138671875Q208.13671875 86.185546875 208.13671875 87.7783203125Q208.13671875 88.4755859375 207.73681640625 89.01220703125Q207.3369140625 89.548828125 206.6259765625 89.85302734375Q205.9150390625 90.1572265625 204.9853515625 90.1572265625Z M213.0517578125 82.357421875V83.5810546875H211.52734375V87.935546875Q211.52734375 88.3935546875 211.72216796875 88.60888671875Q211.9169921875 88.82421875 212.361328125 88.82421875Q212.484375 88.82421875 212.67236328125 88.796875Q212.8603515625 88.76953125 212.9970703125 88.7421875L213.263671875 89.9453125Q213.0244140625 90.02734375 212.74755859375 90.06494140625Q212.470703125 90.1025390625 212.2109375 90.1025390625Q211.171875 90.1025390625 210.59765625 89.56591796875Q210.0234375 89.029296875 210.0234375 88.05859375V83.5810546875H208.9091796875V82.357421875H210.0234375V80.5390625H211.52734375V82.357421875Z M216.052734375 79.814453125V90.0H214.548828125V79.814453125Z M217.9736328125 92.748046875 218.3427734375 91.5244140625 218.513671875 91.5654296875Q219.0947265625 91.72265625 219.50146484375 91.52783203125Q219.908203125 91.3330078125 220.1201171875 90.5947265625L220.2841796875 90.0341796875L217.37890625 82.357421875H219.005859375L220.5166015625 86.6982421875Q220.6875 87.2041015625 220.8173828125 87.6962890625Q220.947265625 88.1884765625 221.0703125 88.6806640625Q221.2001953125 88.1884765625 221.3369140625 87.69287109375Q221.4736328125 87.197265625 221.6513671875 86.6982421875L223.189453125 82.357421875H224.802734375L221.48046875 91.0595703125Q221.1318359375 91.9755859375 220.54052734375 92.44384765625Q219.94921875 92.912109375 219.0263671875 92.912109375Q218.6708984375 92.912109375 218.39404296875 92.86083984375Q218.1171875 92.8095703125 217.9736328125 92.748046875Z M229.9775390625 90.0V79.814453125H231.5361328125V84.12109375H236.5810546875V79.814453125H238.146484375V90.0H236.5810546875V85.4609375H231.5361328125V90.0Z M242.42578125 90.1708984375Q241.6943359375 90.1708984375 241.10986328125 89.90087890625Q240.525390625 89.630859375 240.18359375 89.111328125Q239.841796875 88.591796875 239.841796875 87.83984375Q239.841796875 87.1904296875 240.0947265625 86.77001953125Q240.34765625 86.349609375 240.771484375 86.10693359375Q241.1953125 85.8642578125 241.71826171875 85.7412109375Q242.2412109375 85.6181640625 242.78125 85.556640625Q243.79296875 85.4404296875 244.2509765625 85.35498046875Q244.708984375 85.26953125 244.708984375 84.8662109375V84.8251953125Q244.708984375 84.189453125 244.33642578125 83.83740234375Q243.9638671875 83.4853515625 243.24609375 83.4853515625Q242.494140625 83.4853515625 242.0634765625 83.8134765625Q241.6328125 84.1416015625 241.4755859375 84.53125L240.060546875 84.162109375Q240.3203125 83.478515625 240.8056640625 83.0615234375Q241.291015625 82.64453125 241.91650390625 82.453125Q242.5419921875 82.26171875 243.2255859375 82.26171875Q243.68359375 82.26171875 244.203125 82.37109375Q244.72265625 82.48046875 245.1806640625 82.76416015625Q245.638671875 83.0478515625 245.92578125 83.57421875Q246.212890625 84.1005859375 246.212890625 84.927734375V90.0H244.7568359375V88.9541015625H244.681640625Q244.4560546875 89.4052734375 243.90576171875 89.7880859375Q243.35546875 90.1708984375 242.42578125 90.1708984375ZM242.7607421875 88.9609375Q243.369140625 88.9609375 243.806640625 88.71826171875Q244.244140625 88.4755859375 244.47998046875 88.0859375Q244.7158203125 87.6962890625 244.7158203125 87.2451171875V86.267578125Q244.6064453125 86.376953125 244.24755859375 86.45556640625Q243.888671875 86.5341796875 243.4921875 86.5888671875Q243.095703125 86.6435546875 242.86328125 86.6708984375Q242.2275390625 86.759765625 241.77294921875 87.01611328125Q241.318359375 87.2724609375 241.318359375 87.8603515625Q241.318359375 88.4072265625 241.72509765625 88.68408203125Q242.1318359375 88.9609375 242.7607421875 88.9609375Z M248.236328125 90.0V82.357421875H249.6923828125V83.587890625H249.7744140625Q249.9794921875 82.9658203125 250.50927734375 82.60693359375Q251.0390625 82.248046875 251.708984375 82.248046875Q251.8525390625 82.248046875 252.04052734375 82.26171875Q252.228515625 82.275390625 252.3447265625 82.2890625V83.724609375Q252.2626953125 83.7041015625 252.0302734375 83.67333984375Q251.7978515625 83.642578125 251.55859375 83.642578125Q250.7724609375 83.642578125 250.25634765625 84.12451171875Q249.740234375 84.6064453125 249.740234375 85.3583984375V90.0Z M253.650390625 90.0V82.357421875H255.0791015625L255.11328125 83.7861328125Q255.4072265625 82.9931640625 255.9951171875 82.6103515625Q256.5830078125 82.2275390625 257.2666015625 82.2275390625Q258.01171875 82.2275390625 258.50390625 82.6513671875Q258.99609375 83.0751953125 259.2216796875 83.833984375Q259.5087890625 83.0615234375 260.16845703125 82.64453125Q260.828125 82.2275390625 261.6416015625 82.2275390625Q262.318359375 82.2275390625 262.865234375 82.521484375Q263.412109375 82.8154296875 263.73681640625 83.396484375Q264.0615234375 83.9775390625 264.0615234375 84.845703125V90.0H262.55078125V84.99609375Q262.55078125 84.23046875 262.126953125 83.888671875Q261.703125 83.546875 261.1220703125 83.546875Q260.4111328125 83.546875 260.00439453125 83.984375Q259.59765625 84.421875 259.59765625 85.10546875V90.0H258.1142578125V84.900390625Q258.1142578125 84.28515625 257.72119140625 83.916015625Q257.328125 83.546875 256.7197265625 83.546875Q256.0908203125 83.546875 255.62255859375 83.98095703125Q255.154296875 84.4150390625 255.154296875 85.2490234375V90.0Z M267.5888671875 79.814453125V90.0H266.0849609375V79.814453125Z M272.9072265625 90.1572265625Q271.779296875 90.1572265625 270.958984375 89.671875Q270.138671875 89.1865234375 269.69775390625 88.3046875Q269.2568359375 87.4228515625 269.2568359375 86.2333984375Q269.2568359375 85.0576171875 269.69091796875 84.162109375Q270.125 83.2666015625 270.91796875 82.76416015625Q271.7109375 82.26171875 272.77734375 82.26171875Q273.6455078125 82.26171875 274.42822265625 82.64794921875Q275.2109375 83.0341796875 275.69970703125 83.87841796875Q276.1884765625 84.72265625 276.1884765625 86.103515625V86.63671875H270.767578125Q270.80859375 87.744140625 271.396484375 88.32861328125Q271.984375 88.9130859375 272.9208984375 88.9130859375Q273.5498046875 88.9130859375 274.00439453125 88.6396484375Q274.458984375 88.3662109375 274.6572265625 87.8330078125L276.072265625 88.16796875Q275.798828125 89.0634765625 274.96484375 89.6103515625Q274.130859375 90.1572265625 272.9072265625 90.1572265625ZM270.7744140625 85.515625H274.6982421875Q274.6162109375 84.61328125 274.13427734375 84.0595703125Q273.65234375 83.505859375 272.7841796875 83.505859375Q271.8818359375 83.505859375 271.35888671875 84.09716796875Q270.8359375 84.6884765625 270.7744140625 85.515625Z M280.5771484375 90.1572265625Q279.3330078125 90.1572265625 278.51611328125 89.62060546875Q277.69921875 89.083984375 277.494140625 88.0654296875L278.9091796875 87.771484375Q279.216796875 88.9404296875 280.5908203125 88.9404296875Q281.322265625 88.9404296875 281.74951171875 88.63623046875Q282.1767578125 88.33203125 282.1767578125 87.908203125Q282.1767578125 87.18359375 281.103515625 86.9443359375L279.818359375 86.650390625Q277.712890625 86.1787109375 277.712890625 84.5380859375Q277.712890625 83.8544921875 278.09228515625 83.341796875Q278.4716796875 82.8291015625 279.13818359375 82.54541015625Q279.8046875 82.26171875 280.6728515625 82.26171875Q281.91015625 82.26171875 282.6142578125 82.79150390625Q283.318359375 83.3212890625 283.564453125 84.1689453125L282.2177734375 84.462890625Q282.07421875 84.0595703125 281.71875 83.75537109375Q281.36328125 83.451171875 280.6865234375 83.451171875Q280.064453125 83.451171875 279.6474609375 83.7314453125Q279.23046875 84.01171875 279.23046875 84.4423828125Q279.23046875 84.8251953125 279.50732421875 85.06103515625Q279.7841796875 85.296875 280.4130859375 85.4404296875L281.6435546875 85.7138671875Q283.728515625 86.185546875 283.728515625 87.7783203125Q283.728515625 88.4755859375 283.32861328125 89.01220703125Q282.9287109375 89.548828125 282.2177734375 89.85302734375Q281.5068359375 90.1572265625 280.5771484375 90.1572265625Z M288.1171875 90.1572265625Q286.873046875 90.1572265625 286.05615234375 89.62060546875Q285.2392578125 89.083984375 285.0341796875 88.0654296875L286.44921875 87.771484375Q286.7568359375 88.9404296875 288.130859375 88.9404296875Q288.8623046875 88.9404296875 289.28955078125 88.63623046875Q289.716796875 88.33203125 289.716796875 87.908203125Q289.716796875 87.18359375 288.6435546875 86.9443359375L287.3583984375 86.650390625Q285.2529296875 86.1787109375 285.2529296875 84.5380859375Q285.2529296875 83.8544921875 285.63232421875 83.341796875Q286.01171875 82.8291015625 286.67822265625 82.54541015625Q287.3447265625 82.26171875 288.212890625 82.26171875Q289.4501953125 82.26171875 290.154296875 82.79150390625Q290.8583984375 83.3212890625 291.1044921875 84.1689453125L289.7578125 84.462890625Q289.6142578125 84.0595703125 289.2587890625 83.75537109375Q288.9033203125 83.451171875 288.2265625 83.451171875Q287.6044921875 83.451171875 287.1875 83.7314453125Q286.7705078125 84.01171875 286.7705078125 84.4423828125Q286.7705078125 84.8251953125 287.04736328125 85.06103515625Q287.32421875 85.296875 287.953125 85.4404296875L289.18359375 85.7138671875Q291.2685546875 86.185546875 291.2685546875 87.7783203125Q291.2685546875 88.4755859375 290.86865234375 89.01220703125Q290.46875 89.548828125 289.7578125 89.85302734375Q289.046875 90.1572265625 288.1171875 90.1572265625Z M297.7626953125 86.171875Q297.3388671875 86.171875 297.044921875 85.88134765625Q296.7509765625 85.5908203125 296.7509765625 85.1669921875Q296.7509765625 84.7431640625 297.044921875 84.44921875Q297.3388671875 84.1552734375 297.7626953125 84.1552734375Q298.1865234375 84.1552734375 298.47705078125 84.44921875Q298.767578125 84.7431640625 298.767578125 85.1669921875Q298.767578125 85.5908203125 298.47705078125 85.88134765625Q298.1865234375 86.171875 297.7626953125 86.171875Z M303.962890625 90.0 307.5859375 79.814453125H309.5L313.19140625 90.0H311.5029296875L310.56640625 87.3134765625H306.560546875L305.6513671875 90.0ZM307.0048828125 86.0146484375H310.1083984375L309.5205078125 84.3330078125Q309.3154296875 83.724609375 309.076171875 82.92138671875Q308.8369140625 82.1181640625 308.5361328125 81.0380859375Q308.2353515625 82.1318359375 307.99951171875 82.94189453125Q307.763671875 83.751953125 307.572265625 84.3330078125Z M316.2265625 79.814453125V90.0H314.66796875V79.814453125Z M322.21484375 90.0V79.814453125H323.7734375V88.66015625H328.3876953125V90.0Z M332.154296875 90.1708984375Q331.4228515625 90.1708984375 330.83837890625 89.90087890625Q330.25390625 89.630859375 329.912109375 89.111328125Q329.5703125 88.591796875 329.5703125 87.83984375Q329.5703125 87.1904296875 329.8232421875 86.77001953125Q330.076171875 86.349609375 330.5 86.10693359375Q330.923828125 85.8642578125 331.44677734375 85.7412109375Q331.9697265625 85.6181640625 332.509765625 85.556640625Q333.521484375 85.4404296875 333.9794921875 85.35498046875Q334.4375 85.26953125 334.4375 84.8662109375V84.8251953125Q334.4375 84.189453125 334.06494140625 83.83740234375Q333.6923828125 83.4853515625 332.974609375 83.4853515625Q332.22265625 83.4853515625 331.7919921875 83.8134765625Q331.361328125 84.1416015625 331.2041015625 84.53125L329.7890625 84.162109375Q330.048828125 83.478515625 330.5341796875 83.0615234375Q331.01953125 82.64453125 331.64501953125 82.453125Q332.2705078125 82.26171875 332.9541015625 82.26171875Q333.412109375 82.26171875 333.931640625 82.37109375Q334.451171875 82.48046875 334.9091796875 82.76416015625Q335.3671875 83.0478515625 335.654296875 83.57421875Q335.94140625 84.1005859375 335.94140625 84.927734375V90.0H334.4853515625V88.9541015625H334.41015625Q334.1845703125 89.4052734375 333.63427734375 89.7880859375Q333.083984375 90.1708984375 332.154296875 90.1708984375ZM332.4892578125 88.9609375Q333.09765625 88.9609375 333.53515625 88.71826171875Q333.97265625 88.4755859375 334.20849609375 88.0859375Q334.4443359375 87.6962890625 334.4443359375 87.2451171875V86.267578125Q334.3349609375 86.376953125 333.97607421875 86.45556640625Q333.6171875 86.5341796875 333.220703125 86.5888671875Q332.82421875 86.6435546875 332.591796875 86.6708984375Q331.9560546875 86.759765625 331.50146484375 87.01611328125Q331.046875 87.2724609375 331.046875 87.8603515625Q331.046875 88.4072265625 331.45361328125 88.68408203125Q331.8603515625 88.9609375 332.4892578125 88.9609375Z M341.7587890625 90.150390625Q341.0615234375 90.150390625 340.6240234375 89.91455078125Q340.1865234375 89.6787109375 339.93701171875 89.3642578125Q339.6875 89.0498046875 339.55078125 88.8037109375H339.427734375V90.0H337.96484375V79.814453125H339.46875V83.6015625H339.55078125Q339.6806640625 83.369140625 339.92333984375 83.05126953125Q340.166015625 82.7333984375 340.603515625 82.49755859375Q341.041015625 82.26171875 341.7587890625 82.26171875Q342.6748046875 82.26171875 343.39599609375 82.7265625Q344.1171875 83.19140625 344.5341796875 84.0732421875Q344.951171875 84.955078125 344.951171875 86.19921875Q344.951171875 87.4296875 344.541015625 88.318359375Q344.130859375 89.20703125 343.40966796875 89.6787109375Q342.6884765625 90.150390625 341.7587890625 90.150390625ZM341.423828125 88.8720703125Q342.080078125 88.8720703125 342.52099609375 88.5166015625Q342.9619140625 88.1611328125 343.1875 87.552734375Q343.4130859375 86.9443359375 343.4130859375 86.185546875Q343.4130859375 85.43359375 343.19091796875 84.83544921875Q342.96875 84.2373046875 342.52783203125 83.888671875Q342.0869140625 83.5400390625 341.423828125 83.5400390625Q340.453125 83.5400390625 339.947265625 84.26806640625Q339.44140625 84.99609375 339.44140625 86.185546875Q339.44140625 87.3818359375 339.9541015625 88.126953125Q340.466796875 88.8720703125 341.423828125 88.8720703125Z M353.3046875 90.1435546875Q352.279296875 90.1435546875 351.53759765625 89.767578125Q350.7958984375 89.3916015625 350.39599609375 88.755859375Q349.99609375 88.1201171875 349.99609375 87.333984375Q349.99609375 86.6982421875 350.2490234375 86.2265625Q350.501953125 85.7548828125 350.94287109375 85.35498046875Q351.3837890625 84.955078125 351.96484375 84.5380859375Q351.47265625 83.943359375 351.16162109375 83.37255859375Q350.8505859375 82.8017578125 350.8505859375 82.1044921875Q350.8505859375 81.4140625 351.16845703125 80.87060546875Q351.486328125 80.3271484375 352.0673828125 80.01953125Q352.6484375 79.7119140625 353.427734375 79.7119140625Q354.2138671875 79.7119140625 354.77783203125 80.01611328125Q355.341796875 80.3203125 355.6494140625 80.83642578125Q355.95703125 81.3525390625 355.95703125 81.974609375Q355.95703125 82.6787109375 355.5810546875 83.232421875Q355.205078125 83.7861328125 354.603515625 84.23046875L353.90625 84.7431640625L355.9365234375 87.15625Q356.134765625 86.7734375 356.244140625 86.322265625Q356.353515625 85.87109375 356.353515625 85.3583984375H357.7138671875Q357.7138671875 86.41796875 357.4541015625 87.12548828125Q357.1943359375 87.8330078125 356.8662109375 88.263671875L358.322265625 90.0H356.61328125L355.9296875 89.20703125Q355.41015625 89.6787109375 354.69921875 89.9111328125Q353.98828125 90.1435546875 353.3046875 90.1435546875ZM355.08203125 88.208984375 352.8125 85.54296875 352.552734375 85.734375Q351.9921875 86.1513671875 351.74951171875 86.51708984375Q351.5068359375 86.8828125 351.5068359375 87.333984375Q351.5068359375 88.0244140625 351.9921875 88.4482421875Q352.4775390625 88.8720703125 353.263671875 88.8720703125Q354.26171875 88.8720703125 355.08203125 88.208984375ZM353.0791015625 83.751953125 353.7080078125 83.30078125Q353.9951171875 83.095703125 354.28564453125 82.78125Q354.576171875 82.466796875 354.576171875 81.98828125Q354.576171875 81.55078125 354.27880859375 81.26025390625Q353.9814453125 80.9697265625 353.455078125 80.9697265625Q352.921875 80.9697265625 352.59375 81.2841796875Q352.265625 81.5986328125 352.265625 82.1044921875Q352.265625 82.5283203125 352.48779296875 82.91455078125Q352.7099609375 83.30078125 353.0791015625 83.751953125Z M366.7646484375 90.1708984375Q365.048828125 90.1708984375 364.0302734375 89.36767578125Q363.01171875 88.564453125 362.943359375 87.169921875H364.5087890625Q364.5771484375 88.00390625 365.2265625 88.40380859375Q365.8759765625 88.8037109375 366.7578125 88.8037109375Q367.728515625 88.8037109375 368.3642578125 88.3525390625Q369.0 87.9013671875 369.0 87.1630859375Q369.0 86.5 368.44287109375 86.17529296875Q367.8857421875 85.8505859375 367.0654296875 85.6318359375L365.8759765625 85.3037109375Q364.625 84.96875 363.92431640625 84.3125Q363.2236328125 83.65625 363.2236328125 82.6103515625Q363.2236328125 81.728515625 363.69873046875 81.06884765625Q364.173828125 80.4091796875 364.99072265625 80.04345703125Q365.8076171875 79.677734375 366.8330078125 79.677734375Q367.87890625 79.677734375 368.67529296875 80.04345703125Q369.4716796875 80.4091796875 369.92626953125 81.04833984375Q370.380859375 81.6875 370.4013671875 82.494140625H368.8837890625Q368.80859375 81.796875 368.23779296875 81.4140625Q367.6669921875 81.03125 366.798828125 81.03125Q365.8759765625 81.03125 365.3291015625 81.45166015625Q364.7822265625 81.8720703125 364.7822265625 82.521484375Q364.7822265625 83.0068359375 365.076171875 83.30419921875Q365.3701171875 83.6015625 365.79736328125 83.77587890625Q366.224609375 83.9501953125 366.6142578125 84.052734375L367.60546875 84.3125Q368.0908203125 84.435546875 368.60693359375 84.64404296875Q369.123046875 84.8525390625 369.560546875 85.18408203125Q369.998046875 85.515625 370.26806640625 86.00439453125Q370.5380859375 86.4931640625 370.5380859375 87.18359375Q370.5380859375 88.044921875 370.09375 88.7216796875Q369.6494140625 89.3984375 368.80517578125 89.78466796875Q367.9609375 90.1708984375 366.7646484375 90.1708984375Z M375.5419921875 82.357421875V83.5810546875H374.017578125V87.935546875Q374.017578125 88.3935546875 374.21240234375 88.60888671875Q374.4072265625 88.82421875 374.8515625 88.82421875Q374.974609375 88.82421875 375.16259765625 88.796875Q375.3505859375 88.76953125 375.4873046875 88.7421875L375.75390625 89.9453125Q375.5146484375 90.02734375 375.23779296875 90.06494140625Q374.9609375 90.1025390625 374.701171875 90.1025390625Q373.662109375 90.1025390625 373.087890625 89.56591796875Q372.513671875 89.029296875 372.513671875 88.05859375V83.5810546875H371.3994140625V82.357421875H372.513671875V80.5390625H374.017578125V82.357421875Z M379.6435546875 90.095703125Q378.474609375 90.095703125 377.7568359375 89.36083984375Q377.0390625 88.6259765625 377.0390625 87.2109375V82.357421875H378.54296875V87.0263671875Q378.54296875 87.853515625 378.97705078125 88.318359375Q379.4111328125 88.783203125 380.15625 88.783203125Q380.921875 88.783203125 381.427734375 88.28759765625Q381.93359375 87.7919921875 381.93359375 86.8828125V82.357421875H383.4443359375V90.0H382.001953125L381.9951171875 88.5166015625Q381.6328125 89.3505859375 381.03466796875 89.72314453125Q380.4365234375 90.095703125 379.6435546875 90.095703125Z M388.3046875 90.150390625Q387.375 90.150390625 386.65380859375 89.6787109375Q385.9326171875 89.20703125 385.51904296875 88.318359375Q385.10546875 87.4296875 385.10546875 86.19921875Q385.10546875 84.955078125 385.5224609375 84.0732421875Q385.939453125 83.19140625 386.66064453125 82.7265625Q387.3818359375 82.26171875 388.3046875 82.26171875Q389.015625 82.26171875 389.453125 82.49755859375Q389.890625 82.7333984375 390.13330078125 83.05126953125Q390.3759765625 83.369140625 390.505859375 83.6015625H390.587890625V79.814453125H392.091796875V90.0H390.62890625V88.8037109375H390.505859375Q390.369140625 89.0498046875 390.11962890625 89.3642578125Q389.8701171875 89.6787109375 389.4326171875 89.91455078125Q388.9951171875 90.150390625 388.3046875 90.150390625ZM388.6328125 88.8720703125Q389.58984375 88.8720703125 390.1025390625 88.126953125Q390.615234375 87.3818359375 390.615234375 86.185546875Q390.615234375 84.99609375 390.109375 84.26806640625Q389.603515625 83.5400390625 388.6328125 83.5400390625Q387.9697265625 83.5400390625 387.52880859375 83.888671875Q387.087890625 84.2373046875 386.86572265625 84.83544921875Q386.6435546875 85.43359375 386.6435546875 86.185546875Q386.6435546875 86.9443359375 386.869140625 87.552734375Q387.0947265625 88.1611328125 387.5390625 88.5166015625Q387.9833984375 88.8720703125 388.6328125 88.8720703125Z M394.115234375 90.0V82.357421875H395.619140625V90.0ZM394.8740234375 81.1884765625Q394.484375 81.1884765625 394.20751953125 80.9287109375Q393.9306640625 80.6689453125 393.9306640625 80.2998046875Q393.9306640625 79.923828125 394.20751953125 79.6640625Q394.484375 79.404296875 394.8740234375 79.404296875Q395.263671875 79.404296875 395.5439453125 79.6640625Q395.82421875 79.923828125 395.82421875 80.2998046875Q395.82421875 80.6689453125 395.5439453125 80.9287109375Q395.263671875 81.1884765625 394.8740234375 81.1884765625Z M400.85546875 90.1572265625Q399.7822265625 90.1572265625 398.97900390625 89.6650390625Q398.17578125 89.1728515625 397.7314453125 88.28759765625Q397.287109375 87.40234375 397.287109375 86.2197265625Q397.287109375 85.0302734375 397.7314453125 84.13818359375Q398.17578125 83.24609375 398.97900390625 82.75390625Q399.7822265625 82.26171875 400.85546875 82.26171875Q401.935546875 82.26171875 402.73876953125 82.75390625Q403.5419921875 83.24609375 403.986328125 84.13818359375Q404.4306640625 85.0302734375 404.4306640625 86.2197265625Q404.4306640625 87.40234375 403.986328125 88.28759765625Q403.5419921875 89.1728515625 402.73876953125 89.6650390625Q401.935546875 90.1572265625 400.85546875 90.1572265625ZM400.85546875 88.8857421875Q401.552734375 88.8857421875 402.00732421875 88.52001953125Q402.4619140625 88.154296875 402.68408203125 87.54931640625Q402.90625 86.9443359375 402.90625 86.2197265625Q402.90625 85.48828125 402.68408203125 84.87646484375Q402.4619140625 84.2646484375 402.00732421875 83.89892578125Q401.552734375 83.533203125 400.85546875 83.533203125Q400.1650390625 83.533203125 399.7138671875 83.89892578125Q399.2626953125 84.2646484375 399.04052734375 84.87646484375Q398.818359375 85.48828125 398.818359375 86.2197265625Q398.818359375 86.9443359375 399.04052734375 87.54931640625Q399.2626953125 88.154296875 399.7138671875 88.52001953125Q400.1650390625 88.8857421875 400.85546875 88.8857421875Z" fill="#0E1116"/>
    <path d="M180.8125 116.0V108.9033203125H182.5771484375L182.6533203125 110.28076171875Q182.93896484375 109.50634765625 183.4912109375 109.15087890625Q184.04345703125 108.79541015625 184.67822265625 108.79541015625Q186.02392578125 108.79541015625 186.50634765625 110.388671875Q186.8046875 109.56982421875 187.429931640625 109.1826171875Q188.05517578125 108.79541015625 188.78515625 108.79541015625Q189.7626953125 108.79541015625 190.406982421875 109.427001953125Q191.05126953125 110.05859375 191.05126953125 111.2138671875V116.0H189.140625V111.57568359375Q189.140625 110.97900390625 188.81689453125 110.683837890625Q188.4931640625 110.388671875 188.01708984375 110.388671875Q187.4775390625 110.388671875 187.163330078125 110.7314453125Q186.84912109375 111.07421875 186.84912109375 111.6328125V116.0H185.00830078125V111.52490234375Q185.00830078125 111.00439453125 184.700439453125 110.696533203125Q184.392578125 110.388671875 183.90380859375 110.388671875Q183.40234375 110.388671875 183.0595703125 110.728271484375Q182.716796875 111.06787109375 182.716796875 111.708984375V116.0Z M196.58056640625 111.89306640625V116.0H194.67626953125V106.5419921875H196.54248046875V110.26171875Q196.853515625 109.56982421875 197.38671875 109.192138671875Q197.919921875 108.814453125 198.70703125 108.814453125Q199.8115234375 108.814453125 200.481201171875 109.525390625Q201.15087890625 110.236328125 201.15087890625 111.48681640625V116.0H199.240234375V111.81689453125Q199.240234375 111.15673828125 198.900634765625 110.7822265625Q198.56103515625 110.40771484375 197.9580078125 110.40771484375Q197.3486328125 110.40771484375 196.964599609375 110.798095703125Q196.58056640625 111.1884765625 196.58056640625 111.89306640625Z M206.673828125 106.5419921875V116.0H204.76953125V106.5419921875Z M210.12109375 114.31787109375V112.7880859375L214.07568359375 106.5419921875H216.5068359375V112.75634765625H217.6875V114.31787109375H216.5068359375V116.0H214.64697265625V114.31787109375ZM214.68505859375 112.75634765625V108.6748046875H214.60888671875L212.076171875 112.68017578125V112.75634765625Z M221.05859375 116.0V114.603515625L224.41015625 111.46142578125Q225.05126953125 110.8330078125 225.397216796875 110.366455078125Q225.7431640625 109.89990234375 225.7431640625 109.32861328125Q225.7431640625 108.69384765625 225.327392578125 108.328857421875Q224.91162109375 107.9638671875 224.27685546875 107.9638671875Q223.61669921875 107.9638671875 223.219970703125 108.357421875Q222.8232421875 108.7509765625 222.8232421875 109.44287109375H220.9697265625Q220.9697265625 108.5224609375 221.391845703125 107.840087890625Q221.81396484375 107.15771484375 222.56298828125 106.786376953125Q223.31201171875 106.4150390625 224.28955078125 106.4150390625Q225.29248046875 106.4150390625 226.04150390625 106.773681640625Q226.79052734375 107.13232421875 227.206298828125 107.7607421875Q227.6220703125 108.38916015625 227.6220703125 109.2080078125Q227.6220703125 109.73486328125 227.415771484375 110.2490234375Q227.20947265625 110.76318359375 226.679443359375 111.401123046875Q226.1494140625 112.0390625 225.17822265625 112.927734375L223.75 114.3369140625V114.40673828125H227.7490234375V116.0Z M232.630859375 116.12060546875Q232.16748046875 116.12060546875 231.85009765625 115.806396484375Q231.53271484375 115.4921875 231.53271484375 115.02880859375Q231.53271484375 114.5654296875 231.85009765625 114.251220703125Q232.16748046875 113.93701171875 232.630859375 113.93701171875Q233.09423828125 113.93701171875 233.41162109375 114.251220703125Q233.72900390625 114.5654296875 233.72900390625 115.02880859375Q233.72900390625 115.4921875 233.41162109375 115.806396484375Q233.09423828125 116.12060546875 232.630859375 116.12060546875Z M239.5947265625 116.1396484375Q238.5791015625 116.1396484375 237.90625 115.603271484375Q237.2333984375 115.06689453125 237.2333984375 114.01318359375Q237.2333984375 113.2197265625 237.6142578125 112.76904296875Q237.9951171875 112.318359375 238.6044921875 112.10888671875Q239.2138671875 111.8994140625 239.912109375 111.8359375Q240.826171875 111.7470703125 241.229248046875 111.648681640625Q241.63232421875 111.55029296875 241.63232421875 111.201171875V111.16943359375Q241.63232421875 110.71875 241.343505859375 110.47119140625Q241.0546875 110.2236328125 240.521484375 110.2236328125Q239.96923828125 110.2236328125 239.6328125 110.461669921875Q239.29638671875 110.69970703125 239.18212890625 111.04248046875L237.4365234375 110.75048828125Q237.70947265625 109.830078125 238.525146484375 109.322265625Q239.3408203125 108.814453125 240.52783203125 108.814453125Q241.28955078125 108.814453125 241.978271484375 109.0556640625Q242.6669921875 109.296875 243.101806640625 109.826904296875Q243.53662109375 110.35693359375 243.53662109375 111.22021484375V116.0H241.73388671875V115.01611328125H241.67041015625Q241.41015625 115.51123046875 240.89599609375 115.825439453125Q240.3818359375 116.1396484375 239.5947265625 116.1396484375ZM240.13427734375 114.80029296875Q240.80078125 114.80029296875 241.222900390625 114.4130859375Q241.64501953125 114.02587890625 241.64501953125 113.4609375V112.69287109375Q241.53076171875 112.775390625 241.273681640625 112.835693359375Q241.0166015625 112.89599609375 240.73095703125 112.943603515625Q240.4453125 112.9912109375 240.23583984375 113.0166015625Q239.708984375 113.0927734375 239.38525390625 113.31494140625Q239.0615234375 113.537109375 239.0615234375 113.96240234375Q239.0615234375 114.375 239.363037109375 114.587646484375Q239.66455078125 114.80029296875 240.13427734375 114.80029296875Z M247.16162109375 116.0V108.9033203125H249.06591796875V116.0ZM248.11376953125 107.9765625Q247.68212890625 107.9765625 247.37744140625 107.69091796875Q247.07275390625 107.4052734375 247.07275390625 106.9990234375Q247.07275390625 106.5927734375 247.37744140625 106.30712890625Q247.68212890625 106.021484375 248.11376953125 106.021484375Q248.54541015625 106.021484375 248.853271484375 106.30712890625Q249.1611328125 106.5927734375 249.1611328125 106.9990234375Q249.1611328125 107.4052734375 248.853271484375 107.69091796875Q248.54541015625 107.9765625 248.11376953125 107.9765625Z" fill="#F5C518"/>
    <path d="M303.48486328125 116.14599609375Q302.32958984375 116.14599609375 301.571044921875 115.647705078125Q300.8125 115.1494140625 300.6220703125 114.20361328125L301.93603515625 113.9306640625Q302.2216796875 115.01611328125 303.49755859375 115.01611328125Q304.1767578125 115.01611328125 304.573486328125 114.733642578125Q304.97021484375 114.451171875 304.97021484375 114.0576171875Q304.97021484375 113.384765625 303.9736328125 113.16259765625L302.7802734375 112.8896484375Q300.8251953125 112.45166015625 300.8251953125 110.92822265625Q300.8251953125 110.29345703125 301.177490234375 109.8173828125Q301.52978515625 109.34130859375 302.148681640625 109.077880859375Q302.767578125 108.814453125 303.57373046875 108.814453125Q304.72265625 108.814453125 305.37646484375 109.306396484375Q306.0302734375 109.79833984375 306.2587890625 110.58544921875L305.00830078125 110.8583984375Q304.875 110.48388671875 304.544921875 110.201416015625Q304.21484375 109.9189453125 303.58642578125 109.9189453125Q303.0087890625 109.9189453125 302.62158203125 110.17919921875Q302.234375 110.439453125 302.234375 110.83935546875Q302.234375 111.19482421875 302.491455078125 111.413818359375Q302.74853515625 111.6328125 303.33251953125 111.76611328125L304.47509765625 112.02001953125Q306.4111328125 112.4580078125 306.4111328125 113.93701171875Q306.4111328125 114.58447265625 306.039794921875 115.082763671875Q305.66845703125 115.5810546875 305.00830078125 115.863525390625Q304.34814453125 116.14599609375 303.48486328125 116.14599609375Z M311.47509765625 108.9033203125V110.03955078125H310.0595703125V114.0830078125Q310.0595703125 114.50830078125 310.240478515625 114.708251953125Q310.42138671875 114.908203125 310.833984375 114.908203125Q310.9482421875 114.908203125 311.122802734375 114.8828125Q311.29736328125 114.857421875 311.42431640625 114.83203125L311.671875 115.94921875Q311.44970703125 116.025390625 311.192626953125 116.060302734375Q310.935546875 116.09521484375 310.6943359375 116.09521484375Q309.7294921875 116.09521484375 309.1962890625 115.596923828125Q308.6630859375 115.0986328125 308.6630859375 114.197265625V110.03955078125H307.62841796875V108.9033203125H308.6630859375V107.21484375H310.0595703125V108.9033203125Z M316.4248046875 116.14599609375Q315.37744140625 116.14599609375 314.61572265625 115.6953125Q313.85400390625 115.24462890625 313.444580078125 114.42578125Q313.03515625 113.60693359375 313.03515625 112.50244140625Q313.03515625 111.41064453125 313.438232421875 110.5791015625Q313.84130859375 109.74755859375 314.57763671875 109.281005859375Q315.31396484375 108.814453125 316.30419921875 108.814453125Q317.1103515625 108.814453125 317.837158203125 109.173095703125Q318.56396484375 109.53173828125 319.017822265625 110.315673828125Q319.4716796875 111.099609375 319.4716796875 112.3818359375V112.876953125H314.43798828125Q314.47607421875 113.9052734375 315.02197265625 114.447998046875Q315.56787109375 114.99072265625 316.4375 114.99072265625Q317.021484375 114.99072265625 317.443603515625 114.73681640625Q317.86572265625 114.48291015625 318.0498046875 113.98779296875L319.36376953125 114.298828125Q319.10986328125 115.13037109375 318.33544921875 115.63818359375Q317.56103515625 116.14599609375 316.4248046875 116.14599609375ZM314.4443359375 111.8359375H318.087890625Q318.01171875 110.998046875 317.564208984375 110.48388671875Q317.11669921875 109.9697265625 316.310546875 109.9697265625Q315.47265625 109.9697265625 314.987060546875 110.518798828125Q314.50146484375 111.06787109375 314.4443359375 111.8359375Z M325.01806640625 108.9033203125V110.03955078125H323.43115234375V116.0H322.03466796875V110.03955078125H320.68896484375V108.9033203125H322.03466796875V108.0908203125Q322.03466796875 107.4306640625 322.329833984375 106.986328125Q322.625 106.5419921875 323.104248046875 106.31982421875Q323.58349609375 106.09765625 324.1484375 106.09765625Q324.5673828125 106.09765625 324.868896484375 106.164306640625Q325.17041015625 106.23095703125 325.31640625 106.2880859375L324.99267578125 107.41796875Q324.89111328125 107.392578125 324.73876953125 107.3544921875Q324.58642578125 107.31640625 324.37060546875 107.31640625Q323.869140625 107.31640625 323.650146484375 107.56396484375Q323.43115234375 107.8115234375 323.43115234375 108.28125V108.9033203125Z M328.92041015625 116.15869140625Q328.2412109375 116.15869140625 327.698486328125 115.907958984375Q327.15576171875 115.6572265625 326.83837890625 115.1748046875Q326.52099609375 114.6923828125 326.52099609375 113.994140625Q326.52099609375 113.39111328125 326.755859375 113.000732421875Q326.99072265625 112.6103515625 327.38427734375 112.385009765625Q327.77783203125 112.15966796875 328.263427734375 112.04541015625Q328.7490234375 111.93115234375 329.25048828125 111.8740234375Q330.18994140625 111.76611328125 330.615234375 111.686767578125Q331.04052734375 111.607421875 331.04052734375 111.23291015625V111.19482421875Q331.04052734375 110.6044921875 330.694580078125 110.277587890625Q330.3486328125 109.95068359375 329.68212890625 109.95068359375Q328.98388671875 109.95068359375 328.583984375 110.25537109375Q328.18408203125 110.56005859375 328.0380859375 110.921875L326.72412109375 110.5791015625Q326.96533203125 109.9443359375 327.416015625 109.55712890625Q327.86669921875 109.169921875 328.447509765625 108.9921875Q329.0283203125 108.814453125 329.6630859375 108.814453125Q330.08837890625 108.814453125 330.57080078125 108.916015625Q331.05322265625 109.017578125 331.478515625 109.281005859375Q331.90380859375 109.54443359375 332.17041015625 110.033203125Q332.43701171875 110.52197265625 332.43701171875 111.2900390625V116.0H331.0849609375V115.02880859375H331.01513671875Q330.8056640625 115.44775390625 330.294677734375 115.80322265625Q329.78369140625 116.15869140625 328.92041015625 116.15869140625ZM329.2314453125 115.03515625Q329.79638671875 115.03515625 330.20263671875 114.809814453125Q330.60888671875 114.58447265625 330.827880859375 114.22265625Q331.046875 113.86083984375 331.046875 113.44189453125V112.5341796875Q330.9453125 112.6357421875 330.612060546875 112.708740234375Q330.27880859375 112.78173828125 329.91064453125 112.83251953125Q329.54248046875 112.88330078125 329.32666015625 112.90869140625Q328.736328125 112.9912109375 328.314208984375 113.229248046875Q327.89208984375 113.46728515625 327.89208984375 114.01318359375Q327.89208984375 114.52099609375 328.269775390625 114.778076171875Q328.6474609375 115.03515625 329.2314453125 115.03515625Z M336.21240234375 111.7978515625V116.0H334.81591796875V108.9033203125H336.14892578125L336.1552734375 110.26806640625Q336.4853515625 109.51904296875 337.040771484375 109.166748046875Q337.59619140625 108.814453125 338.34521484375 108.814453125Q339.4306640625 108.814453125 340.093994140625 109.496826171875Q340.75732421875 110.17919921875 340.75732421875 111.4931640625V116.0H339.36083984375V111.66455078125Q339.36083984375 110.896484375 338.9609375 110.46484375Q338.56103515625 110.033203125 337.86279296875 110.033203125Q337.15185546875 110.033203125 336.68212890625 110.493408203125Q336.21240234375 110.95361328125 336.21240234375 111.7978515625Z M348.86181640625 118.5771484375Q345.9990234375 118.5771484375 344.45654296875 117.041015625Q342.9140625 115.5048828125 342.9140625 112.6865234375Q342.9140625 110.87744140625 343.602783203125 109.55078125Q344.29150390625 108.22412109375 345.59912109375 107.503662109375Q346.90673828125 106.783203125 348.75390625 106.783203125Q350.0869140625 106.783203125 351.10888671875 107.2021484375Q352.130859375 107.62109375 352.832275390625 108.347900390625Q353.53369140625 109.07470703125 353.8955078125 110.010986328125Q354.25732421875 110.947265625 354.25732421875 111.9755859375Q354.25732421875 112.69287109375 354.162109375 113.37841796875Q354.06689453125 114.06396484375 353.816162109375 114.613037109375Q353.5654296875 115.162109375 353.1083984375 115.489013671875Q352.6513671875 115.81591796875 351.92138671875 115.81591796875Q351.56591796875 115.81591796875 351.18505859375 115.711181640625Q350.80419921875 115.6064453125 350.52490234375 115.37158203125Q350.24560546875 115.13671875 350.1884765625 114.74951171875H350.1376953125Q349.96630859375 115.18115234375 349.518798828125 115.48583984375Q349.0712890625 115.79052734375 348.34130859375 115.79052734375Q347.49072265625 115.79052734375 346.90673828125 115.3779296875Q346.32275390625 114.96533203125 346.0244140625 114.251220703125Q345.72607421875 113.537109375 345.72607421875 112.623046875Q345.72607421875 111.7470703125 346.06884765625 111.058349609375Q346.41162109375 110.36962890625 347.0146484375 109.97607421875Q347.61767578125 109.58251953125 348.3984375 109.58251953125Q349.0078125 109.58251953125 349.429931640625 109.8046875Q349.85205078125 110.02685546875 350.02978515625 110.30615234375H350.09326171875V109.73486328125H351.19775390625V113.94970703125Q351.19775390625 114.30517578125 351.385009765625 114.555908203125Q351.572265625 114.806640625 351.94677734375 114.806640625Q352.60693359375 114.806640625 352.838623046875 114.1337890625Q353.0703125 113.4609375 353.0703125 112.013671875Q353.0703125 110.896484375 352.597412109375 109.95703125Q352.12451171875 109.017578125 351.17236328125 108.4462890625Q350.22021484375 107.875 348.7666015625 107.875Q347.30029296875 107.875 346.268798828125 108.45263671875Q345.2373046875 109.0302734375 344.694580078125 110.109375Q344.15185546875 111.1884765625 344.15185546875 112.69287109375Q344.15185546875 114.9970703125 345.376953125 116.238037109375Q346.60205078125 117.47900390625 348.93798828125 117.47900390625Q349.4521484375 117.47900390625 349.9345703125 117.39013671875Q350.4169921875 117.30126953125 350.801025390625 117.183837890625Q351.18505859375 117.06640625 351.39453125 116.990234375L351.74365234375 118.0185546875Q351.4453125 118.15185546875 350.972412109375 118.281982421875Q350.49951171875 118.412109375 349.950439453125 118.49462890625Q349.4013671875 118.5771484375 348.86181640625 118.5771484375ZM348.43017578125 114.6923828125Q349.30615234375 114.6923828125 349.69970703125 114.162353515625Q350.09326171875 113.63232421875 350.09326171875 112.57861328125Q350.09326171875 111.5185546875 349.67431640625 111.109130859375Q349.25537109375 110.69970703125 348.45556640625 110.69970703125Q347.69384765625 110.69970703125 347.271728515625 111.248779296875Q346.849609375 111.7978515625 346.849609375 112.57861328125Q346.849609375 113.14990234375 347.011474609375 113.629150390625Q347.17333984375 114.1083984375 347.519287109375 114.400390625Q347.865234375 114.6923828125 348.43017578125 114.6923828125Z M356.40771484375 116.0V108.9033203125H357.734375L357.76611328125 110.22998046875Q358.0390625 109.49365234375 358.5849609375 109.13818359375Q359.130859375 108.78271484375 359.765625 108.78271484375Q360.45751953125 108.78271484375 360.91455078125 109.17626953125Q361.37158203125 109.56982421875 361.5810546875 110.2744140625Q361.84765625 109.55712890625 362.460205078125 109.169921875Q363.07275390625 108.78271484375 363.828125 108.78271484375Q364.45654296875 108.78271484375 364.96435546875 109.0556640625Q365.47216796875 109.32861328125 365.773681640625 109.8681640625Q366.0751953125 110.40771484375 366.0751953125 111.2138671875V116.0H364.67236328125V111.353515625Q364.67236328125 110.642578125 364.27880859375 110.3251953125Q363.88525390625 110.0078125 363.345703125 110.0078125Q362.685546875 110.0078125 362.307861328125 110.4140625Q361.93017578125 110.8203125 361.93017578125 111.455078125V116.0H360.552734375V111.2646484375Q360.552734375 110.693359375 360.187744140625 110.3505859375Q359.82275390625 110.0078125 359.2578125 110.0078125Q358.673828125 110.0078125 358.239013671875 110.410888671875Q357.80419921875 110.81396484375 357.80419921875 111.58837890625V116.0Z M369.8505859375 111.7978515625V116.0H368.4541015625V106.5419921875H369.837890625V110.17919921875Q370.17431640625 109.474609375 370.7138671875 109.14453125Q371.25341796875 108.814453125 371.9833984375 108.814453125Q373.06884765625 108.814453125 373.7353515625 109.496826171875Q374.40185546875 110.17919921875 374.40185546875 111.4931640625V116.0H372.9990234375V111.66455078125Q372.9990234375 110.896484375 372.59912109375 110.46484375Q372.19921875 110.033203125 371.5009765625 110.033203125Q370.7900390625 110.033203125 370.3203125 110.493408203125Q369.8505859375 110.95361328125 369.8505859375 111.7978515625Z M378.1708984375 106.5419921875V116.0H376.7744140625V106.5419921875Z M380.333984375 114.1591796875V112.9912109375L384.4091796875 106.5419921875H386.19921875V112.927734375H387.443359375V114.1591796875H386.19921875V116.0H384.80908203125V114.1591796875ZM384.82177734375 112.927734375V108.26220703125H384.74560546875L381.8447265625 112.8515625V112.927734375Z M389.5556640625 116.0V114.95263671875L392.767578125 111.6328125Q393.50390625 110.8583984375 393.884765625 110.31884765625Q394.265625 109.779296875 394.265625 109.1572265625Q394.265625 108.4462890625 393.786376953125 108.036865234375Q393.30712890625 107.62744140625 392.58984375 107.62744140625Q391.83447265625 107.62744140625 391.3837890625 108.081298828125Q390.93310546875 108.53515625 390.93310546875 109.296875H389.54296875Q389.54296875 108.43359375 389.94287109375 107.782958984375Q390.3427734375 107.13232421875 391.037841796875 106.773681640625Q391.73291015625 106.4150390625 392.615234375 106.4150390625Q393.5166015625 106.4150390625 394.198974609375 106.7705078125Q394.88134765625 107.1259765625 395.2685546875 107.732177734375Q395.65576171875 108.33837890625 395.65576171875 109.1064453125Q395.65576171875 109.62060546875 395.462158203125 110.118896484375Q395.2685546875 110.6171875 394.782958984375 111.2392578125Q394.29736328125 111.861328125 393.4150390625 112.75L391.5615234375 114.68603515625V114.76220703125H395.8017578125V116.0Z M399.12646484375 116.09521484375Q398.73291015625 116.09521484375 398.4599609375 115.825439453125Q398.18701171875 115.5556640625 398.18701171875 115.162109375Q398.18701171875 114.7685546875 398.4599609375 114.49560546875Q398.73291015625 114.22265625 399.12646484375 114.22265625Q399.52001953125 114.22265625 399.789794921875 114.49560546875Q400.0595703125 114.7685546875 400.0595703125 115.162109375Q400.0595703125 115.5556640625 399.789794921875 115.825439453125Q399.52001953125 116.09521484375 399.12646484375 116.09521484375Z M404.5205078125 116.15869140625Q403.84130859375 116.15869140625 403.298583984375 115.907958984375Q402.755859375 115.6572265625 402.4384765625 115.1748046875Q402.12109375 114.6923828125 402.12109375 113.994140625Q402.12109375 113.39111328125 402.35595703125 113.000732421875Q402.5908203125 112.6103515625 402.984375 112.385009765625Q403.3779296875 112.15966796875 403.863525390625 112.04541015625Q404.34912109375 111.93115234375 404.8505859375 111.8740234375Q405.7900390625 111.76611328125 406.21533203125 111.686767578125Q406.640625 111.607421875 406.640625 111.23291015625V111.19482421875Q406.640625 110.6044921875 406.294677734375 110.277587890625Q405.94873046875 109.95068359375 405.2822265625 109.95068359375Q404.583984375 109.95068359375 404.18408203125 110.25537109375Q403.7841796875 110.56005859375 403.63818359375 110.921875L402.32421875 110.5791015625Q402.5654296875 109.9443359375 403.01611328125 109.55712890625Q403.466796875 109.169921875 404.047607421875 108.9921875Q404.62841796875 108.814453125 405.26318359375 108.814453125Q405.6884765625 108.814453125 406.1708984375 108.916015625Q406.6533203125 109.017578125 407.07861328125 109.281005859375Q407.50390625 109.54443359375 407.7705078125 110.033203125Q408.037109375 110.52197265625 408.037109375 111.2900390625V116.0H406.68505859375V115.02880859375H406.615234375Q406.40576171875 115.44775390625 405.894775390625 115.80322265625Q405.3837890625 116.15869140625 404.5205078125 116.15869140625ZM404.83154296875 115.03515625Q405.396484375 115.03515625 405.802734375 114.809814453125Q406.208984375 114.58447265625 406.427978515625 114.22265625Q406.64697265625 113.86083984375 406.64697265625 113.44189453125V112.5341796875Q406.54541015625 112.6357421875 406.212158203125 112.708740234375Q405.87890625 112.78173828125 405.5107421875 112.83251953125Q405.142578125 112.88330078125 404.9267578125 112.90869140625Q404.33642578125 112.9912109375 403.914306640625 113.229248046875Q403.4921875 113.46728515625 403.4921875 114.01318359375Q403.4921875 114.52099609375 403.869873046875 114.778076171875Q404.24755859375 115.03515625 404.83154296875 115.03515625Z M410.416015625 116.0V108.9033203125H411.8125V116.0ZM411.12060546875 107.81787109375Q410.7587890625 107.81787109375 410.501708984375 107.57666015625Q410.24462890625 107.33544921875 410.24462890625 106.99267578125Q410.24462890625 106.6435546875 410.501708984375 106.40234375Q410.7587890625 106.1611328125 411.12060546875 106.1611328125Q411.482421875 106.1611328125 411.74267578125 106.40234375Q412.0029296875 106.6435546875 412.0029296875 106.99267578125Q412.0029296875 107.33544921875 411.74267578125 107.57666015625Q411.482421875 107.81787109375 411.12060546875 107.81787109375Z" fill="#0E1116"/>
  </g>

</svg>
