<?xml version="1.0" encoding="UTF-8"?>
<svg xmlns="http://www.w3.org/2000/svg" viewBox="0 0 1584 396" preserveAspectRatio="xMidYMid meet">


  <defs>
    <linearGradient id="lg" x1="0" x2="1" y1="0" y2="0">
      <stop offset="0" stop-color="#0E1116"/>
      <stop offset="1" stop-color="#1A1F28"/>
    </linearGradient>
  </defs>
  <rect width="1584" height="396" fill="url(#lg)"/>
  <line x1="0" y1="380" x2="1584" y2="380" stroke="#F5C518" stroke-width="4"/>
  <g transform="translate(80,78)">
    <rect x="20" y="20" width="200" height="200" rx="20" fill="none" stroke="#FAF6EE" stroke-width="6"/>
  <path d="M41.380859375 60.376953125V57.08203125L49.8984375 43.62890625H55.134765625V57.013671875H57.677734375V60.376953125H55.134765625V64.0H51.12890625V60.376953125ZM51.2109375 57.013671875V48.22265625H51.046875L45.591796875 56.849609375V57.013671875Z M60.130859375 64.0V60.9921875L67.349609375 54.224609375Q68.73046875 52.87109375 69.4755859375 51.8662109375Q70.220703125 50.861328125 70.220703125 49.630859375Q70.220703125 48.263671875 69.3251953125 47.4775390625Q68.4296875 46.69140625 67.0625 46.69140625Q65.640625 46.69140625 64.7861328125 47.5390625Q63.931640625 48.38671875 63.931640625 49.876953125H59.939453125Q59.939453125 47.89453125 60.8486328125 46.4248046875Q61.7578125 44.955078125 63.37109375 44.1552734375Q64.984375 43.35546875 67.08984375 43.35546875Q69.25 43.35546875 70.86328125 44.1279296875Q72.4765625 44.900390625 73.3720703125 46.25390625Q74.267578125 47.607421875 74.267578125 49.37109375Q74.267578125 50.505859375 73.8232421875 51.61328125Q73.37890625 52.720703125 72.2373046875 54.0947265625Q71.095703125 55.46875 69.00390625 57.3828125L65.927734375 60.41796875V60.568359375H74.541015625V64.0Z" fill="#FAF6EE"/>
  <circle cx="200" cy="48" r="6" fill="#F5C518"/>
  <path d="M37.23828125 148.0V89.796875H58.72265625L66.14453125 112.453125Q66.73046875 114.4453125 67.4921875 117.6484375Q68.25390625 120.8515625 69.03515625 124.5625Q69.81640625 128.2734375 70.51953125 131.75Q71.18359375 128.2734375 71.9453125 124.58203125Q72.70703125 120.890625 73.46875 117.66796875Q74.23046875 114.4453125 74.81640625 112.453125L82.12109375 89.796875H103.64453125V148.0H89.77734375V122.921875Q89.77734375 120.6953125 89.875 117.08203125Q89.97265625 113.46875 90.08984375 109.25Q90.20703125 105.03125 90.28515625 101.125Q89.30859375 105.265625 88.234375 109.4453125Q87.16015625 113.625 86.18359375 117.16015625Q85.20703125 120.6953125 84.50390625 122.921875L76.22265625 148.0H64.69921875L56.30078125 122.921875Q55.63671875 120.7734375 54.66015625 117.375Q53.68359375 113.9765625 52.609375 109.93359375Q51.53515625 105.890625 50.55859375 101.7890625Q50.63671875 105.6171875 50.75390625 109.6796875Q50.87109375 113.7421875 50.96875 117.23828125Q51.06640625 120.734375 51.06640625 122.921875V148.0Z M109.70703125 148.0V89.796875H123.49609375V112.6484375H146.73828125V89.796875H160.48828125V148.0H146.73828125V123.8984375H123.49609375V148.0Z M166.58984375 148.0V89.796875H180.37890625V136.75H204.71484375V148.0Z" fill="#FAF6EE"/>
  </g>
  <g>
    <path d="M363.51171875 170.0V124.892578125H380.162109375L385.9140625 142.451171875Q386.3681640625 143.9951171875 386.95849609375 146.4775390625Q387.548828125 148.9599609375 388.154296875 151.8359375Q388.759765625 154.7119140625 389.3046875 157.40625Q389.8193359375 154.7119140625 390.40966796875 151.85107421875Q391.0 148.990234375 391.59033203125 146.49267578125Q392.1806640625 143.9951171875 392.634765625 142.451171875L398.2958984375 124.892578125H414.9765625V170.0H404.2294921875V150.564453125Q404.2294921875 148.8388671875 404.30517578125 146.03857421875Q404.380859375 143.23828125 404.4716796875 139.96875Q404.5625 136.69921875 404.623046875 133.671875Q403.8662109375 136.880859375 403.03369140625 140.1201171875Q402.201171875 143.359375 401.4443359375 146.09912109375Q400.6875 148.8388671875 400.142578125 150.564453125L393.724609375 170.0H384.7939453125L378.28515625 150.564453125Q377.7705078125 148.8994140625 377.013671875 146.265625Q376.2568359375 143.6318359375 375.42431640625 140.49853515625Q374.591796875 137.365234375 373.8349609375 134.1865234375Q373.8955078125 137.1533203125 373.986328125 140.3017578125Q374.0771484375 143.4501953125 374.15283203125 146.15966796875Q374.228515625 148.869140625 374.228515625 150.564453125V170.0Z M436.181640625 170.6357421875Q430.8837890625 170.6357421875 427.0693359375 168.44091796875Q423.2548828125 166.24609375 421.21142578125 162.32568359375Q419.16796875 158.4052734375 419.16796875 153.1982421875Q419.16796875 147.9912109375 421.21142578125 144.0556640625Q423.2548828125 140.1201171875 427.0693359375 137.92529296875Q430.8837890625 135.73046875 436.181640625 135.73046875Q441.4794921875 135.73046875 445.27880859375 137.92529296875Q449.078125 140.1201171875 451.12158203125 144.0556640625Q453.1650390625 147.9912109375 453.1650390625 153.1982421875Q453.1650390625 158.4052734375 451.12158203125 162.32568359375Q449.078125 166.24609375 445.27880859375 168.44091796875Q441.4794921875 170.6357421875 436.181640625 170.6357421875ZM436.181640625 162.552734375Q439.208984375 162.552734375 440.8134765625 159.96435546875Q442.41796875 157.3759765625 442.41796875 153.1376953125Q442.41796875 148.8994140625 440.8134765625 146.3564453125Q439.208984375 143.8134765625 436.181640625 143.8134765625Q433.154296875 143.8134765625 431.5498046875 146.3564453125Q429.9453125 148.8994140625 429.9453125 153.1376953125Q429.9453125 157.3759765625 431.5498046875 159.96435546875Q433.154296875 162.552734375 436.181640625 162.552734375Z M471.615234375 170.6357421875Q465.1064453125 170.6357421875 460.91357421875 167.89599609375Q456.720703125 165.15625 455.8427734375 160.3125L465.6513671875 158.7685546875Q466.287109375 160.978515625 467.80078125 162.0986328125Q469.314453125 163.21875 472.0087890625 163.21875Q474.21875 163.21875 475.490234375 162.44677734375Q476.76171875 161.6748046875 476.76171875 160.4033203125Q476.76171875 158.193359375 472.6142578125 157.3759765625L466.7109375 156.2255859375Q456.6904296875 154.318359375 456.6904296875 146.4775390625Q456.6904296875 141.421875 460.73193359375 138.576171875Q464.7734375 135.73046875 471.5849609375 135.73046875Q477.9423828125 135.73046875 481.787109375 138.2431640625Q485.6318359375 140.755859375 486.509765625 145.115234375L477.185546875 146.5986328125Q476.15625 142.99609375 471.7666015625 142.99609375Q469.859375 142.99609375 468.54248046875 143.76806640625Q467.2255859375 144.5400390625 467.2255859375 145.841796875Q467.2255859375 146.87109375 468.04296875 147.64306640625Q468.8603515625 148.4150390625 471.0400390625 148.8388671875L477.5185546875 150.0498046875Q487.478515625 151.9267578125 487.478515625 159.1923828125Q487.478515625 162.673828125 485.43505859375 165.2470703125Q483.3916015625 167.8203125 479.8193359375 169.22802734375Q476.2470703125 170.6357421875 471.615234375 170.6357421875Z M509.65234375 136.154296875V143.9951171875H503.5673828125V159.646484375Q503.5673828125 162.2802734375 506.26171875 162.2802734375Q506.806640625 162.2802734375 507.79052734375 162.14404296875Q508.7744140625 162.0078125 509.1982421875 161.9169921875L510.560546875 169.6064453125Q508.7744140625 170.12109375 507.109375 170.302734375Q505.4443359375 170.484375 503.9609375 170.484375Q498.572265625 170.484375 495.787109375 167.95654296875Q493.001953125 165.4287109375 493.001953125 160.5849609375V143.9951171875H488.521484375V136.154296875H493.001953125V128.1015625H503.5673828125V136.154296875Z M524.13671875 124.892578125V170.0H513.5712890625V124.892578125Z M529.5390625 181.8671875 531.900390625 174.1474609375 533.232421875 174.5107421875Q536.078125 175.267578125 537.833984375 174.419921875Q539.58984375 173.572265625 539.46875 171.4833984375L539.4384765625 170.060546875L526.814453125 136.154296875H537.955078125L543.0107421875 152.7138671875Q543.6767578125 154.8935546875 544.130859375 157.0732421875Q544.5849609375 159.2529296875 545.0087890625 161.5234375Q545.5234375 159.22265625 546.0986328125 157.04296875Q546.673828125 154.86328125 547.3701171875 152.7138671875L552.7890625 136.154296875H563.80859375L549.6103515625 173.572265625Q548.06640625 177.689453125 545.0087890625 180.29296875Q541.951171875 182.896484375 536.259765625 182.896484375Q532.1728515625 182.896484375 529.5390625 181.8671875Z M578.548828125 170.0V124.892578125H589.2353515625V142.6025390625H607.248046875V124.892578125H617.904296875V170.0H607.248046875V151.3212890625H589.2353515625V170.0Z M632.9033203125 170.60546875Q628.029296875 170.60546875 624.89599609375 168.123046875Q621.7626953125 165.640625 621.7626953125 160.615234375Q621.7626953125 156.861328125 623.48828125 154.6513671875Q625.2138671875 152.44140625 628.07470703125 151.3818359375Q630.935546875 150.322265625 634.3564453125 150.01953125Q638.6552734375 149.65625 640.51708984375 149.12646484375Q642.37890625 148.5966796875 642.37890625 147.0224609375V146.9013671875Q642.37890625 145.1455078125 641.15283203125 144.19189453125Q639.9267578125 143.23828125 637.77734375 143.23828125Q635.5673828125 143.23828125 634.14453125 144.1767578125Q632.7216796875 145.115234375 632.2978515625 146.7197265625L622.7314453125 145.478515625Q623.73046875 141.1494140625 627.62060546875 138.43994140625Q631.5107421875 135.73046875 637.8681640625 135.73046875Q642.076171875 135.73046875 645.48193359375 137.0322265625Q648.8876953125 138.333984375 650.90087890625 140.86181640625Q652.9140625 143.3896484375 652.9140625 147.0224609375V170.0H642.984375V165.2470703125H642.7119140625Q639.896484375 170.60546875 632.9033203125 170.60546875ZM636.1123046875 163.6123046875Q638.7763671875 163.6123046875 640.623046875 162.0380859375Q642.4697265625 160.4638671875 642.4697265625 157.951171875V154.7119140625Q641.5615234375 155.1962890625 639.8359375 155.529296875Q638.1103515625 155.8623046875 636.626953125 156.1044921875Q631.7529296875 156.8310546875 631.7529296875 160.130859375Q631.7529296875 161.826171875 632.97900390625 162.71923828125Q634.205078125 163.6123046875 636.1123046875 163.6123046875Z M658.4072265625 170.0V136.154296875H668.669921875V142.330078125H669.033203125Q669.94140625 139.0 672.04541015625 137.365234375Q674.1494140625 135.73046875 676.9345703125 135.73046875Q678.478515625 135.73046875 679.931640625 136.09375V145.296875Q679.1748046875 145.0244140625 677.94873046875 144.88818359375Q676.72265625 144.751953125 675.75390625 144.751953125Q672.8173828125 144.751953125 670.89501953125 146.62890625Q668.97265625 148.505859375 668.97265625 151.533203125V170.0Z M682.9423828125 170.0V136.154296875H692.66015625L693.14453125 142.875Q694.537109375 139.060546875 697.18603515625 137.38037109375Q699.8349609375 135.7001953125 702.892578125 135.7001953125Q706.1015625 135.7001953125 708.23583984375 137.546875Q710.3701171875 139.3935546875 711.611328125 143.541015625Q713.1552734375 139.36328125 716.16748046875 137.53173828125Q719.1796875 135.7001953125 722.6005859375 135.7001953125Q727.353515625 135.7001953125 730.39599609375 138.7578125Q733.4384765625 141.8154296875 733.4384765625 147.173828125V170.0H722.873046875V149.5654296875Q722.873046875 146.9921875 721.541015625 145.66015625Q720.208984375 144.328125 718.1201171875 144.328125Q715.8798828125 144.328125 714.578125 145.79638671875Q713.2763671875 147.2646484375 713.2763671875 149.6865234375V170.0H703.134765625V149.4140625Q703.134765625 147.0830078125 701.81787109375 145.70556640625Q700.5009765625 144.328125 698.412109375 144.328125Q696.2626953125 144.328125 694.88525390625 145.78125Q693.5078125 147.234375 693.5078125 149.8984375V170.0Z M749.4970703125 124.892578125V170.0H738.931640625V124.892578125Z M770.7626953125 170.6357421875Q762.80078125 170.6357421875 758.24462890625 165.98876953125Q753.6884765625 161.341796875 753.6884765625 153.1982421875Q753.6884765625 147.9912109375 755.73193359375 144.0556640625Q757.775390625 140.1201171875 761.529296875 137.92529296875Q765.283203125 135.73046875 770.369140625 135.73046875Q775.1220703125 135.73046875 778.80029296875 137.71337890625Q782.478515625 139.6962890625 784.58251953125 143.55615234375Q786.6865234375 147.416015625 786.6865234375 152.986328125V155.650390625H764.072265625Q764.2236328125 159.3134765625 766.08544921875 161.14501953125Q767.947265625 162.9765625 770.9443359375 162.9765625Q773.0634765625 162.9765625 774.607421875 162.08349609375Q776.1513671875 161.1904296875 776.787109375 159.4951171875L786.2021484375 161.0390625Q784.9306640625 165.4287109375 780.91943359375 168.0322265625Q776.908203125 170.6357421875 770.7626953125 170.6357421875ZM764.1328125 149.5048828125H776.666015625Q776.36328125 146.62890625 774.7890625 145.00927734375Q773.21484375 143.3896484375 770.4599609375 143.3896484375Q767.6748046875 143.3896484375 766.05517578125 145.03955078125Q764.435546875 146.689453125 764.1328125 149.5048828125Z M804.9853515625 170.6357421875Q798.4765625 170.6357421875 794.28369140625 167.89599609375Q790.0908203125 165.15625 789.212890625 160.3125L799.021484375 158.7685546875Q799.6572265625 160.978515625 801.1708984375 162.0986328125Q802.6845703125 163.21875 805.37890625 163.21875Q807.5888671875 163.21875 808.8603515625 162.44677734375Q810.1318359375 161.6748046875 810.1318359375 160.4033203125Q810.1318359375 158.193359375 805.984375 157.3759765625L800.0810546875 156.2255859375Q790.060546875 154.318359375 790.060546875 146.4775390625Q790.060546875 141.421875 794.10205078125 138.576171875Q798.1435546875 135.73046875 804.955078125 135.73046875Q811.3125 135.73046875 815.1572265625 138.2431640625Q819.001953125 140.755859375 819.8798828125 145.115234375L810.5556640625 146.5986328125Q809.5263671875 142.99609375 805.13671875 142.99609375Q803.2294921875 142.99609375 801.91259765625 143.76806640625Q800.595703125 144.5400390625 800.595703125 145.841796875Q800.595703125 146.87109375 801.4130859375 147.64306640625Q802.23046875 148.4150390625 804.41015625 148.8388671875L810.888671875 150.0498046875Q820.8486328125 151.9267578125 820.8486328125 159.1923828125Q820.8486328125 162.673828125 818.80517578125 165.2470703125Q816.76171875 167.8203125 813.189453125 169.22802734375Q809.6171875 170.6357421875 804.9853515625 170.6357421875Z M839.0263671875 170.6357421875Q832.517578125 170.6357421875 828.32470703125 167.89599609375Q824.1318359375 165.15625 823.25390625 160.3125L833.0625 158.7685546875Q833.6982421875 160.978515625 835.2119140625 162.0986328125Q836.7255859375 163.21875 839.419921875 163.21875Q841.6298828125 163.21875 842.9013671875 162.44677734375Q844.1728515625 161.6748046875 844.1728515625 160.4033203125Q844.1728515625 158.193359375 840.025390625 157.3759765625L834.1220703125 156.2255859375Q824.1015625 154.318359375 824.1015625 146.4775390625Q824.1015625 141.421875 828.14306640625 138.576171875Q832.1845703125 135.73046875 838.99609375 135.73046875Q845.353515625 135.73046875 849.1982421875 138.2431640625Q853.04296875 140.755859375 853.9208984375 145.115234375L844.5966796875 146.5986328125Q843.5673828125 142.99609375 839.177734375 142.99609375Q837.2705078125 142.99609375 835.95361328125 143.76806640625Q834.63671875 144.5400390625 834.63671875 145.841796875Q834.63671875 146.87109375 835.4541015625 147.64306640625Q836.271484375 148.4150390625 838.451171875 148.8388671875L844.9296875 150.0498046875Q854.8896484375 151.9267578125 854.8896484375 159.1923828125Q854.8896484375 162.673828125 852.84619140625 165.2470703125Q850.802734375 167.8203125 847.23046875 169.22802734375Q843.658203125 170.6357421875 839.0263671875 170.6357421875Z" fill="#FAF6EE"/>
    <path d="M360.59765625 214.0 366.80859375 196.5390625H370.08984375L376.41796875 214.0H373.5234375L371.91796875 209.39453125H365.05078125L363.4921875 214.0ZM365.8125 207.16796875H371.1328125L370.125 204.28515625Q369.7734375 203.2421875 369.36328125 201.865234375Q368.953125 200.48828125 368.4375 198.63671875Q367.921875 200.51171875 367.517578125 201.900390625Q367.11328125 203.2890625 366.78515625 204.28515625Z M381.32109375 196.5390625V214.0H378.64921875V196.5390625Z M395.48671874999997 214.26953125Q393.35390624999997 214.26953125 391.95351562499997 213.349609375Q390.55312499999997 212.4296875 390.20156249999997 210.68359375L392.62734374999997 210.1796875Q393.15468749999997 212.18359375 395.51015624999997 212.18359375Q396.76406249999997 212.18359375 397.49648437499997 211.662109375Q398.22890624999997 211.140625 398.22890624999997 210.4140625Q398.22890624999997 209.171875 396.38906249999997 208.76171875L394.18593749999997 208.2578125Q390.57656249999997 207.44921875 390.57656249999997 204.63671875Q390.57656249999997 203.46484375 391.22695312499997 202.5859375Q391.87734374999997 201.70703125 393.01992187499997 201.220703125Q394.16249999999997 200.734375 395.65078124999997 200.734375Q397.77187499999997 200.734375 398.97890624999997 201.642578125Q400.18593749999997 202.55078125 400.60781249999997 204.00390625L398.29921874999997 204.5078125Q398.05312499999997 203.81640625 397.44374999999997 203.294921875Q396.83437499999997 202.7734375 395.67421874999997 202.7734375Q394.60781249999997 202.7734375 393.89296874999997 203.25390625Q393.17812499999997 203.734375 393.17812499999997 204.47265625Q393.17812499999997 205.12890625 393.65273437499997 205.533203125Q394.12734374999997 205.9375 395.20546874999997 206.18359375L397.31484374999997 206.65234375Q400.88906249999997 207.4609375 400.88906249999997 210.19140625Q400.88906249999997 211.38671875 400.20351562499997 212.306640625Q399.51796874999997 213.2265625 398.29921874999997 213.748046875Q397.08046874999997 214.26953125 395.48671874999997 214.26953125Z M409.06171874999995 214.26953125Q407.12812499999995 214.26953125 405.72187499999995 213.4375Q404.31562499999995 212.60546875 403.55976562499995 211.09375Q402.80390624999995 209.58203125 402.80390624999995 207.54296875Q402.80390624999995 205.52734375 403.54804687499995 203.9921875Q404.29218749999995 202.45703125 405.65156249999995 201.595703125Q407.01093749999995 200.734375 408.83906249999995 200.734375Q410.32734374999995 200.734375 411.66914062499995 201.396484375Q413.01093749999995 202.05859375 413.84882812499995 203.505859375Q414.68671874999995 204.953125 414.68671874999995 207.3203125V208.234375H405.39374999999995Q405.46406249999995 210.1328125 406.47187499999995 211.134765625Q407.47968749999995 212.13671875 409.08515624999995 212.13671875Q410.16328124999995 212.13671875 410.94257812499995 211.66796875Q411.72187499999995 211.19921875 412.06171874999995 210.28515625L414.48749999999995 210.859375Q414.01874999999995 212.39453125 412.58906249999995 213.33203125Q411.15937499999995 214.26953125 409.06171874999995 214.26953125ZM405.40546874999995 206.3125H412.13203124999995Q411.99140624999995 204.765625 411.16523437499995 203.81640625Q410.33906249999995 202.8671875 408.85078124999995 202.8671875Q407.30390624999995 202.8671875 406.40742187499995 203.880859375Q405.51093749999995 204.89453125 405.40546874999995 206.3125Z M422.71874999999994 214.26953125Q420.86718749999994 214.26953125 419.49609374999994 213.42578125Q418.12499999999994 212.58203125 417.36328124999994 211.064453125Q416.60156249999994 209.546875 416.60156249999994 207.51953125Q416.60156249999994 205.48046875 417.36328124999994 203.951171875Q418.12499999999994 202.421875 419.49609374999994 201.578125Q420.86718749999994 200.734375 422.71874999999994 200.734375Q424.75781249999994 200.734375 426.24023437499994 201.759765625Q427.72265624999994 202.78515625 428.20312499999994 204.6015625L425.75390624999994 205.1875Q425.48437499999994 204.16796875 424.70507812499994 203.541015625Q423.92578124999994 202.9140625 422.73046874999994 202.9140625Q421.54687499999994 202.9140625 420.76757812499994 203.53515625Q419.98828124999994 204.15625 419.60742187499994 205.205078125Q419.22656249999994 206.25390625 419.22656249999994 207.51953125Q419.22656249999994 208.7734375 419.60742187499994 209.810546875Q419.98828124999994 210.84765625 420.76757812499994 211.46875Q421.54687499999994 212.08984375 422.73046874999994 212.08984375Q423.94921874999994 212.08984375 424.74609374999994 211.439453125Q425.54296874999994 210.7890625 425.80078124999994 209.72265625L428.23828124999994 210.30859375Q427.75781249999994 212.16015625 426.26953124999994 213.21484375Q424.78124999999994 214.26953125 422.71874999999994 214.26953125Z M435.22734374999993 214.1640625Q433.22343749999993 214.1640625 431.99296874999993 212.904296875Q430.76249999999993 211.64453125 430.76249999999993 209.21875V200.8984375H433.34062499999993V208.90234375Q433.34062499999993 210.3203125 434.08476562499993 211.1171875Q434.82890624999993 211.9140625 436.10624999999993 211.9140625Q437.41874999999993 211.9140625 438.28593749999993 211.064453125Q439.15312499999993 210.21484375 439.15312499999993 208.65625V200.8984375H441.74296874999993V214.0H439.27031249999993L439.25859374999993 211.45703125Q438.63749999999993 212.88671875 437.61210937499993 213.525390625Q436.58671874999993 214.1640625 435.22734374999993 214.1640625Z M444.8999999999999 214.0V200.8984375H447.3960937499999V203.0078125H447.5367187499999Q447.8882812499999 201.94140625 448.7964843749999 201.326171875Q449.7046874999999 200.7109375 450.8531249999999 200.7109375Q451.0992187499999 200.7109375 451.4214843749999 200.734375Q451.7437499999999 200.7578125 451.9429687499999 200.78125V203.2421875Q451.8023437499999 203.20703125 451.4039062499999 203.154296875Q451.0054687499999 203.1015625 450.5953124999999 203.1015625Q449.2476562499999 203.1015625 448.3628906249999 203.927734375Q447.4781249999999 204.75390625 447.4781249999999 206.04296875V214.0Z M453.8812499999999 214.0V200.8984375H456.4593749999999V214.0ZM455.1820312499999 198.89453125Q454.5140624999999 198.89453125 454.0394531249999 198.44921875Q453.5648437499999 198.00390625 453.5648437499999 197.37109375Q453.5648437499999 196.7265625 454.0394531249999 196.28125Q454.5140624999999 195.8359375 455.1820312499999 195.8359375Q455.8499999999999 195.8359375 456.3304687499999 196.28125Q456.8109374999999 196.7265625 456.8109374999999 197.37109375Q456.8109374999999 198.00390625 456.3304687499999 198.44921875Q455.8499999999999 198.89453125 455.1820312499999 198.89453125Z M465.2296874999999 200.8984375V202.99609375H462.6164062499999V210.4609375Q462.6164062499999 211.24609375 462.9503906249999 211.615234375Q463.2843749999999 211.984375 464.0460937499999 211.984375Q464.2570312499999 211.984375 464.5792968749999 211.9375Q464.9015624999999 211.890625 465.1359374999999 211.84375L465.5929687499999 213.90625Q465.1828124999999 214.046875 464.7082031249999 214.111328125Q464.2335937499999 214.17578125 463.7882812499999 214.17578125Q462.0070312499999 214.17578125 461.0226562499999 213.255859375Q460.0382812499999 212.3359375 460.0382812499999 210.671875V202.99609375H458.1281249999999V200.8984375H460.0382812499999V197.78125H462.6164062499999V200.8984375Z M467.3203124999999 218.7109375 467.9531249999999 216.61328125 468.2460937499999 216.68359375Q469.2421874999999 216.953125 469.9394531249999 216.619140625Q470.6367187499999 216.28515625 470.9999999999999 215.01953125L471.2812499999999 214.05859375L466.3007812499999 200.8984375H469.0898437499999L471.6796874999999 208.33984375Q471.9726562499999 209.20703125 472.1953124999999 210.05078125Q472.4179687499999 210.89453125 472.6289062499999 211.73828125Q472.8515624999999 210.89453125 473.0859374999999 210.044921875Q473.3203124999999 209.1953125 473.6249999999999 208.33984375L476.2617187499999 200.8984375H479.0273437499999L473.3320312499999 215.81640625Q472.7343749999999 217.38671875 471.7207031249999 218.189453125Q470.7070312499999 218.9921875 469.1249999999999 218.9921875Q468.5156249999999 218.9921875 468.0410156249999 218.904296875Q467.5664062499999 218.81640625 467.3203124999999 218.7109375Z M492.60703124999986 214.26953125Q490.75546874999986 214.26953125 489.38437499999986 213.42578125Q488.01328124999986 212.58203125 487.25156249999986 211.064453125Q486.48984374999986 209.546875 486.48984374999986 207.51953125Q486.48984374999986 205.48046875 487.25156249999986 203.951171875Q488.01328124999986 202.421875 489.38437499999986 201.578125Q490.75546874999986 200.734375 492.60703124999986 200.734375Q494.64609374999986 200.734375 496.12851562499986 201.759765625Q497.61093749999986 202.78515625 498.09140624999986 204.6015625L495.64218749999986 205.1875Q495.37265624999986 204.16796875 494.59335937499986 203.541015625Q493.81406249999986 202.9140625 492.61874999999986 202.9140625Q491.43515624999986 202.9140625 490.65585937499986 203.53515625Q489.87656249999986 204.15625 489.49570312499986 205.205078125Q489.11484374999986 206.25390625 489.11484374999986 207.51953125Q489.11484374999986 208.7734375 489.49570312499986 209.810546875Q489.87656249999986 210.84765625 490.65585937499986 211.46875Q491.43515624999986 212.08984375 492.61874999999986 212.08984375Q493.83749999999986 212.08984375 494.63437499999986 211.439453125Q495.43124999999986 210.7890625 495.68906249999986 209.72265625L498.12656249999986 210.30859375Q497.64609374999986 212.16015625 496.15781249999986 213.21484375Q494.66953124999986 214.26953125 492.60703124999986 214.26953125Z M506.15859374999985 214.26953125Q504.31874999999985 214.26953125 502.94179687499985 213.42578125Q501.56484374999985 212.58203125 500.80312499999985 211.064453125Q500.04140624999985 209.546875 500.04140624999985 207.51953125Q500.04140624999985 205.48046875 500.80312499999985 203.951171875Q501.56484374999985 202.421875 502.94179687499985 201.578125Q504.31874999999985 200.734375 506.15859374999985 200.734375Q508.01015624999985 200.734375 509.38710937499985 201.578125Q510.76406249999985 202.421875 511.5257812499999 203.951171875Q512.2874999999999 205.48046875 512.2874999999999 207.51953125Q512.2874999999999 209.546875 511.5257812499999 211.064453125Q510.76406249999985 212.58203125 509.38710937499985 213.42578125Q508.01015624999985 214.26953125 506.15859374999985 214.26953125ZM506.15859374999985 212.08984375Q507.35390624999985 212.08984375 508.13320312499985 211.462890625Q508.91249999999985 210.8359375 509.29335937499985 209.798828125Q509.67421874999985 208.76171875 509.67421874999985 207.51953125Q509.67421874999985 206.265625 509.29335937499985 205.216796875Q508.91249999999985 204.16796875 508.13320312499985 203.541015625Q507.35390624999985 202.9140625 506.15859374999985 202.9140625Q504.97499999999985 202.9140625 504.20156249999985 203.541015625Q503.42812499999985 204.16796875 503.04726562499985 205.216796875Q502.66640624999985 206.265625 502.66640624999985 207.51953125Q502.66640624999985 208.76171875 503.04726562499985 209.798828125Q503.42812499999985 210.8359375 504.20156249999985 211.462890625Q504.97499999999985 212.08984375 506.15859374999985 212.08984375Z M517.4249999999998 206.2421875V214.0H514.8468749999998V200.8984375H517.3078124999998L517.3195312499998 203.41796875Q517.9289062499998 202.03515625 518.9542968749998 201.384765625Q519.9796874999998 200.734375 521.3624999999998 200.734375Q523.3664062499998 200.734375 524.5910156249998 201.994140625Q525.8156249999998 203.25390625 525.8156249999998 205.6796875V214.0H523.2374999999998V205.99609375Q523.2374999999998 204.578125 522.4992187499998 203.78125Q521.7609374999998 202.984375 520.4718749999998 202.984375Q519.1593749999998 202.984375 518.2921874999998 203.833984375Q517.4249999999998 204.68359375 517.4249999999998 206.2421875Z M533.6835937499999 214.26953125Q531.5507812499999 214.26953125 530.1503906249999 213.349609375Q528.7499999999999 212.4296875 528.3984374999999 210.68359375L530.8242187499999 210.1796875Q531.3515624999999 212.18359375 533.7070312499999 212.18359375Q534.9609374999999 212.18359375 535.6933593749999 211.662109375Q536.4257812499999 211.140625 536.4257812499999 210.4140625Q536.4257812499999 209.171875 534.5859374999999 208.76171875L532.3828124999999 208.2578125Q528.7734374999999 207.44921875 528.7734374999999 204.63671875Q528.7734374999999 203.46484375 529.4238281249999 202.5859375Q530.0742187499999 201.70703125 531.2167968749999 201.220703125Q532.3593749999999 200.734375 533.8476562499999 200.734375Q535.9687499999999 200.734375 537.1757812499999 201.642578125Q538.3828124999999 202.55078125 538.8046874999999 204.00390625L536.4960937499999 204.5078125Q536.2499999999999 203.81640625 535.6406249999999 203.294921875Q535.0312499999999 202.7734375 533.8710937499999 202.7734375Q532.8046874999999 202.7734375 532.0898437499999 203.25390625Q531.3749999999999 203.734375 531.3749999999999 204.47265625Q531.3749999999999 205.12890625 531.8496093749999 205.533203125Q532.3242187499999 205.9375 533.4023437499999 206.18359375L535.5117187499999 206.65234375Q539.0859374999999 207.4609375 539.0859374999999 210.19140625Q539.0859374999999 211.38671875 538.4003906249999 212.306640625Q537.7148437499999 213.2265625 536.4960937499999 213.748046875Q535.2773437499999 214.26953125 533.6835937499999 214.26953125Z M546.0749999999999 214.1640625Q544.0710937499999 214.1640625 542.8406249999999 212.904296875Q541.6101562499999 211.64453125 541.6101562499999 209.21875V200.8984375H544.1882812499999V208.90234375Q544.1882812499999 210.3203125 544.9324218749999 211.1171875Q545.6765624999999 211.9140625 546.9539062499999 211.9140625Q548.2664062499999 211.9140625 549.1335937499999 211.064453125Q550.0007812499999 210.21484375 550.0007812499999 208.65625V200.8984375H552.5906249999999V214.0H550.1179687499999L550.1062499999999 211.45703125Q549.4851562499999 212.88671875 548.4597656249999 213.525390625Q547.4343749999999 214.1640625 546.0749999999999 214.1640625Z M558.32578125 196.5390625V214.0H555.74765625V196.5390625Z M567.09609375 200.8984375V202.99609375H564.4828125V210.4609375Q564.4828125 211.24609375 564.816796875 211.615234375Q565.15078125 211.984375 565.9125 211.984375Q566.1234375 211.984375 566.445703125 211.9375Q566.76796875 211.890625 567.00234375 211.84375L567.459375 213.90625Q567.04921875 214.046875 566.574609375 214.111328125Q566.1 214.17578125 565.6546875 214.17578125Q563.8734375 214.17578125 562.8890625 213.255859375Q561.9046875 212.3359375 561.9046875 210.671875V202.99609375H559.99453125V200.8984375H561.9046875V197.78125H564.4828125V200.8984375Z M569.3625000000001 214.0V200.8984375H571.9406250000001V214.0ZM570.6632812500001 198.89453125Q569.9953125000001 198.89453125 569.5207031250001 198.44921875Q569.0460937500001 198.00390625 569.0460937500001 197.37109375Q569.0460937500001 196.7265625 569.5207031250001 196.28125Q569.9953125000001 195.8359375 570.6632812500001 195.8359375Q571.3312500000001 195.8359375 571.8117187500001 196.28125Q572.2921875000001 196.7265625 572.2921875000001 197.37109375Q572.2921875000001 198.00390625 571.8117187500001 198.44921875Q571.3312500000001 198.89453125 570.6632812500001 198.89453125Z M577.6875000000001 206.2421875V214.0H575.1093750000001V200.8984375H577.5703125000001L577.5820312500001 203.41796875Q578.1914062500001 202.03515625 579.2167968750001 201.384765625Q580.2421875000001 200.734375 581.6250000000001 200.734375Q583.6289062500001 200.734375 584.8535156250001 201.994140625Q586.0781250000001 203.25390625 586.0781250000001 205.6796875V214.0H583.5000000000001V205.99609375Q583.5000000000001 204.578125 582.7617187500001 203.78125Q582.0234375000001 202.984375 580.7343750000001 202.984375Q579.4218750000001 202.984375 578.5546875000001 203.833984375Q577.6875000000001 204.68359375 577.6875000000001 206.2421875Z M594.7312500000002 219.1796875Q592.4578125000002 219.1796875 591.0867187500002 218.34765625Q589.7156250000002 217.515625 589.1648437500002 216.33203125L591.3210937500002 215.3125Q591.5554687500002 215.6875 591.9480468750002 216.103515625Q592.3406250000002 216.51953125 593.0027343750002 216.8125Q593.6648437500002 217.10546875 594.7195312500002 217.10546875Q596.2078125000002 217.10546875 597.1453125000002 216.396484375Q598.0828125000002 215.6875 598.0828125000002 214.17578125V211.62109375H597.8601562500002Q597.6257812500002 212.0546875 597.2097656250002 212.55859375Q596.7937500000002 213.0625 596.0496093750002 213.431640625Q595.3054687500002 213.80078125 594.1101562500002 213.80078125Q592.5632812500002 213.80078125 591.3269531250002 213.07421875Q590.0906250000002 212.34765625 589.3640625000002 210.923828125Q588.6375000000002 209.5 588.6375000000002 207.40234375Q588.6375000000002 205.31640625 589.3582031250002 203.822265625Q590.0789062500002 202.328125 591.3210937500002 201.53125Q592.5632812500002 200.734375 594.1453125000002 200.734375Q595.3523437500002 200.734375 596.1082031250002 201.138671875Q596.8640625000002 201.54296875 597.2917968750002 202.08203125Q597.7195312500002 202.62109375 597.9421875000002 203.03125H598.1296875000002V200.8984375H600.6492187500002V214.1875Q600.6492187500002 215.91015625 599.8640625000002 217.01171875Q599.0789062500002 218.11328125 597.7429687500002 218.646484375Q596.4070312500002 219.1796875 594.7312500000002 219.1796875ZM594.7078125000002 211.65625Q596.3484375000002 211.65625 597.2214843750002 210.51953125Q598.0945312500002 209.3828125 598.0945312500002 207.3671875Q598.0945312500002 205.3984375 597.2332031250002 204.162109375Q596.3718750000002 202.92578125 594.7078125000002 202.92578125Q593.5710937500002 202.92578125 592.8035156250002 203.517578125Q592.0359375000002 204.109375 591.6550781250002 205.111328125Q591.2742187500002 206.11328125 591.2742187500002 207.3671875Q591.2742187500002 209.2890625 592.1472656250002 210.47265625Q593.0203125000002 211.65625 594.7078125000002 211.65625Z M611.8265625000003 207.4375Q611.1000000000003 207.4375 610.5960937500003 206.939453125Q610.0921875000003 206.44140625 610.0921875000003 205.71484375Q610.0921875000003 204.98828125 610.5960937500003 204.484375Q611.1000000000003 203.98046875 611.8265625000003 203.98046875Q612.5531250000003 203.98046875 613.0511718750003 204.484375Q613.5492187500003 204.98828125 613.5492187500003 205.71484375Q613.5492187500003 206.44140625 613.0511718750003 206.939453125Q612.5531250000003 207.4375 611.8265625000003 207.4375Z M626.6601562500003 214.29296875Q625.4062500000003 214.29296875 624.4042968750003 213.830078125Q623.4023437500003 213.3671875 622.8164062500003 212.4765625Q622.2304687500003 211.5859375 622.2304687500003 210.296875Q622.2304687500003 209.18359375 622.6640625000003 208.462890625Q623.0976562500003 207.7421875 623.8242187500003 207.326171875Q624.5507812500003 206.91015625 625.4472656250003 206.69921875Q626.3437500000003 206.48828125 627.2695312500003 206.3828125Q629.0039062500003 206.18359375 629.7890625000003 206.037109375Q630.5742187500003 205.890625 630.5742187500003 205.19921875V205.12890625Q630.5742187500003 204.0390625 629.9355468750003 203.435546875Q629.2968750000003 202.83203125 628.0664062500003 202.83203125Q626.7773437500003 202.83203125 626.0390625000003 203.39453125Q625.3007812500003 203.95703125 625.0312500000003 204.625L622.6054687500003 203.9921875Q623.0507812500003 202.8203125 623.8828125000003 202.10546875Q624.7148437500003 201.390625 625.7871093750003 201.0625Q626.8593750000003 200.734375 628.0312500000003 200.734375Q628.8164062500003 200.734375 629.7070312500003 200.921875Q630.5976562500003 201.109375 631.3828125000003 201.595703125Q632.1679687500003 202.08203125 632.6601562500003 202.984375Q633.1523437500003 203.88671875 633.1523437500003 205.3046875V214.0H630.6562500000003V212.20703125H630.5273437500003Q630.1406250000003 212.98046875 629.1972656250003 213.63671875Q628.2539062500003 214.29296875 626.6601562500003 214.29296875ZM627.2343750000003 212.21875Q628.2773437500003 212.21875 629.0273437500003 211.802734375Q629.7773437500003 211.38671875 630.1816406250003 210.71875Q630.5859375000003 210.05078125 630.5859375000003 209.27734375V207.6015625Q630.3984375000003 207.7890625 629.7832031250003 207.923828125Q629.1679687500003 208.05859375 628.4882812500003 208.15234375Q627.8085937500003 208.24609375 627.4101562500003 208.29296875Q626.3203125000003 208.4453125 625.5410156250003 208.884765625Q624.7617187500003 209.32421875 624.7617187500003 210.33203125Q624.7617187500003 211.26953125 625.4589843750003 211.744140625Q626.1562500000003 212.21875 627.2343750000003 212.21875Z M641.8054687500004 219.1796875Q639.5320312500004 219.1796875 638.1609375000004 218.34765625Q636.7898437500004 217.515625 636.2390625000004 216.33203125L638.3953125000004 215.3125Q638.6296875000004 215.6875 639.0222656250004 216.103515625Q639.4148437500004 216.51953125 640.0769531250004 216.8125Q640.7390625000004 217.10546875 641.7937500000004 217.10546875Q643.2820312500004 217.10546875 644.2195312500004 216.396484375Q645.1570312500004 215.6875 645.1570312500004 214.17578125V211.62109375H644.9343750000004Q644.7000000000004 212.0546875 644.2839843750004 212.55859375Q643.8679687500004 213.0625 643.1238281250004 213.431640625Q642.3796875000004 213.80078125 641.1843750000004 213.80078125Q639.6375000000004 213.80078125 638.4011718750004 213.07421875Q637.1648437500004 212.34765625 636.4382812500004 210.923828125Q635.7117187500004 209.5 635.7117187500004 207.40234375Q635.7117187500004 205.31640625 636.4324218750004 203.822265625Q637.1531250000004 202.328125 638.3953125000004 201.53125Q639.6375000000004 200.734375 641.2195312500004 200.734375Q642.4265625000004 200.734375 643.1824218750004 201.138671875Q643.9382812500004 201.54296875 644.3660156250004 202.08203125Q644.7937500000004 202.62109375 645.0164062500004 203.03125H645.2039062500004V200.8984375H647.7234375000004V214.1875Q647.7234375000004 215.91015625 646.9382812500004 217.01171875Q646.1531250000004 218.11328125 644.8171875000004 218.646484375Q643.4812500000004 219.1796875 641.8054687500004 219.1796875ZM641.7820312500004 211.65625Q643.4226562500004 211.65625 644.2957031250004 210.51953125Q645.1687500000004 209.3828125 645.1687500000004 207.3671875Q645.1687500000004 205.3984375 644.3074218750004 204.162109375Q643.4460937500004 202.92578125 641.7820312500004 202.92578125Q640.6453125000004 202.92578125 639.8777343750004 203.517578125Q639.1101562500004 204.109375 638.7292968750004 205.111328125Q638.3484375000004 206.11328125 638.3484375000004 207.3671875Q638.3484375000004 209.2890625 639.2214843750004 210.47265625Q640.0945312500004 211.65625 641.7820312500004 211.65625Z M656.5406250000004 214.26953125Q654.6070312500004 214.26953125 653.2007812500004 213.4375Q651.7945312500004 212.60546875 651.0386718750004 211.09375Q650.2828125000004 209.58203125 650.2828125000004 207.54296875Q650.2828125000004 205.52734375 651.0269531250004 203.9921875Q651.7710937500004 202.45703125 653.1304687500004 201.595703125Q654.4898437500004 200.734375 656.3179687500004 200.734375Q657.8062500000004 200.734375 659.1480468750004 201.396484375Q660.4898437500004 202.05859375 661.3277343750004 203.505859375Q662.1656250000004 204.953125 662.1656250000004 207.3203125V208.234375H652.8726562500004Q652.9429687500004 210.1328125 653.9507812500004 211.134765625Q654.9585937500004 212.13671875 656.5640625000004 212.13671875Q657.6421875000004 212.13671875 658.4214843750004 211.66796875Q659.2007812500004 211.19921875 659.5406250000004 210.28515625L661.9664062500004 210.859375Q661.4976562500004 212.39453125 660.0679687500004 213.33203125Q658.6382812500004 214.26953125 656.5406250000004 214.26953125ZM652.8843750000004 206.3125H659.6109375000004Q659.4703125000004 204.765625 658.6441406250004 203.81640625Q657.8179687500004 202.8671875 656.3296875000004 202.8671875Q654.7828125000004 202.8671875 653.8863281250004 203.880859375Q652.9898437500004 204.89453125 652.8843750000004 206.3125Z M667.2679687500005 206.2421875V214.0H664.6898437500005V200.8984375H667.1507812500005L667.1625000000005 203.41796875Q667.7718750000005 202.03515625 668.7972656250005 201.384765625Q669.8226562500005 200.734375 671.2054687500005 200.734375Q673.2093750000005 200.734375 674.4339843750005 201.994140625Q675.6585937500005 203.25390625 675.6585937500005 205.6796875V214.0H673.0804687500005V205.99609375Q673.0804687500005 204.578125 672.3421875000005 203.78125Q671.6039062500005 202.984375 670.3148437500005 202.984375Q669.0023437500005 202.984375 668.1351562500005 203.833984375Q667.2679687500005 204.68359375 667.2679687500005 206.2421875Z M684.4289062500005 200.8984375V202.99609375H681.8156250000005V210.4609375Q681.8156250000005 211.24609375 682.1496093750005 211.615234375Q682.4835937500005 211.984375 683.2453125000005 211.984375Q683.4562500000005 211.984375 683.7785156250005 211.9375Q684.1007812500005 211.890625 684.3351562500005 211.84375L684.7921875000005 213.90625Q684.3820312500005 214.046875 683.9074218750005 214.111328125Q683.4328125000005 214.17578125 682.9875000000005 214.17578125Q681.2062500000005 214.17578125 680.2218750000005 213.255859375Q679.2375000000005 212.3359375 679.2375000000005 210.671875V202.99609375H677.3273437500005V200.8984375H679.2375000000005V197.78125H681.8156250000005V200.8984375Z M686.6953125000006 214.0V200.8984375H689.2734375000006V214.0ZM687.9960937500006 198.89453125Q687.3281250000006 198.89453125 686.8535156250006 198.44921875Q686.3789062500006 198.00390625 686.3789062500006 197.37109375Q686.3789062500006 196.7265625 686.8535156250006 196.28125Q687.3281250000006 195.8359375 687.9960937500006 195.8359375Q688.6640625000006 195.8359375 689.1445312500006 196.28125Q689.6250000000006 196.7265625 689.6250000000006 197.37109375Q689.6250000000006 198.00390625 689.1445312500006 198.44921875Q688.6640625000006 198.89453125 687.9960937500006 198.89453125Z M697.9500000000006 214.26953125Q696.0984375000006 214.26953125 694.7273437500006 213.42578125Q693.3562500000006 212.58203125 692.5945312500006 211.064453125Q691.8328125000006 209.546875 691.8328125000006 207.51953125Q691.8328125000006 205.48046875 692.5945312500006 203.951171875Q693.3562500000006 202.421875 694.7273437500006 201.578125Q696.0984375000006 200.734375 697.9500000000006 200.734375Q699.9890625000006 200.734375 701.4714843750006 201.759765625Q702.9539062500006 202.78515625 703.4343750000006 204.6015625L700.9851562500006 205.1875Q700.7156250000006 204.16796875 699.9363281250006 203.541015625Q699.1570312500006 202.9140625 697.9617187500006 202.9140625Q696.7781250000006 202.9140625 695.9988281250006 203.53515625Q695.2195312500006 204.15625 694.8386718750006 205.205078125Q694.4578125000006 206.25390625 694.4578125000006 207.51953125Q694.4578125000006 208.7734375 694.8386718750006 209.810546875Q695.2195312500006 210.84765625 695.9988281250006 211.46875Q696.7781250000006 212.08984375 697.9617187500006 212.08984375Q699.1804687500006 212.08984375 699.9773437500006 211.439453125Q700.7742187500006 210.7890625 701.0320312500006 209.72265625L703.4695312500006 210.30859375Q702.9890625000006 212.16015625 701.5007812500006 213.21484375Q700.0125000000006 214.26953125 697.9500000000006 214.26953125Z M710.9554687500007 214.0 717.1664062500007 196.5390625H720.4476562500007L726.7757812500007 214.0H723.8812500000007L722.2757812500007 209.39453125H715.4085937500007L713.8500000000007 214.0ZM716.1703125000007 207.16796875H721.4906250000007L720.4828125000007 204.28515625Q720.1312500000007 203.2421875 719.7210937500007 201.865234375Q719.3109375000007 200.48828125 718.7953125000007 198.63671875Q718.2796875000007 200.51171875 717.8753906250007 201.900390625Q717.4710937500007 203.2890625 717.1429687500007 204.28515625Z M731.6789062500008 196.5390625V214.0H729.0070312500008V196.5390625Z M743.0554687500008 207.4375Q742.3289062500008 207.4375 741.8250000000008 206.939453125Q741.3210937500008 206.44140625 741.3210937500008 205.71484375Q741.3210937500008 204.98828125 741.8250000000008 204.484375Q742.3289062500008 203.98046875 743.0554687500008 203.98046875Q743.7820312500008 203.98046875 744.2800781250008 204.484375Q744.7781250000008 204.98828125 744.7781250000008 205.71484375Q744.7781250000008 206.44140625 744.2800781250008 206.939453125Q743.7820312500008 207.4375 743.0554687500008 207.4375Z M759.8695312500009 214.26953125Q757.9359375000009 214.26953125 756.5296875000009 213.4375Q755.1234375000009 212.60546875 754.3675781250009 211.09375Q753.6117187500009 209.58203125 753.6117187500009 207.54296875Q753.6117187500009 205.52734375 754.3558593750009 203.9921875Q755.1000000000009 202.45703125 756.4593750000009 201.595703125Q757.8187500000009 200.734375 759.6468750000009 200.734375Q761.1351562500009 200.734375 762.4769531250009 201.396484375Q763.8187500000009 202.05859375 764.6566406250009 203.505859375Q765.4945312500009 204.953125 765.4945312500009 207.3203125V208.234375H756.2015625000009Q756.2718750000009 210.1328125 757.2796875000009 211.134765625Q758.2875000000009 212.13671875 759.8929687500009 212.13671875Q760.9710937500009 212.13671875 761.7503906250009 211.66796875Q762.5296875000009 211.19921875 762.8695312500009 210.28515625L765.2953125000009 210.859375Q764.8265625000009 212.39453125 763.3968750000009 213.33203125Q761.9671875000009 214.26953125 759.8695312500009 214.26953125ZM756.2132812500009 206.3125H762.9398437500009Q762.7992187500009 204.765625 761.9730468750009 203.81640625Q761.1468750000009 202.8671875 759.6585937500009 202.8671875Q758.1117187500009 202.8671875 757.2152343750009 203.880859375Q756.3187500000009 204.89453125 756.2132812500009 206.3125Z M772.893750000001 214.2578125Q771.300000000001 214.2578125 770.063671875001 213.44921875Q768.827343750001 212.640625 768.118359375001 211.1171875Q767.409375000001 209.59375 767.409375000001 207.484375Q767.409375000001 205.3515625 768.124218750001 203.83984375Q768.839062500001 202.328125 770.075390625001 201.53125Q771.311718750001 200.734375 772.893750000001 200.734375Q774.112500000001 200.734375 774.862500000001 201.138671875Q775.612500000001 201.54296875 776.028515625001 202.087890625Q776.444531250001 202.6328125 776.667187500001 203.03125H776.807812500001V196.5390625H779.385937500001V214.0H776.878125000001V211.94921875H776.667187500001Q776.432812500001 212.37109375 776.005078125001 212.91015625Q775.577343750001 213.44921875 774.827343750001 213.853515625Q774.077343750001 214.2578125 772.893750000001 214.2578125ZM773.456250000001 212.06640625Q775.096875000001 212.06640625 775.975781250001 210.7890625Q776.854687500001 209.51171875 776.854687500001 207.4609375Q776.854687500001 205.421875 775.987500000001 204.173828125Q775.120312500001 202.92578125 773.456250000001 202.92578125Q772.319531250001 202.92578125 771.563671875001 203.5234375Q770.807812500001 204.12109375 770.426953125001 205.146484375Q770.046093750001 206.171875 770.046093750001 207.4609375Q770.046093750001 208.76171875 770.432812500001 209.8046875Q770.819531250001 210.84765625 771.581250000001 211.45703125Q772.342968750001 212.06640625 773.456250000001 212.06640625Z M787.019531250001 214.1640625Q785.015625000001 214.1640625 783.785156250001 212.904296875Q782.554687500001 211.64453125 782.554687500001 209.21875V200.8984375H785.132812500001V208.90234375Q785.132812500001 210.3203125 785.876953125001 211.1171875Q786.621093750001 211.9140625 787.898437500001 211.9140625Q789.210937500001 211.9140625 790.078125000001 211.064453125Q790.945312500001 210.21484375 790.945312500001 208.65625V200.8984375H793.535156250001V214.0H791.062500000001L791.050781250001 211.45703125Q790.429687500001 212.88671875 789.404296875001 213.525390625Q788.378906250001 214.1640625 787.019531250001 214.1640625Z M802.2000000000011 214.26953125Q800.3484375000011 214.26953125 798.9773437500011 213.42578125Q797.6062500000011 212.58203125 796.8445312500011 211.064453125Q796.0828125000011 209.546875 796.0828125000011 207.51953125Q796.0828125000011 205.48046875 796.8445312500011 203.951171875Q797.6062500000011 202.421875 798.9773437500011 201.578125Q800.3484375000011 200.734375 802.2000000000011 200.734375Q804.2390625000011 200.734375 805.7214843750011 201.759765625Q807.2039062500011 202.78515625 807.6843750000011 204.6015625L805.2351562500011 205.1875Q804.9656250000011 204.16796875 804.1863281250011 203.541015625Q803.4070312500011 202.9140625 802.2117187500011 202.9140625Q801.0281250000011 202.9140625 800.2488281250011 203.53515625Q799.4695312500011 204.15625 799.0886718750011 205.205078125Q798.7078125000011 206.25390625 798.7078125000011 207.51953125Q798.7078125000011 208.7734375 799.0886718750011 209.810546875Q799.4695312500011 210.84765625 800.2488281250011 211.46875Q801.0281250000011 212.08984375 802.2117187500011 212.08984375Q803.4304687500011 212.08984375 804.2273437500011 211.439453125Q805.0242187500011 210.7890625 805.2820312500011 209.72265625L807.7195312500011 210.30859375Q807.2390625000011 212.16015625 805.7507812500011 213.21484375Q804.2625000000011 214.26953125 802.2000000000011 214.26953125Z M813.9117187500011 214.29296875Q812.6578125000011 214.29296875 811.6558593750011 213.830078125Q810.6539062500011 213.3671875 810.0679687500011 212.4765625Q809.4820312500011 211.5859375 809.4820312500011 210.296875Q809.4820312500011 209.18359375 809.9156250000011 208.462890625Q810.3492187500011 207.7421875 811.0757812500011 207.326171875Q811.8023437500011 206.91015625 812.6988281250011 206.69921875Q813.5953125000011 206.48828125 814.5210937500011 206.3828125Q816.2554687500011 206.18359375 817.0406250000011 206.037109375Q817.8257812500011 205.890625 817.8257812500011 205.19921875V205.12890625Q817.8257812500011 204.0390625 817.1871093750011 203.435546875Q816.5484375000011 202.83203125 815.3179687500011 202.83203125Q814.0289062500011 202.83203125 813.2906250000011 203.39453125Q812.5523437500011 203.95703125 812.2828125000011 204.625L809.8570312500011 203.9921875Q810.3023437500011 202.8203125 811.1343750000011 202.10546875Q811.9664062500011 201.390625 813.0386718750011 201.0625Q814.1109375000011 200.734375 815.2828125000011 200.734375Q816.0679687500011 200.734375 816.9585937500011 200.921875Q817.8492187500011 201.109375 818.6343750000011 201.595703125Q819.4195312500011 202.08203125 819.9117187500011 202.984375Q820.4039062500011 203.88671875 820.4039062500011 205.3046875V214.0H817.9078125000011V212.20703125H817.7789062500011Q817.3921875000011 212.98046875 816.4488281250011 213.63671875Q815.5054687500011 214.29296875 813.9117187500011 214.29296875ZM814.4859375000011 212.21875Q815.5289062500011 212.21875 816.2789062500011 211.802734375Q817.0289062500011 211.38671875 817.4332031250011 210.71875Q817.8375000000011 210.05078125 817.8375000000011 209.27734375V207.6015625Q817.6500000000011 207.7890625 817.0347656250011 207.923828125Q816.4195312500011 208.05859375 815.7398437500011 208.15234375Q815.0601562500011 208.24609375 814.6617187500011 208.29296875Q813.5718750000011 208.4453125 812.7925781250011 208.884765625Q812.0132812500011 209.32421875 812.0132812500011 210.33203125Q812.0132812500011 211.26953125 812.7105468750011 211.744140625Q813.4078125000011 212.21875 814.4859375000011 212.21875Z M829.1742187500012 200.8984375V202.99609375H826.5609375000012V210.4609375Q826.5609375000012 211.24609375 826.8949218750012 211.615234375Q827.2289062500012 211.984375 827.9906250000012 211.984375Q828.2015625000012 211.984375 828.5238281250012 211.9375Q828.8460937500012 211.890625 829.0804687500012 211.84375L829.5375000000012 213.90625Q829.1273437500012 214.046875 828.6527343750012 214.111328125Q828.1781250000012 214.17578125 827.7328125000012 214.17578125Q825.9515625000012 214.17578125 824.9671875000012 213.255859375Q823.9828125000012 212.3359375 823.9828125000012 210.671875V202.99609375H822.0726562500012V200.8984375H823.9828125000012V197.78125H826.5609375000012V200.8984375Z M831.4406250000012 214.0V200.8984375H834.0187500000012V214.0ZM832.7414062500012 198.89453125Q832.0734375000012 198.89453125 831.5988281250012 198.44921875Q831.1242187500012 198.00390625 831.1242187500012 197.37109375Q831.1242187500012 196.7265625 831.5988281250012 196.28125Q832.0734375000012 195.8359375 832.7414062500012 195.8359375Q833.4093750000012 195.8359375 833.8898437500012 196.28125Q834.3703125000012 196.7265625 834.3703125000012 197.37109375Q834.3703125000012 198.00390625 833.8898437500012 198.44921875Q833.4093750000012 198.89453125 832.7414062500012 198.89453125Z M842.6953125000013 214.26953125Q840.8554687500013 214.26953125 839.4785156250013 213.42578125Q838.1015625000013 212.58203125 837.3398437500013 211.064453125Q836.5781250000013 209.546875 836.5781250000013 207.51953125Q836.5781250000013 205.48046875 837.3398437500013 203.951171875Q838.1015625000013 202.421875 839.4785156250013 201.578125Q840.8554687500013 200.734375 842.6953125000013 200.734375Q844.5468750000013 200.734375 845.9238281250013 201.578125Q847.3007812500013 202.421875 848.0625000000013 203.951171875Q848.8242187500013 205.48046875 848.8242187500013 207.51953125Q848.8242187500013 209.546875 848.0625000000013 211.064453125Q847.3007812500013 212.58203125 845.9238281250013 213.42578125Q844.5468750000013 214.26953125 842.6953125000013 214.26953125ZM842.6953125000013 212.08984375Q843.8906250000013 212.08984375 844.6699218750013 211.462890625Q845.4492187500013 210.8359375 845.8300781250013 209.798828125Q846.2109375000013 208.76171875 846.2109375000013 207.51953125Q846.2109375000013 206.265625 845.8300781250013 205.216796875Q845.4492187500013 204.16796875 844.6699218750013 203.541015625Q843.8906250000013 202.9140625 842.6953125000013 202.9140625Q841.5117187500013 202.9140625 840.7382812500013 203.541015625Q839.9648437500013 204.16796875 839.5839843750013 205.216796875Q839.2031250000013 206.265625 839.2031250000013 207.51953125Q839.2031250000013 208.76171875 839.5839843750013 209.798828125Q839.9648437500013 210.8359375 840.7382812500013 211.462890625Q841.5117187500013 212.08984375 842.6953125000013 212.08984375Z M853.9617187500013 206.2421875V214.0H851.3835937500013V200.8984375H853.8445312500013L853.8562500000013 203.41796875Q854.4656250000013 202.03515625 855.4910156250013 201.384765625Q856.5164062500013 200.734375 857.8992187500013 200.734375Q859.9031250000013 200.734375 861.1277343750013 201.994140625Q862.3523437500013 203.25390625 862.3523437500013 205.6796875V214.0H859.7742187500013V205.99609375Q859.7742187500013 204.578125 859.0359375000013 203.78125Q858.2976562500013 202.984375 857.0085937500013 202.984375Q855.6960937500013 202.984375 854.8289062500013 203.833984375Q853.9617187500013 204.68359375 853.9617187500013 206.2421875Z M873.5296875000014 207.4375Q872.8031250000014 207.4375 872.2992187500014 206.939453125Q871.7953125000014 206.44140625 871.7953125000014 205.71484375Q871.7953125000014 204.98828125 872.2992187500014 204.484375Q872.8031250000014 203.98046875 873.5296875000014 203.98046875Q874.2562500000014 203.98046875 874.7542968750014 204.484375Q875.2523437500014 204.98828125 875.2523437500014 205.71484375Q875.2523437500014 206.44140625 874.7542968750014 206.939453125Q874.2562500000014 207.4375 873.5296875000014 207.4375Z M889.3945312500015 214.26953125Q887.2617187500015 214.26953125 885.8613281250015 213.349609375Q884.4609375000015 212.4296875 884.1093750000015 210.68359375L886.5351562500015 210.1796875Q887.0625000000015 212.18359375 889.4179687500015 212.18359375Q890.6718750000015 212.18359375 891.4042968750015 211.662109375Q892.1367187500015 211.140625 892.1367187500015 210.4140625Q892.1367187500015 209.171875 890.2968750000015 208.76171875L888.0937500000015 208.2578125Q884.4843750000015 207.44921875 884.4843750000015 204.63671875Q884.4843750000015 203.46484375 885.1347656250015 202.5859375Q885.7851562500015 201.70703125 886.9277343750015 201.220703125Q888.0703125000015 200.734375 889.5585937500015 200.734375Q891.6796875000015 200.734375 892.8867187500015 201.642578125Q894.0937500000015 202.55078125 894.5156250000015 204.00390625L892.2070312500015 204.5078125Q891.9609375000015 203.81640625 891.3515625000015 203.294921875Q890.7421875000015 202.7734375 889.5820312500015 202.7734375Q888.5156250000015 202.7734375 887.8007812500015 203.25390625Q887.0859375000015 203.734375 887.0859375000015 204.47265625Q887.0859375000015 205.12890625 887.5605468750015 205.533203125Q888.0351562500015 205.9375 889.1132812500015 206.18359375L891.2226562500015 206.65234375Q894.7968750000015 207.4609375 894.7968750000015 210.19140625Q894.7968750000015 211.38671875 894.1113281250015 212.306640625Q893.4257812500015 213.2265625 892.2070312500015 213.748046875Q890.9882812500015 214.26953125 889.3945312500015 214.26953125Z M900.9890625000015 214.29296875Q899.7351562500015 214.29296875 898.7332031250015 213.830078125Q897.7312500000015 213.3671875 897.1453125000015 212.4765625Q896.5593750000015 211.5859375 896.5593750000015 210.296875Q896.5593750000015 209.18359375 896.9929687500015 208.462890625Q897.4265625000015 207.7421875 898.1531250000015 207.326171875Q898.8796875000015 206.91015625 899.7761718750015 206.69921875Q900.6726562500015 206.48828125 901.5984375000015 206.3828125Q903.3328125000015 206.18359375 904.1179687500015 206.037109375Q904.9031250000015 205.890625 904.9031250000015 205.19921875V205.12890625Q904.9031250000015 204.0390625 904.2644531250015 203.435546875Q903.6257812500015 202.83203125 902.3953125000015 202.83203125Q901.1062500000015 202.83203125 900.3679687500015 203.39453125Q899.6296875000015 203.95703125 899.3601562500015 204.625L896.9343750000015 203.9921875Q897.3796875000015 202.8203125 898.2117187500015 202.10546875Q899.0437500000015 201.390625 900.1160156250015 201.0625Q901.1882812500015 200.734375 902.3601562500015 200.734375Q903.1453125000015 200.734375 904.0359375000015 200.921875Q904.9265625000015 201.109375 905.7117187500015 201.595703125Q906.4968750000015 202.08203125 906.9890625000015 202.984375Q907.4812500000015 203.88671875 907.4812500000015 205.3046875V214.0H904.9851562500015V212.20703125H904.8562500000015Q904.4695312500015 212.98046875 903.5261718750015 213.63671875Q902.5828125000015 214.29296875 900.9890625000015 214.29296875ZM901.5632812500015 212.21875Q902.6062500000015 212.21875 903.3562500000015 211.802734375Q904.1062500000015 211.38671875 904.5105468750015 210.71875Q904.9148437500015 210.05078125 904.9148437500015 209.27734375V207.6015625Q904.7273437500015 207.7890625 904.1121093750015 207.923828125Q903.4968750000015 208.05859375 902.8171875000015 208.15234375Q902.1375000000015 208.24609375 901.7390625000015 208.29296875Q900.6492187500015 208.4453125 899.8699218750015 208.884765625Q899.0906250000015 209.32421875 899.0906250000015 210.33203125Q899.0906250000015 211.26953125 899.7878906250015 211.744140625Q900.4851562500015 212.21875 901.5632812500015 212.21875Z M917.1421875000016 200.8984375V202.99609375H914.2125000000016V214.0H911.6343750000016V202.99609375H909.1500000000016V200.8984375H911.6343750000016V199.3984375Q911.6343750000016 198.1796875 912.1792968750016 197.359375Q912.7242187500016 196.5390625 913.6089843750016 196.12890625Q914.4937500000016 195.71875 915.5367187500016 195.71875Q916.3101562500016 195.71875 916.8667968750016 195.841796875Q917.4234375000016 195.96484375 917.6929687500016 196.0703125L917.0953125000016 198.15625Q916.9078125000016 198.109375 916.6265625000016 198.0390625Q916.3453125000016 197.96875 915.9468750000016 197.96875Q915.0210937500016 197.96875 914.6167968750016 198.42578125Q914.2125000000016 198.8828125 914.2125000000016 199.75V200.8984375Z M925.1039062500016 214.26953125Q923.1703125000016 214.26953125 921.7640625000016 213.4375Q920.3578125000016 212.60546875 919.6019531250016 211.09375Q918.8460937500016 209.58203125 918.8460937500016 207.54296875Q918.8460937500016 205.52734375 919.5902343750016 203.9921875Q920.3343750000016 202.45703125 921.6937500000016 201.595703125Q923.0531250000016 200.734375 924.8812500000016 200.734375Q926.3695312500016 200.734375 927.7113281250016 201.396484375Q929.0531250000016 202.05859375 929.8910156250016 203.505859375Q930.7289062500016 204.953125 930.7289062500016 207.3203125V208.234375H921.4359375000016Q921.5062500000016 210.1328125 922.5140625000016 211.134765625Q923.5218750000016 212.13671875 925.1273437500016 212.13671875Q926.2054687500016 212.13671875 926.9847656250016 211.66796875Q927.7640625000016 211.19921875 928.1039062500016 210.28515625L930.5296875000016 210.859375Q930.0609375000016 212.39453125 928.6312500000016 213.33203125Q927.2015625000016 214.26953125 925.1039062500016 214.26953125ZM921.4476562500016 206.3125H928.1742187500016Q928.0335937500016 204.765625 927.2074218750016 203.81640625Q926.3812500000016 202.8671875 924.8929687500016 202.8671875Q923.3460937500016 202.8671875 922.4496093750016 203.880859375Q921.5531250000016 204.89453125 921.4476562500016 206.3125Z M938.8546875000017 200.8984375V202.99609375H936.2414062500017V210.4609375Q936.2414062500017 211.24609375 936.5753906250017 211.615234375Q936.9093750000017 211.984375 937.6710937500017 211.984375Q937.8820312500017 211.984375 938.2042968750017 211.9375Q938.5265625000017 211.890625 938.7609375000017 211.84375L939.2179687500017 213.90625Q938.8078125000017 214.046875 938.3332031250017 214.111328125Q937.8585937500017 214.17578125 937.4132812500017 214.17578125Q935.6320312500017 214.17578125 934.6476562500017 213.255859375Q933.6632812500017 212.3359375 933.6632812500017 210.671875V202.99609375H931.7531250000017V200.8984375H933.6632812500017V197.78125H936.2414062500017V200.8984375Z M940.9453125000017 218.7109375 941.5781250000017 216.61328125 941.8710937500017 216.68359375Q942.8671875000017 216.953125 943.5644531250017 216.619140625Q944.2617187500017 216.28515625 944.6250000000017 215.01953125L944.9062500000017 214.05859375L939.9257812500017 200.8984375H942.7148437500017L945.3046875000017 208.33984375Q945.5976562500017 209.20703125 945.8203125000017 210.05078125Q946.0429687500017 210.89453125 946.2539062500017 211.73828125Q946.4765625000017 210.89453125 946.7109375000017 210.044921875Q946.9453125000017 209.1953125 947.2500000000017 208.33984375L949.8867187500017 200.8984375H952.6523437500017L946.9570312500017 215.81640625Q946.3593750000017 217.38671875 945.3457031250017 218.189453125Q944.3320312500017 218.9921875 942.7500000000017 218.9921875Q942.1406250000017 218.9921875 941.6660156250017 218.904296875Q941.1914062500017 218.81640625 940.9453125000017 218.7109375Z M962.6343750000018 207.4375Q961.9078125000018 207.4375 961.4039062500018 206.939453125Q960.9000000000018 206.44140625 960.9000000000018 205.71484375Q960.9000000000018 204.98828125 961.4039062500018 204.484375Q961.9078125000018 203.98046875 962.6343750000018 203.98046875Q963.3609375000018 203.98046875 963.8589843750018 204.484375Q964.3570312500018 204.98828125 964.3570312500018 205.71484375Q964.3570312500018 206.44140625 963.8589843750018 206.939453125Q963.3609375000018 207.4375 962.6343750000018 207.4375Z M973.8000000000019 214.0V200.8984375H976.3781250000019V214.0ZM975.1007812500019 198.89453125Q974.4328125000019 198.89453125 973.9582031250019 198.44921875Q973.4835937500019 198.00390625 973.4835937500019 197.37109375Q973.4835937500019 196.7265625 973.9582031250019 196.28125Q974.4328125000019 195.8359375 975.1007812500019 195.8359375Q975.7687500000019 195.8359375 976.2492187500019 196.28125Q976.7296875000019 196.7265625 976.7296875000019 197.37109375Q976.7296875000019 198.00390625 976.2492187500019 198.44921875Q975.7687500000019 198.89453125 975.1007812500019 198.89453125Z M982.1250000000019 206.2421875V214.0H979.5468750000019V200.8984375H982.0078125000019L982.0195312500019 203.41796875Q982.6289062500019 202.03515625 983.6542968750019 201.384765625Q984.6796875000019 200.734375 986.0625000000019 200.734375Q988.0664062500019 200.734375 989.2910156250019 201.994140625Q990.5156250000019 203.25390625 990.5156250000019 205.6796875V214.0H987.9375000000019V205.99609375Q987.9375000000019 204.578125 987.1992187500019 203.78125Q986.4609375000019 202.984375 985.1718750000019 202.984375Q983.8593750000019 202.984375 982.9921875000019 203.833984375Q982.1250000000019 204.68359375 982.1250000000019 206.2421875Z M999.285937500002 200.8984375V202.99609375H996.672656250002V210.4609375Q996.672656250002 211.24609375 997.006640625002 211.615234375Q997.340625000002 211.984375 998.102343750002 211.984375Q998.313281250002 211.984375 998.635546875002 211.9375Q998.957812500002 211.890625 999.192187500002 211.84375L999.649218750002 213.90625Q999.239062500002 214.046875 998.764453125002 214.111328125Q998.289843750002 214.17578125 997.844531250002 214.17578125Q996.063281250002 214.17578125 995.078906250002 213.255859375Q994.094531250002 212.3359375 994.094531250002 210.671875V202.99609375H992.184375000002V200.8984375H994.094531250002V197.78125H996.672656250002V200.8984375Z M1007.200781250002 214.26953125Q1005.267187500002 214.26953125 1003.860937500002 213.4375Q1002.454687500002 212.60546875 1001.698828125002 211.09375Q1000.942968750002 209.58203125 1000.942968750002 207.54296875Q1000.942968750002 205.52734375 1001.687109375002 203.9921875Q1002.431250000002 202.45703125 1003.790625000002 201.595703125Q1005.150000000002 200.734375 1006.978125000002 200.734375Q1008.466406250002 200.734375 1009.808203125002 201.396484375Q1011.150000000002 202.05859375 1011.987890625002 203.505859375Q1012.825781250002 204.953125 1012.825781250002 207.3203125V208.234375H1003.532812500002Q1003.603125000002 210.1328125 1004.610937500002 211.134765625Q1005.618750000002 212.13671875 1007.224218750002 212.13671875Q1008.302343750002 212.13671875 1009.081640625002 211.66796875Q1009.860937500002 211.19921875 1010.200781250002 210.28515625L1012.626562500002 210.859375Q1012.157812500002 212.39453125 1010.728125000002 213.33203125Q1009.298437500002 214.26953125 1007.200781250002 214.26953125ZM1003.544531250002 206.3125H1010.271093750002Q1010.130468750002 204.765625 1009.304296875002 203.81640625Q1008.478125000002 202.8671875 1006.989843750002 202.8671875Q1005.442968750002 202.8671875 1004.546484375002 203.880859375Q1003.650000000002 204.89453125 1003.544531250002 206.3125Z M1017.9281250000021 196.5390625V214.0H1015.3500000000021V196.5390625Z M1023.6750000000021 196.5390625V214.0H1021.0968750000021V196.5390625Z M1026.843750000002 214.0V200.8984375H1029.421875000002V214.0ZM1028.144531250002 198.89453125Q1027.476562500002 198.89453125 1027.001953125002 198.44921875Q1026.527343750002 198.00390625 1026.527343750002 197.37109375Q1026.527343750002 196.7265625 1027.001953125002 196.28125Q1027.476562500002 195.8359375 1028.144531250002 195.8359375Q1028.812500000002 195.8359375 1029.292968750002 196.28125Q1029.773437500002 196.7265625 1029.773437500002 197.37109375Q1029.773437500002 198.00390625 1029.292968750002 198.44921875Q1028.812500000002 198.89453125 1028.144531250002 198.89453125Z M1038.075000000002 219.1796875Q1035.801562500002 219.1796875 1034.430468750002 218.34765625Q1033.059375000002 217.515625 1032.508593750002 216.33203125L1034.664843750002 215.3125Q1034.899218750002 215.6875 1035.291796875002 216.103515625Q1035.684375000002 216.51953125 1036.346484375002 216.8125Q1037.008593750002 217.10546875 1038.063281250002 217.10546875Q1039.551562500002 217.10546875 1040.489062500002 216.396484375Q1041.426562500002 215.6875 1041.426562500002 214.17578125V211.62109375H1041.203906250002Q1040.969531250002 212.0546875 1040.553515625002 212.55859375Q1040.137500000002 213.0625 1039.393359375002 213.431640625Q1038.649218750002 213.80078125 1037.453906250002 213.80078125Q1035.907031250002 213.80078125 1034.670703125002 213.07421875Q1033.434375000002 212.34765625 1032.707812500002 210.923828125Q1031.981250000002 209.5 1031.981250000002 207.40234375Q1031.981250000002 205.31640625 1032.701953125002 203.822265625Q1033.422656250002 202.328125 1034.664843750002 201.53125Q1035.907031250002 200.734375 1037.489062500002 200.734375Q1038.696093750002 200.734375 1039.451953125002 201.138671875Q1040.207812500002 201.54296875 1040.635546875002 202.08203125Q1041.063281250002 202.62109375 1041.285937500002 203.03125H1041.473437500002V200.8984375H1043.992968750002V214.1875Q1043.992968750002 215.91015625 1043.207812500002 217.01171875Q1042.422656250002 218.11328125 1041.086718750002 218.646484375Q1039.750781250002 219.1796875 1038.075000000002 219.1796875ZM1038.051562500002 211.65625Q1039.692187500002 211.65625 1040.565234375002 210.51953125Q1041.438281250002 209.3828125 1041.438281250002 207.3671875Q1041.438281250002 205.3984375 1040.576953125002 204.162109375Q1039.715625000002 202.92578125 1038.051562500002 202.92578125Q1036.914843750002 202.92578125 1036.147265625002 203.517578125Q1035.379687500002 204.109375 1034.998828125002 205.111328125Q1034.617968750002 206.11328125 1034.617968750002 207.3671875Q1034.617968750002 209.2890625 1035.491015625002 210.47265625Q1036.364062500002 211.65625 1038.051562500002 211.65625Z M1052.8101562500021 214.26953125Q1050.8765625000021 214.26953125 1049.4703125000021 213.4375Q1048.0640625000021 212.60546875 1047.3082031250021 211.09375Q1046.5523437500021 209.58203125 1046.5523437500021 207.54296875Q1046.5523437500021 205.52734375 1047.2964843750021 203.9921875Q1048.0406250000021 202.45703125 1049.4000000000021 201.595703125Q1050.7593750000021 200.734375 1052.5875000000021 200.734375Q1054.0757812500021 200.734375 1055.4175781250021 201.396484375Q1056.7593750000021 202.05859375 1057.5972656250021 203.505859375Q1058.4351562500021 204.953125 1058.4351562500021 207.3203125V208.234375H1049.1421875000021Q1049.2125000000021 210.1328125 1050.2203125000021 211.134765625Q1051.2281250000021 212.13671875 1052.8335937500021 212.13671875Q1053.9117187500021 212.13671875 1054.6910156250021 211.66796875Q1055.4703125000021 211.19921875 1055.8101562500021 210.28515625L1058.2359375000021 210.859375Q1057.7671875000021 212.39453125 1056.3375000000021 213.33203125Q1054.9078125000021 214.26953125 1052.8101562500021 214.26953125ZM1049.1539062500021 206.3125H1055.8804687500021Q1055.7398437500021 204.765625 1054.9136718750021 203.81640625Q1054.0875000000021 202.8671875 1052.5992187500021 202.8671875Q1051.0523437500021 202.8671875 1050.1558593750021 203.880859375Q1049.2593750000021 204.89453125 1049.1539062500021 206.3125Z M1063.5375000000022 206.2421875V214.0H1060.9593750000022V200.8984375H1063.4203125000022L1063.4320312500022 203.41796875Q1064.0414062500022 202.03515625 1065.0667968750022 201.384765625Q1066.0921875000022 200.734375 1067.4750000000022 200.734375Q1069.4789062500022 200.734375 1070.7035156250022 201.994140625Q1071.9281250000022 203.25390625 1071.9281250000022 205.6796875V214.0H1069.3500000000022V205.99609375Q1069.3500000000022 204.578125 1068.6117187500022 203.78125Q1067.8734375000022 202.984375 1066.5843750000022 202.984375Q1065.2718750000022 202.984375 1064.4046875000022 203.833984375Q1063.5375000000022 204.68359375 1063.5375000000022 206.2421875Z M1080.6984375000022 200.8984375V202.99609375H1078.0851562500022V210.4609375Q1078.0851562500022 211.24609375 1078.4191406250022 211.615234375Q1078.7531250000022 211.984375 1079.5148437500022 211.984375Q1079.7257812500022 211.984375 1080.0480468750022 211.9375Q1080.3703125000022 211.890625 1080.6046875000022 211.84375L1081.0617187500022 213.90625Q1080.6515625000022 214.046875 1080.1769531250022 214.111328125Q1079.7023437500022 214.17578125 1079.2570312500022 214.17578125Q1077.4757812500022 214.17578125 1076.4914062500022 213.255859375Q1075.5070312500022 212.3359375 1075.5070312500022 210.671875V202.99609375H1073.5968750000022V200.8984375H1075.5070312500022V197.78125H1078.0851562500022V200.8984375Z M1092.7312500000023 214.29296875Q1091.4773437500023 214.29296875 1090.4753906250023 213.830078125Q1089.4734375000023 213.3671875 1088.8875000000023 212.4765625Q1088.3015625000023 211.5859375 1088.3015625000023 210.296875Q1088.3015625000023 209.18359375 1088.7351562500023 208.462890625Q1089.1687500000023 207.7421875 1089.8953125000023 207.326171875Q1090.6218750000023 206.91015625 1091.5183593750023 206.69921875Q1092.4148437500023 206.48828125 1093.3406250000023 206.3828125Q1095.0750000000023 206.18359375 1095.8601562500023 206.037109375Q1096.6453125000023 205.890625 1096.6453125000023 205.19921875V205.12890625Q1096.6453125000023 204.0390625 1096.0066406250023 203.435546875Q1095.3679687500023 202.83203125 1094.1375000000023 202.83203125Q1092.8484375000023 202.83203125 1092.1101562500023 203.39453125Q1091.3718750000023 203.95703125 1091.1023437500023 204.625L1088.6765625000023 203.9921875Q1089.1218750000023 202.8203125 1089.9539062500023 202.10546875Q1090.7859375000023 201.390625 1091.8582031250023 201.0625Q1092.9304687500023 200.734375 1094.1023437500023 200.734375Q1094.8875000000023 200.734375 1095.7781250000023 200.921875Q1096.6687500000023 201.109375 1097.4539062500023 201.595703125Q1098.2390625000023 202.08203125 1098.7312500000023 202.984375Q1099.2234375000023 203.88671875 1099.2234375000023 205.3046875V214.0H1096.7273437500023V212.20703125H1096.5984375000023Q1096.2117187500023 212.98046875 1095.2683593750023 213.63671875Q1094.3250000000023 214.29296875 1092.7312500000023 214.29296875ZM1093.3054687500023 212.21875Q1094.3484375000023 212.21875 1095.0984375000023 211.802734375Q1095.8484375000023 211.38671875 1096.2527343750023 210.71875Q1096.6570312500023 210.05078125 1096.6570312500023 209.27734375V207.6015625Q1096.4695312500023 207.7890625 1095.8542968750023 207.923828125Q1095.2390625000023 208.05859375 1094.5593750000023 208.15234375Q1093.8796875000023 208.24609375 1093.4812500000023 208.29296875Q1092.3914062500023 208.4453125 1091.6121093750023 208.884765625Q1090.8328125000023 209.32421875 1090.8328125000023 210.33203125Q1090.8328125000023 211.26953125 1091.5300781250023 211.744140625Q1092.2273437500023 212.21875 1093.3054687500023 212.21875Z M1102.3921875000024 218.8984375V200.8984375H1104.9000000000024V203.03125H1105.1109375000024Q1105.3335937500024 202.6328125 1105.7496093750024 202.087890625Q1106.1656250000024 201.54296875 1106.9156250000024 201.138671875Q1107.6656250000024 200.734375 1108.8960937500024 200.734375Q1110.4664062500024 200.734375 1111.7027343750024 201.53125Q1112.9390625000024 202.328125 1113.6539062500024 203.83984375Q1114.3687500000024 205.3515625 1114.3687500000024 207.484375Q1114.3687500000024 209.59375 1113.6656250000024 211.1171875Q1112.9625000000024 212.640625 1111.7261718750024 213.44921875Q1110.4898437500024 214.2578125 1108.8960937500024 214.2578125Q1107.7007812500024 214.2578125 1106.9507812500024 213.853515625Q1106.2007812500024 213.44921875 1105.7730468750024 212.91015625Q1105.3453125000024 212.37109375 1105.1109375000024 211.94921875H1104.9703125000024V218.8984375ZM1108.3218750000024 212.06640625Q1109.4468750000024 212.06640625 1110.2027343750024 211.45703125Q1110.9585937500024 210.84765625 1111.3453125000024 209.8046875Q1111.7320312500024 208.76171875 1111.7320312500024 207.4609375Q1111.7320312500024 206.171875 1111.3511718750024 205.146484375Q1110.9703125000024 204.12109375 1110.2144531250024 203.5234375Q1109.4585937500024 202.92578125 1108.3218750000024 202.92578125Q1106.6578125000024 202.92578125 1105.7906250000024 204.173828125Q1104.9234375000024 205.421875 1104.9234375000024 207.4609375Q1104.9234375000024 209.51171875 1105.8023437500024 210.7890625Q1106.6812500000024 212.06640625 1108.3218750000024 212.06640625Z M1116.9281250000024 218.8984375V200.8984375H1119.4359375000024V203.03125H1119.6468750000024Q1119.8695312500024 202.6328125 1120.2855468750024 202.087890625Q1120.7015625000024 201.54296875 1121.4515625000024 201.138671875Q1122.2015625000024 200.734375 1123.4320312500024 200.734375Q1125.0023437500024 200.734375 1126.2386718750024 201.53125Q1127.4750000000024 202.328125 1128.1898437500024 203.83984375Q1128.9046875000024 205.3515625 1128.9046875000024 207.484375Q1128.9046875000024 209.59375 1128.2015625000024 211.1171875Q1127.4984375000024 212.640625 1126.2621093750024 213.44921875Q1125.0257812500024 214.2578125 1123.4320312500024 214.2578125Q1122.2367187500024 214.2578125 1121.4867187500024 213.853515625Q1120.7367187500024 213.44921875 1120.3089843750024 212.91015625Q1119.8812500000024 212.37109375 1119.6468750000024 211.94921875H1119.5062500000024V218.8984375ZM1122.8578125000024 212.06640625Q1123.9828125000024 212.06640625 1124.7386718750024 211.45703125Q1125.4945312500024 210.84765625 1125.8812500000024 209.8046875Q1126.2679687500024 208.76171875 1126.2679687500024 207.4609375Q1126.2679687500024 206.171875 1125.8871093750024 205.146484375Q1125.5062500000024 204.12109375 1124.7503906250024 203.5234375Q1123.9945312500024 202.92578125 1122.8578125000024 202.92578125Q1121.1937500000024 202.92578125 1120.3265625000024 204.173828125Q1119.4593750000024 205.421875 1119.4593750000024 207.4609375Q1119.4593750000024 209.51171875 1120.3382812500024 210.7890625Q1121.2171875000024 212.06640625 1122.8578125000024 212.06640625Z M1136.1632812500025 214.26953125Q1134.0304687500025 214.26953125 1132.6300781250025 213.349609375Q1131.2296875000025 212.4296875 1130.8781250000025 210.68359375L1133.3039062500025 210.1796875Q1133.8312500000025 212.18359375 1136.1867187500025 212.18359375Q1137.4406250000025 212.18359375 1138.1730468750025 211.662109375Q1138.9054687500025 211.140625 1138.9054687500025 210.4140625Q1138.9054687500025 209.171875 1137.0656250000025 208.76171875L1134.8625000000025 208.2578125Q1131.2531250000025 207.44921875 1131.2531250000025 204.63671875Q1131.2531250000025 203.46484375 1131.9035156250025 202.5859375Q1132.5539062500025 201.70703125 1133.6964843750025 201.220703125Q1134.8390625000025 200.734375 1136.3273437500025 200.734375Q1138.4484375000025 200.734375 1139.6554687500025 201.642578125Q1140.8625000000025 202.55078125 1141.2843750000025 204.00390625L1138.9757812500025 204.5078125Q1138.7296875000025 203.81640625 1138.1203125000025 203.294921875Q1137.5109375000025 202.7734375 1136.3507812500025 202.7734375Q1135.2843750000025 202.7734375 1134.5695312500025 203.25390625Q1133.8546875000025 203.734375 1133.8546875000025 204.47265625Q1133.8546875000025 205.12890625 1134.3292968750025 205.533203125Q1134.8039062500025 205.9375 1135.8820312500025 206.18359375L1137.9914062500025 206.65234375Q1141.5656250000025 207.4609375 1141.5656250000025 210.19140625Q1141.5656250000025 211.38671875 1140.8800781250025 212.306640625Q1140.1945312500025 213.2265625 1138.9757812500025 213.748046875Q1137.7570312500025 214.26953125 1136.1632812500025 214.26953125Z" fill="#FAF6EE"/>
    <path d="M361.25 262.0V251.08203125H363.96484375L364.08203125 253.201171875Q364.521484375 252.009765625 365.37109375 251.462890625Q366.220703125 250.916015625 367.197265625 250.916015625Q369.267578125 250.916015625 370.009765625 253.3671875Q370.46875 252.107421875 371.4306640625 251.51171875Q372.392578125 250.916015625 373.515625 250.916015625Q375.01953125 250.916015625 376.0107421875 251.8876953125Q377.001953125 252.859375 377.001953125 254.63671875V262.0H374.0625V255.193359375Q374.0625 254.275390625 373.564453125 253.8212890625Q373.06640625 253.3671875 372.333984375 253.3671875Q371.50390625 253.3671875 371.0205078125 253.89453125Q370.537109375 254.421875 370.537109375 255.28125V262.0H367.705078125V255.115234375Q367.705078125 254.314453125 367.2314453125 253.8408203125Q366.7578125 253.3671875 366.005859375 253.3671875Q365.234375 253.3671875 364.70703125 253.8896484375Q364.1796875 254.412109375 364.1796875 255.3984375V262.0Z M384.931640625 255.681640625V262.0H382.001953125V247.44921875H384.873046875V253.171875Q385.3515625 252.107421875 386.171875 251.5263671875Q386.9921875 250.9453125 388.203125 250.9453125Q389.90234375 250.9453125 390.9326171875 252.0390625Q391.962890625 253.1328125 391.962890625 255.056640625V262.0H389.0234375V255.564453125Q389.0234375 254.548828125 388.5009765625 253.97265625Q387.978515625 253.396484375 387.05078125 253.396484375Q386.11328125 253.396484375 385.5224609375 253.9970703125Q384.931640625 254.59765625 384.931640625 255.681640625Z M399.8828125 247.44921875V262.0H396.953125V247.44921875Z M404.609375 259.412109375V257.05859375L410.693359375 247.44921875H414.43359375V257.009765625H416.25V259.412109375H414.43359375V262.0H411.572265625V259.412109375ZM411.630859375 257.009765625V250.73046875H411.513671875L407.6171875 256.892578125V257.009765625Z M420.859375 262.0V259.8515625L426.015625 255.017578125Q427.001953125 254.05078125 427.5341796875 253.3330078125Q428.06640625 252.615234375 428.06640625 251.736328125Q428.06640625 250.759765625 427.4267578125 250.1982421875Q426.787109375 249.63671875 425.810546875 249.63671875Q424.794921875 249.63671875 424.1845703125 250.2421875Q423.57421875 250.84765625 423.57421875 251.912109375H420.72265625Q420.72265625 250.49609375 421.3720703125 249.4462890625Q422.021484375 248.396484375 423.173828125 247.8251953125Q424.326171875 247.25390625 425.830078125 247.25390625Q427.373046875 247.25390625 428.525390625 247.8056640625Q429.677734375 248.357421875 430.3173828125 249.32421875Q430.95703125 250.291015625 430.95703125 251.55078125Q430.95703125 252.361328125 430.6396484375 253.15234375Q430.322265625 253.943359375 429.5068359375 254.9248046875Q428.69140625 255.90625 427.197265625 257.2734375L425.0 259.44140625V259.548828125H431.15234375V262.0Z M438.0859375 262.185546875Q437.373046875 262.185546875 436.884765625 261.7021484375Q436.396484375 261.21875 436.396484375 260.505859375Q436.396484375 259.79296875 436.884765625 259.3095703125Q437.373046875 258.826171875 438.0859375 258.826171875Q438.798828125 258.826171875 439.287109375 259.3095703125Q439.775390625 259.79296875 439.775390625 260.505859375Q439.775390625 261.21875 439.287109375 261.7021484375Q438.798828125 262.185546875 438.0859375 262.185546875Z M448.22265625 262.21484375Q446.66015625 262.21484375 445.625 261.3896484375Q444.58984375 260.564453125 444.58984375 258.943359375Q444.58984375 257.72265625 445.17578125 257.029296875Q445.76171875 256.3359375 446.69921875 256.013671875Q447.63671875 255.69140625 448.7109375 255.59375Q450.1171875 255.45703125 450.7373046875 255.3056640625Q451.357421875 255.154296875 451.357421875 254.6171875V254.568359375Q451.357421875 253.875 450.9130859375 253.494140625Q450.46875 253.11328125 449.6484375 253.11328125Q448.798828125 253.11328125 448.28125 253.4794921875Q447.763671875 253.845703125 447.587890625 254.373046875L444.90234375 253.923828125Q445.322265625 252.5078125 446.5771484375 251.7265625Q447.83203125 250.9453125 449.658203125 250.9453125Q450.830078125 250.9453125 451.8896484375 251.31640625Q452.94921875 251.6875 453.6181640625 252.5029296875Q454.287109375 253.318359375 454.287109375 254.646484375V262.0H451.513671875V260.486328125H451.416015625Q451.015625 261.248046875 450.224609375 261.7314453125Q449.43359375 262.21484375 448.22265625 262.21484375ZM449.052734375 260.154296875Q450.078125 260.154296875 450.7275390625 259.55859375Q451.376953125 258.962890625 451.376953125 258.09375V256.912109375Q451.201171875 257.0390625 450.8056640625 257.1318359375Q450.41015625 257.224609375 449.970703125 257.2978515625Q449.53125 257.37109375 449.208984375 257.41015625Q448.3984375 257.52734375 447.900390625 257.869140625Q447.40234375 258.2109375 447.40234375 258.865234375Q447.40234375 259.5 447.8662109375 259.8271484375Q448.330078125 260.154296875 449.052734375 260.154296875Z M459.287109375 262.0V251.08203125H462.216796875V262.0ZM460.751953125 249.65625Q460.087890625 249.65625 459.619140625 249.216796875Q459.150390625 248.77734375 459.150390625 248.15234375Q459.150390625 247.52734375 459.619140625 247.087890625Q460.087890625 246.6484375 460.751953125 246.6484375Q461.416015625 246.6484375 461.8896484375 247.087890625Q462.36328125 247.52734375 462.36328125 248.15234375Q462.36328125 248.77734375 461.8896484375 249.216796875Q461.416015625 249.65625 460.751953125 249.65625Z" fill="#F5C518"/>
  </g>

</svg>
