<?xml version="1.0" encoding="UTF-8"?>
<svg xmlns="http://www.w3.org/2000/svg" viewBox="0 0 1200 630" preserveAspectRatio="xMidYMid meet">
  <rect width="100%" height="100%" fill="#FAF6EE"/>

  <defs>
    <pattern id="dots" width="24" height="24" patternUnits="userSpaceOnUse">
      <circle cx="2" cy="2" r="1.2" fill="rgba(14,17,22,0.07)"/>
    </pattern>
  </defs>
  <rect width="1200" height="630" fill="url(#dots)"/>
  <g transform="translate(80,135) scale(1.6)">
    <rect x="20" y="20" width="200" height="200" rx="20" fill="none" stroke="#0E1116" stroke-width="6"/>
  <path d="M41.380859375 60.376953125V57.08203125L49.8984375 43.62890625H55.134765625V57.013671875H57.677734375V60.376953125H55.134765625V64.0H51.12890625V60.376953125ZM51.2109375 57.013671875V48.22265625H51.046875L45.591796875 56.849609375V57.013671875Z M60.130859375 64.0V60.9921875L67.349609375 54.224609375Q68.73046875 52.87109375 69.4755859375 51.8662109375Q70.220703125 50.861328125 70.220703125 49.630859375Q70.220703125 48.263671875 69.3251953125 47.4775390625Q68.4296875 46.69140625 67.0625 46.69140625Q65.640625 46.69140625 64.7861328125 47.5390625Q63.931640625 48.38671875 63.931640625 49.876953125H59.939453125Q59.939453125 47.89453125 60.8486328125 46.4248046875Q61.7578125 44.955078125 63.37109375 44.1552734375Q64.984375 43.35546875 67.08984375 43.35546875Q69.25 43.35546875 70.86328125 44.1279296875Q72.4765625 44.900390625 73.3720703125 46.25390625Q74.267578125 47.607421875 74.267578125 49.37109375Q74.267578125 50.505859375 73.8232421875 51.61328125Q73.37890625 52.720703125 72.2373046875 54.0947265625Q71.095703125 55.46875 69.00390625 57.3828125L65.927734375 60.41796875V60.568359375H74.541015625V64.0Z" fill="#0E1116"/>
  <circle cx="200" cy="48" r="6" fill="#F5C518"/>
  <path d="M37.23828125 148.0V89.796875H58.72265625L66.14453125 112.453125Q66.73046875 114.4453125 67.4921875 117.6484375Q68.25390625 120.8515625 69.03515625 124.5625Q69.81640625 128.2734375 70.51953125 131.75Q71.18359375 128.2734375 71.9453125 124.58203125Q72.70703125 120.890625 73.46875 117.66796875Q74.23046875 114.4453125 74.81640625 112.453125L82.12109375 89.796875H103.64453125V148.0H89.77734375V122.921875Q89.77734375 120.6953125 89.875 117.08203125Q89.97265625 113.46875 90.08984375 109.25Q90.20703125 105.03125 90.28515625 101.125Q89.30859375 105.265625 88.234375 109.4453125Q87.16015625 113.625 86.18359375 117.16015625Q85.20703125 120.6953125 84.50390625 122.921875L76.22265625 148.0H64.69921875L56.30078125 122.921875Q55.63671875 120.7734375 54.66015625 117.375Q53.68359375 113.9765625 52.609375 109.93359375Q51.53515625 105.890625 50.55859375 101.7890625Q50.63671875 105.6171875 50.75390625 109.6796875Q50.87109375 113.7421875 50.96875 117.23828125Q51.06640625 120.734375 51.06640625 122.921875V148.0Z M109.70703125 148.0V89.796875H123.49609375V112.6484375H146.73828125V89.796875H160.48828125V148.0H146.73828125V123.8984375H123.49609375V148.0Z M166.58984375 148.0V89.796875H180.37890625V136.75H204.71484375V148.0Z" fill="#0E1116"/>
  </g>
  <g>
    <path d="M493.8515625 240.0V190.52734375H512.11328125L518.421875 209.78515625Q518.919921875 211.478515625 519.5673828125 214.201171875Q520.21484375 216.923828125 520.87890625 220.078125Q521.54296875 223.232421875 522.140625 226.1875Q522.705078125 223.232421875 523.3525390625 220.0947265625Q524.0 216.95703125 524.6474609375 214.2177734375Q525.294921875 211.478515625 525.79296875 209.78515625L532.001953125 190.52734375H550.296875V240.0H538.509765625V218.68359375Q538.509765625 216.791015625 538.5927734375 213.7197265625Q538.67578125 210.6484375 538.775390625 207.0625Q538.875 203.4765625 538.94140625 200.15625Q538.111328125 203.67578125 537.1982421875 207.228515625Q536.28515625 210.78125 535.455078125 213.7861328125Q534.625 216.791015625 534.02734375 218.68359375L526.98828125 240.0H517.193359375L510.0546875 218.68359375Q509.490234375 216.857421875 508.66015625 213.96875Q507.830078125 211.080078125 506.9169921875 207.6435546875Q506.00390625 204.20703125 505.173828125 200.720703125Q505.240234375 203.974609375 505.33984375 207.427734375Q505.439453125 210.880859375 505.5224609375 213.8525390625Q505.60546875 216.82421875 505.60546875 218.68359375V240.0Z M573.19921875 240.697265625Q567.388671875 240.697265625 563.205078125 238.2900390625Q559.021484375 235.8828125 556.7802734375 231.5830078125Q554.5390625 227.283203125 554.5390625 221.572265625Q554.5390625 215.861328125 556.7802734375 211.544921875Q559.021484375 207.228515625 563.205078125 204.8212890625Q567.388671875 202.4140625 573.19921875 202.4140625Q579.009765625 202.4140625 583.1767578125 204.8212890625Q587.34375 207.228515625 589.5849609375 211.544921875Q591.826171875 215.861328125 591.826171875 221.572265625Q591.826171875 227.283203125 589.5849609375 231.5830078125Q587.34375 235.8828125 583.1767578125 238.2900390625Q579.009765625 240.697265625 573.19921875 240.697265625ZM573.19921875 231.83203125Q576.51953125 231.83203125 578.279296875 228.9931640625Q580.0390625 226.154296875 580.0390625 221.505859375Q580.0390625 216.857421875 578.279296875 214.068359375Q576.51953125 211.279296875 573.19921875 211.279296875Q569.87890625 211.279296875 568.119140625 214.068359375Q566.359375 216.857421875 566.359375 221.505859375Q566.359375 226.154296875 568.119140625 228.9931640625Q569.87890625 231.83203125 573.19921875 231.83203125Z M611.70703125 240.697265625Q604.568359375 240.697265625 599.9697265625 237.6923828125Q595.37109375 234.6875 594.408203125 229.375L605.166015625 227.681640625Q605.86328125 230.10546875 607.5234375 231.333984375Q609.18359375 232.5625 612.138671875 232.5625Q614.5625 232.5625 615.95703125 231.7158203125Q617.3515625 230.869140625 617.3515625 229.474609375Q617.3515625 227.05078125 612.802734375 226.154296875L606.328125 224.892578125Q595.337890625 222.80078125 595.337890625 214.201171875Q595.337890625 208.65625 599.7705078125 205.53515625Q604.203125 202.4140625 611.673828125 202.4140625Q618.646484375 202.4140625 622.86328125 205.169921875Q627.080078125 207.92578125 628.04296875 212.70703125L617.81640625 214.333984375Q616.6875 210.3828125 611.873046875 210.3828125Q609.78125 210.3828125 608.3369140625 211.2294921875Q606.892578125 212.076171875 606.892578125 213.50390625Q606.892578125 214.6328125 607.7890625 215.4794921875Q608.685546875 216.326171875 611.076171875 216.791015625L618.181640625 218.119140625Q629.10546875 220.177734375 629.10546875 228.146484375Q629.10546875 231.96484375 626.8642578125 234.787109375Q624.623046875 237.609375 620.705078125 239.1533203125Q616.787109375 240.697265625 611.70703125 240.697265625Z M653.0703125 202.87890625V211.478515625H646.396484375V228.64453125Q646.396484375 231.533203125 649.3515625 231.533203125Q649.94921875 231.533203125 651.0283203125 231.3837890625Q652.107421875 231.234375 652.572265625 231.134765625L654.06640625 239.568359375Q652.107421875 240.1328125 650.28125 240.33203125Q648.455078125 240.53125 646.828125 240.53125Q640.91796875 240.53125 637.86328125 237.7587890625Q634.80859375 234.986328125 634.80859375 229.673828125V211.478515625H629.89453125V202.87890625H634.80859375V194.046875H646.396484375V202.87890625Z M668.6015625 190.52734375V240.0H657.013671875V190.52734375Z M674.171875 253.015625 676.76171875 244.548828125 678.22265625 244.947265625Q681.34375 245.77734375 683.26953125 244.84765625Q685.1953125 243.91796875 685.0625 241.626953125L685.029296875 240.06640625L671.18359375 202.87890625H683.40234375L688.947265625 221.041015625Q689.677734375 223.431640625 690.17578125 225.822265625Q690.673828125 228.212890625 691.138671875 230.703125Q691.703125 228.1796875 692.333984375 225.7890625Q692.96484375 223.3984375 693.728515625 221.041015625L699.671875 202.87890625H711.7578125L696.185546875 243.91796875Q694.4921875 248.43359375 691.138671875 251.2890625Q687.78515625 254.14453125 681.54296875 254.14453125Q677.060546875 254.14453125 674.171875 253.015625Z M727.21484375 240.0V190.52734375H738.935546875V209.951171875H758.69140625V190.52734375H770.37890625V240.0H758.69140625V219.513671875H738.935546875V240.0Z M786.474609375 240.6640625Q781.12890625 240.6640625 777.6923828125 237.94140625Q774.255859375 235.21875 774.255859375 229.70703125Q774.255859375 225.58984375 776.1484375 223.166015625Q778.041015625 220.7421875 781.1787109375 219.580078125Q784.31640625 218.41796875 788.068359375 218.0859375Q792.783203125 217.6875 794.8251953125 217.1064453125Q796.8671875 216.525390625 796.8671875 214.798828125V214.666015625Q796.8671875 212.740234375 795.5224609375 211.6943359375Q794.177734375 210.6484375 791.8203125 210.6484375Q789.396484375 210.6484375 787.8359375 211.677734375Q786.275390625 212.70703125 785.810546875 214.466796875L775.318359375 213.10546875Q776.4140625 208.357421875 780.6806640625 205.3857421875Q784.947265625 202.4140625 791.919921875 202.4140625Q796.53515625 202.4140625 800.2705078125 203.841796875Q804.005859375 205.26953125 806.2138671875 208.0419921875Q808.421875 210.814453125 808.421875 214.798828125V240.0H797.53125V234.787109375H797.232421875Q794.14453125 240.6640625 786.474609375 240.6640625ZM789.994140625 232.994140625Q792.916015625 232.994140625 794.94140625 231.267578125Q796.966796875 229.541015625 796.966796875 226.78515625V223.232421875Q795.970703125 223.763671875 794.078125 224.12890625Q792.185546875 224.494140625 790.55859375 224.759765625Q785.212890625 225.556640625 785.212890625 229.17578125Q785.212890625 231.03515625 786.5576171875 232.0146484375Q787.90234375 232.994140625 789.994140625 232.994140625Z M814.091796875 240.0V202.87890625H825.34765625V209.65234375H825.74609375Q826.7421875 206.0 829.0498046875 204.20703125Q831.357421875 202.4140625 834.412109375 202.4140625Q836.10546875 202.4140625 837.69921875 202.8125V212.90625Q836.869140625 212.607421875 835.5244140625 212.4580078125Q834.1796875 212.30859375 833.1171875 212.30859375Q829.896484375 212.30859375 827.7880859375 214.3671875Q825.6796875 216.42578125 825.6796875 219.74609375V240.0Z M840.646484375 240.0V202.87890625H851.3046875L851.8359375 210.25Q853.36328125 206.06640625 856.2685546875 204.2236328125Q859.173828125 202.380859375 862.52734375 202.380859375Q866.046875 202.380859375 868.3876953125 204.40625Q870.728515625 206.431640625 872.08984375 210.98046875Q873.783203125 206.3984375 877.0869140625 204.3896484375Q880.390625 202.380859375 884.142578125 202.380859375Q889.35546875 202.380859375 892.6923828125 205.734375Q896.029296875 209.087890625 896.029296875 214.96484375V240.0H884.44140625V217.587890625Q884.44140625 214.765625 882.98046875 213.3046875Q881.51953125 211.84375 879.228515625 211.84375Q876.771484375 211.84375 875.34375 213.4541015625Q873.916015625 215.064453125 873.916015625 217.720703125V240.0H862.79296875V217.421875Q862.79296875 214.865234375 861.3486328125 213.3544921875Q859.904296875 211.84375 857.61328125 211.84375Q855.255859375 211.84375 853.7451171875 213.4375Q852.234375 215.03125 852.234375 217.953125V240.0Z M913.287109375 190.52734375V240.0H901.69921875V190.52734375Z M936.255859375 240.697265625Q927.5234375 240.697265625 922.5263671875 235.6005859375Q917.529296875 230.50390625 917.529296875 221.572265625Q917.529296875 215.861328125 919.7705078125 211.544921875Q922.01171875 207.228515625 926.12890625 204.8212890625Q930.24609375 202.4140625 935.82421875 202.4140625Q941.037109375 202.4140625 945.0712890625 204.5888671875Q949.10546875 206.763671875 951.4130859375 210.9970703125Q953.720703125 215.23046875 953.720703125 221.33984375V224.26171875H928.91796875Q929.083984375 228.279296875 931.1259765625 230.2880859375Q933.16796875 232.296875 936.455078125 232.296875Q938.779296875 232.296875 940.47265625 231.3173828125Q942.166015625 230.337890625 942.86328125 228.478515625L953.189453125 230.171875Q951.794921875 234.986328125 947.3955078125 237.841796875Q942.99609375 240.697265625 936.255859375 240.697265625ZM928.984375 217.521484375H942.73046875Q942.3984375 214.3671875 940.671875 212.5908203125Q938.9453125 210.814453125 935.923828125 210.814453125Q932.869140625 210.814453125 931.0927734375 212.6240234375Q929.31640625 214.43359375 928.984375 217.521484375Z M973.435546875 240.697265625Q966.296875 240.697265625 961.6982421875 237.6923828125Q957.099609375 234.6875 956.13671875 229.375L966.89453125 227.681640625Q967.591796875 230.10546875 969.251953125 231.333984375Q970.912109375 232.5625 973.8671875 232.5625Q976.291015625 232.5625 977.685546875 231.7158203125Q979.080078125 230.869140625 979.080078125 229.474609375Q979.080078125 227.05078125 974.53125 226.154296875L968.056640625 224.892578125Q957.06640625 222.80078125 957.06640625 214.201171875Q957.06640625 208.65625 961.4990234375 205.53515625Q965.931640625 202.4140625 973.40234375 202.4140625Q980.375 202.4140625 984.591796875 205.169921875Q988.80859375 207.92578125 989.771484375 212.70703125L979.544921875 214.333984375Q978.416015625 210.3828125 973.6015625 210.3828125Q971.509765625 210.3828125 970.0654296875 211.2294921875Q968.62109375 212.076171875 968.62109375 213.50390625Q968.62109375 214.6328125 969.517578125 215.4794921875Q970.4140625 216.326171875 972.8046875 216.791015625L979.91015625 218.119140625Q990.833984375 220.177734375 990.833984375 228.146484375Q990.833984375 231.96484375 988.5927734375 234.787109375Q986.3515625 237.609375 982.43359375 239.1533203125Q978.515625 240.697265625 973.435546875 240.697265625Z M1010.416015625 240.697265625Q1003.27734375 240.697265625 998.6787109375 237.6923828125Q994.080078125 234.6875 993.1171875 229.375L1003.875 227.681640625Q1004.572265625 230.10546875 1006.232421875 231.333984375Q1007.892578125 232.5625 1010.84765625 232.5625Q1013.271484375 232.5625 1014.666015625 231.7158203125Q1016.060546875 230.869140625 1016.060546875 229.474609375Q1016.060546875 227.05078125 1011.51171875 226.154296875L1005.037109375 224.892578125Q994.046875 222.80078125 994.046875 214.201171875Q994.046875 208.65625 998.4794921875 205.53515625Q1002.912109375 202.4140625 1010.3828125 202.4140625Q1017.35546875 202.4140625 1021.572265625 205.169921875Q1025.7890625 207.92578125 1026.751953125 212.70703125L1016.525390625 214.333984375Q1015.396484375 210.3828125 1010.58203125 210.3828125Q1008.490234375 210.3828125 1007.0458984375 211.2294921875Q1005.6015625 212.076171875 1005.6015625 213.50390625Q1005.6015625 214.6328125 1006.498046875 215.4794921875Q1007.39453125 216.326171875 1009.78515625 216.791015625L1016.890625 218.119140625Q1027.814453125 220.177734375 1027.814453125 228.146484375Q1027.814453125 231.96484375 1025.5732421875 234.787109375Q1023.33203125 237.609375 1019.4140625 239.1533203125Q1015.49609375 240.697265625 1010.416015625 240.697265625Z" fill="#0E1116"/>
    <path d="M490.6474609375 292.0 497.3759765625 273.083984375H500.9306640625L507.7861328125 292.0H504.650390625L502.9111328125 287.0107421875H495.4716796875L493.783203125 292.0ZM496.296875 284.5986328125H502.060546875L500.96875 281.4755859375Q500.587890625 280.345703125 500.1435546875 278.85400390625Q499.69921875 277.3623046875 499.140625 275.3564453125Q498.58203125 277.3876953125 498.14404296875 278.89208984375Q497.7060546875 280.396484375 497.3505859375 281.4755859375Z M513.1228515625 273.083984375V292.0H510.2283203125V273.083984375Z M528.5189453125 292.2919921875Q526.2083984375 292.2919921875 524.69130859375 291.29541015625Q523.17421875 290.298828125 522.793359375 288.4072265625L525.4212890625 287.861328125Q525.992578125 290.0322265625 528.5443359375 290.0322265625Q529.902734375 290.0322265625 530.69619140625 289.46728515625Q531.4896484375 288.90234375 531.4896484375 288.115234375Q531.4896484375 286.76953125 529.496484375 286.3251953125L527.109765625 285.779296875Q523.199609375 284.9033203125 523.199609375 281.8564453125Q523.199609375 280.5869140625 523.90419921875 279.634765625Q524.6087890625 278.6826171875 525.84658203125 278.15576171875Q527.084375 277.62890625 528.6966796875 277.62890625Q530.99453125 277.62890625 532.3021484375 278.61279296875Q533.609765625 279.5966796875 534.066796875 281.1708984375L531.5658203125 281.716796875Q531.29921875 280.9677734375 530.6390625 280.40283203125Q529.97890625 279.837890625 528.7220703125 279.837890625Q527.566796875 279.837890625 526.7923828125 280.3583984375Q526.01796875 280.87890625 526.01796875 281.6787109375Q526.01796875 282.3896484375 526.53212890625 282.82763671875Q527.0462890625 283.265625 528.2142578125 283.5322265625L530.4994140625 284.0400390625Q534.371484375 284.916015625 534.371484375 287.8740234375Q534.371484375 289.1689453125 533.62880859375 290.16552734375Q532.8861328125 291.162109375 531.5658203125 291.72705078125Q530.2455078125 292.2919921875 528.5189453125 292.2919921875Z M543.2501953125001 292.2919921875Q541.1554687500001 292.2919921875 539.6320312500001 291.390625Q538.1085937500001 290.4892578125 537.2897460937501 288.8515625Q536.4708984375001 287.2138671875 536.4708984375001 285.0048828125Q536.4708984375001 282.8212890625 537.2770507812501 281.158203125Q538.0832031250001 279.4951171875 539.5558593750001 278.56201171875Q541.0285156250001 277.62890625 543.0089843750001 277.62890625Q544.6212890625001 277.62890625 546.0749023437501 278.34619140625Q547.5285156250001 279.0634765625 548.4362304687501 280.63134765625Q549.3439453125001 282.19921875 549.3439453125001 284.763671875V285.75390625H539.2765625000001Q539.3527343750001 287.810546875 540.4445312500001 288.89599609375Q541.5363281250001 289.9814453125 543.2755859375001 289.9814453125Q544.4435546875001 289.9814453125 545.2877929687501 289.4736328125Q546.1320312500001 288.9658203125 546.5001953125001 287.9755859375L549.1281250000001 288.59765625Q548.6203125000001 290.2607421875 547.0714843750001 291.2763671875Q545.5226562500001 292.2919921875 543.2501953125001 292.2919921875ZM539.2892578125001 283.671875H546.5763671875001Q546.4240234375001 281.99609375 545.5290039062501 280.9677734375Q544.6339843750001 279.939453125 543.0216796875001 279.939453125Q541.3458984375001 279.939453125 540.3747070312501 281.03759765625Q539.4035156250001 282.1357421875 539.2892578125001 283.671875Z M558.0703125000001 292.2919921875Q556.0644531250001 292.2919921875 554.5791015625001 291.3779296875Q553.0937500000001 290.4638671875 552.2685546875001 288.81982421875Q551.4433593750001 287.17578125 551.4433593750001 284.9794921875Q551.4433593750001 282.7705078125 552.2685546875001 281.11376953125Q553.0937500000001 279.45703125 554.5791015625001 278.54296875Q556.0644531250001 277.62890625 558.0703125000001 277.62890625Q560.2792968750001 277.62890625 561.8852539062501 278.73974609375Q563.4912109375001 279.8505859375 564.0117187500001 281.818359375L561.3583984375001 282.453125Q561.0664062500001 281.3486328125 560.2221679687501 280.66943359375Q559.3779296875001 279.990234375 558.0830078125001 279.990234375Q556.8007812500001 279.990234375 555.9565429687501 280.6630859375Q555.1123046875001 281.3359375 554.6997070312501 282.47216796875Q554.2871093750001 283.6083984375 554.2871093750001 284.9794921875Q554.2871093750001 286.337890625 554.6997070312501 287.46142578125Q555.1123046875001 288.5849609375 555.9565429687501 289.2578125Q556.8007812500001 289.9306640625 558.0830078125001 289.9306640625Q559.4033203125001 289.9306640625 560.2666015625001 289.22607421875Q561.1298828125001 288.521484375 561.4091796875001 287.3662109375L564.0498046875001 288.0009765625Q563.5292968750001 290.0068359375 561.9169921875001 291.1494140625Q560.3046875000001 292.2919921875 558.0703125000001 292.2919921875Z M571.6462890625002 292.177734375Q569.4753906250002 292.177734375 568.1423828125002 290.81298828125Q566.8093750000002 289.4482421875 566.8093750000002 286.8203125V277.806640625H569.6023437500002V286.4775390625Q569.6023437500002 288.013671875 570.4084960937502 288.876953125Q571.2146484375002 289.740234375 572.5984375000002 289.740234375Q574.0203125000002 289.740234375 574.9597656250002 288.81982421875Q575.8992187500002 287.8994140625 575.8992187500002 286.2109375V277.806640625H578.7048828125002V292.0H576.0261718750002L576.0134765625002 289.2451171875Q575.3406250000002 290.7939453125 574.2297851562502 291.48583984375Q573.1189453125002 292.177734375 571.6462890625002 292.177734375Z M582.1500000000002 292.0V277.806640625H584.8541015625002V280.091796875H585.0064453125002Q585.3873046875002 278.9365234375 586.3711914062502 278.27001953125Q587.3550781250002 277.603515625 588.5992187500002 277.603515625Q588.8658203125002 277.603515625 589.2149414062502 277.62890625Q589.5640625000002 277.654296875 589.7798828125002 277.6796875V280.345703125Q589.6275390625002 280.3076171875 589.1958984375002 280.25048828125Q588.7642578125002 280.193359375 588.3199218750002 280.193359375Q586.8599609375002 280.193359375 585.9014648437502 281.08837890625Q584.9429687500002 281.9833984375 584.9429687500002 283.3798828125V292.0Z M591.9046875000003 292.0V277.806640625H594.6976562500003V292.0ZM593.3138671875003 275.6357421875Q592.5902343750003 275.6357421875 592.0760742187503 275.1533203125Q591.5619140625003 274.6708984375 591.5619140625003 273.9853515625Q591.5619140625003 273.287109375 592.0760742187503 272.8046875Q592.5902343750003 272.322265625 593.3138671875003 272.322265625Q594.0375000000003 272.322265625 594.5580078125003 272.8046875Q595.0785156250003 273.287109375 595.0785156250003 273.9853515625Q595.0785156250003 274.6708984375 594.5580078125003 275.1533203125Q594.0375000000003 275.6357421875 593.3138671875003 275.6357421875Z M604.2238281250003 277.806640625V280.0791015625H601.3927734375003V288.166015625Q601.3927734375003 289.0166015625 601.7545898437503 289.41650390625Q602.1164062500003 289.81640625 602.9416015625003 289.81640625Q603.1701171875003 289.81640625 603.5192382812503 289.765625Q603.8683593750003 289.71484375 604.1222656250003 289.6640625L604.6173828125003 291.8984375Q604.1730468750003 292.05078125 603.6588867187503 292.12060546875Q603.1447265625003 292.1904296875 602.6623046875003 292.1904296875Q600.7326171875003 292.1904296875 599.6662109375003 291.19384765625Q598.5998046875003 290.197265625 598.5998046875003 288.39453125V280.0791015625H596.5304687500003V277.806640625H598.5998046875003V274.4296875H601.3927734375003V277.806640625Z M606.5136718750003 297.103515625 607.1992187500003 294.8310546875 607.5166015625003 294.9072265625Q608.5957031250003 295.19921875 609.3510742187503 294.83740234375Q610.1064453125003 294.4755859375 610.5000000000003 293.1044921875L610.8046875000003 292.0634765625L605.4091796875003 277.806640625H608.4306640625003L611.2363281250003 285.8681640625Q611.5537109375003 286.8076171875 611.7949218750003 287.7216796875Q612.0361328125003 288.6357421875 612.2646484375003 289.5498046875Q612.5058593750003 288.6357421875 612.7597656250003 287.71533203125Q613.0136718750003 286.794921875 613.3437500000003 285.8681640625L616.2001953125003 277.806640625H619.1962890625003L613.0263671875003 293.9677734375Q612.3789062500003 295.6689453125 611.2807617187503 296.53857421875Q610.1826171875003 297.408203125 608.4687500000003 297.408203125Q607.8085937500003 297.408203125 607.2944335937503 297.31298828125Q606.7802734375003 297.2177734375 606.5136718750003 297.103515625Z M630.0601562500004 284.890625Q629.2730468750004 284.890625 628.7271484375004 284.35107421875Q628.1812500000004 283.8115234375 628.1812500000004 283.0244140625Q628.1812500000004 282.2373046875 628.7271484375004 281.69140625Q629.2730468750004 281.1455078125 630.0601562500004 281.1455078125Q630.8472656250004 281.1455078125 631.3868164062504 281.69140625Q631.9263671875004 282.2373046875 631.9263671875004 283.0244140625Q631.9263671875004 283.8115234375 631.3868164062504 284.35107421875Q630.8472656250004 284.890625 630.0601562500004 284.890625Z M646.1798828125005 292.3173828125Q644.8214843750005 292.3173828125 643.7360351562505 291.81591796875Q642.6505859375005 291.314453125 642.0158203125005 290.349609375Q641.3810546875005 289.384765625 641.3810546875005 287.98828125Q641.3810546875005 286.7822265625 641.8507812500005 286.00146484375Q642.3205078125005 285.220703125 643.1076171875005 284.77001953125Q643.8947265625005 284.3193359375 644.8659179687505 284.0908203125Q645.8371093750005 283.8623046875 646.8400390625005 283.748046875Q648.7189453125005 283.5322265625 649.5695312500005 283.37353515625Q650.4201171875005 283.21484375 650.4201171875005 282.4658203125V282.3896484375Q650.4201171875005 281.208984375 649.7282226562505 280.55517578125Q649.0363281250005 279.9013671875 647.7033203125005 279.9013671875Q646.3068359375005 279.9013671875 645.5070312500005 280.5107421875Q644.7072265625005 281.1201171875 644.4152343750005 281.84375L641.7873046875005 281.158203125Q642.2697265625005 279.888671875 643.1710937500005 279.1142578125Q644.0724609375005 278.33984375 645.2340820312505 277.984375Q646.3957031250005 277.62890625 647.6652343750005 277.62890625Q648.5158203125005 277.62890625 649.4806640625005 277.83203125Q650.4455078125005 278.03515625 651.2960937500005 278.56201171875Q652.1466796875005 279.0888671875 652.6798828125005 280.06640625Q653.2130859375005 281.0439453125 653.2130859375005 282.580078125V292.0H650.5089843750005V290.0576171875H650.3693359375005Q649.9503906250005 290.8955078125 648.9284179687505 291.6064453125Q647.9064453125005 292.3173828125 646.1798828125005 292.3173828125ZM646.8019531250005 290.0703125Q647.9318359375005 290.0703125 648.7443359375005 289.61962890625Q649.5568359375005 289.1689453125 649.9948242187505 288.4453125Q650.4328125000005 287.7216796875 650.4328125000005 286.8837890625V285.068359375Q650.2296875000005 285.271484375 649.5631835937505 285.41748046875Q648.8966796875005 285.5634765625 648.1603515625005 285.6650390625Q647.4240234375005 285.7666015625 646.9923828125005 285.8173828125Q645.8117187500005 285.982421875 644.9674804687505 286.45849609375Q644.1232421875005 286.9345703125 644.1232421875005 288.0263671875Q644.1232421875005 289.0419921875 644.8786132812505 289.55615234375Q645.6339843750005 290.0703125 646.8019531250005 290.0703125Z M662.6123046875006 297.611328125Q660.1494140625006 297.611328125 658.6640625000006 296.7099609375Q657.1787109375006 295.80859375 656.5820312500006 294.5263671875L658.9179687500006 293.421875Q659.1718750000006 293.828125 659.5971679687506 294.27880859375Q660.0224609375006 294.7294921875 660.7397460937506 295.046875Q661.4570312500006 295.3642578125 662.5996093750006 295.3642578125Q664.2119140625006 295.3642578125 665.2275390625006 294.59619140625Q666.2431640625006 293.828125 666.2431640625006 292.1904296875V289.4228515625H666.0019531250006Q665.7480468750006 289.892578125 665.2973632812506 290.4384765625Q664.8466796875006 290.984375 664.0405273437506 291.38427734375Q663.2343750000006 291.7841796875 661.9394531250006 291.7841796875Q660.2636718750006 291.7841796875 658.9243164062506 290.9970703125Q657.5849609375006 290.2099609375 656.7978515625006 288.66748046875Q656.0107421875006 287.125 656.0107421875006 284.8525390625Q656.0107421875006 282.5927734375 656.7915039062506 280.97412109375Q657.5722656250006 279.35546875 658.9179687500006 278.4921875Q660.2636718750006 277.62890625 661.9775390625006 277.62890625Q663.2851562500006 277.62890625 664.1040039062506 278.06689453125Q664.9228515625006 278.5048828125 665.3862304687506 279.0888671875Q665.8496093750006 279.6728515625 666.0908203125006 280.1171875H666.2939453125006V277.806640625H669.0234375000006V292.203125Q669.0234375000006 294.0693359375 668.1728515625006 295.2626953125Q667.3222656250006 296.4560546875 665.8750000000006 297.03369140625Q664.4277343750006 297.611328125 662.6123046875006 297.611328125ZM662.5869140625006 289.4609375Q664.3642578125006 289.4609375 665.3100585937506 288.2294921875Q666.2558593750006 286.998046875 666.2558593750006 284.814453125Q666.2558593750006 282.681640625 665.3227539062506 281.34228515625Q664.3896484375006 280.0029296875 662.5869140625006 280.0029296875Q661.3554687500006 280.0029296875 660.5239257812506 280.64404296875Q659.6923828125006 281.28515625 659.2797851562506 282.37060546875Q658.8671875000006 283.4560546875 658.8671875000006 284.814453125Q658.8671875000006 286.896484375 659.8129882812506 288.1787109375Q660.7587890625006 289.4609375 662.5869140625006 289.4609375Z M678.6003906250006 292.2919921875Q676.5056640625006 292.2919921875 674.9822265625006 291.390625Q673.4587890625006 290.4892578125 672.6399414062506 288.8515625Q671.8210937500006 287.2138671875 671.8210937500006 285.0048828125Q671.8210937500006 282.8212890625 672.6272460937506 281.158203125Q673.4333984375006 279.4951171875 674.9060546875006 278.56201171875Q676.3787109375006 277.62890625 678.3591796875006 277.62890625Q679.9714843750006 277.62890625 681.4250976562506 278.34619140625Q682.8787109375006 279.0634765625 683.7864257812506 280.63134765625Q684.6941406250006 282.19921875 684.6941406250006 284.763671875V285.75390625H674.6267578125006Q674.7029296875006 287.810546875 675.7947265625006 288.89599609375Q676.8865234375006 289.9814453125 678.6257812500006 289.9814453125Q679.7937500000006 289.9814453125 680.6379882812506 289.4736328125Q681.4822265625006 288.9658203125 681.8503906250006 287.9755859375L684.4783203125006 288.59765625Q683.9705078125006 290.2607421875 682.4216796875006 291.2763671875Q680.8728515625006 292.2919921875 678.6003906250006 292.2919921875ZM674.6394531250006 283.671875H681.9265625000006Q681.7742187500006 281.99609375 680.8791992187506 280.9677734375Q679.9841796875006 279.939453125 678.3718750000006 279.939453125Q676.6960937500006 279.939453125 675.7249023437506 281.03759765625Q674.7537109375006 282.1357421875 674.6394531250006 283.671875Z M690.2466796875007 283.595703125V292.0H687.4537109375007V277.806640625H690.1197265625007L690.1324218750007 280.5361328125Q690.7925781250007 279.0380859375 691.9034179687507 278.33349609375Q693.0142578125007 277.62890625 694.5123046875007 277.62890625Q696.6832031250007 277.62890625 698.0098632812507 278.99365234375Q699.3365234375007 280.3583984375 699.3365234375007 282.986328125V292.0H696.5435546875007V283.3291015625Q696.5435546875007 281.79296875 695.7437500000007 280.9296875Q694.9439453125007 280.06640625 693.5474609375007 280.06640625Q692.1255859375007 280.06640625 691.1861328125007 280.98681640625Q690.2466796875007 281.9072265625 690.2466796875007 283.595703125Z M708.8626953125007 277.806640625V280.0791015625H706.0316406250007V288.166015625Q706.0316406250007 289.0166015625 706.3934570312507 289.41650390625Q706.7552734375007 289.81640625 707.5804687500007 289.81640625Q707.8089843750007 289.81640625 708.1581054687507 289.765625Q708.5072265625007 289.71484375 708.7611328125007 289.6640625L709.2562500000007 291.8984375Q708.8119140625007 292.05078125 708.2977539062507 292.12060546875Q707.7835937500007 292.1904296875 707.3011718750007 292.1904296875Q705.3714843750007 292.1904296875 704.3050781250007 291.19384765625Q703.2386718750007 290.197265625 703.2386718750007 288.39453125V280.0791015625H701.1693359375007V277.806640625H703.2386718750007V274.4296875H706.0316406250007V277.806640625Z M716.4337890625008 292.2919921875Q714.1232421875008 292.2919921875 712.6061523437508 291.29541015625Q711.0890625000008 290.298828125 710.7082031250008 288.4072265625L713.3361328125008 287.861328125Q713.9074218750008 290.0322265625 716.4591796875008 290.0322265625Q717.8175781250008 290.0322265625 718.6110351562508 289.46728515625Q719.4044921875008 288.90234375 719.4044921875008 288.115234375Q719.4044921875008 286.76953125 717.4113281250008 286.3251953125L715.0246093750008 285.779296875Q711.1144531250008 284.9033203125 711.1144531250008 281.8564453125Q711.1144531250008 280.5869140625 711.8190429687508 279.634765625Q712.5236328125008 278.6826171875 713.7614257812508 278.15576171875Q714.9992187500008 277.62890625 716.6115234375008 277.62890625Q718.9093750000008 277.62890625 720.2169921875008 278.61279296875Q721.5246093750008 279.5966796875 721.9816406250008 281.1708984375L719.4806640625008 281.716796875Q719.2140625000008 280.9677734375 718.5539062500008 280.40283203125Q717.8937500000008 279.837890625 716.6369140625008 279.837890625Q715.4816406250008 279.837890625 714.7072265625008 280.3583984375Q713.9328125000008 280.87890625 713.9328125000008 281.6787109375Q713.9328125000008 282.3896484375 714.4469726562508 282.82763671875Q714.9611328125008 283.265625 716.1291015625008 283.5322265625L718.4142578125008 284.0400390625Q722.2863281250008 284.916015625 722.2863281250008 287.8740234375Q722.2863281250008 289.1689453125 721.5436523437508 290.16552734375Q720.8009765625008 291.162109375 719.4806640625008 291.72705078125Q718.1603515625008 292.2919921875 716.4337890625008 292.2919921875Z M733.7468750000008 284.890625Q732.9597656250008 284.890625 732.4138671875008 284.35107421875Q731.8679687500008 283.8115234375 731.8679687500008 283.0244140625Q731.8679687500008 282.2373046875 732.4138671875008 281.69140625Q732.9597656250008 281.1455078125 733.7468750000008 281.1455078125Q734.5339843750008 281.1455078125 735.0735351562508 281.69140625Q735.6130859375008 282.2373046875 735.6130859375008 283.0244140625Q735.6130859375008 283.8115234375 735.0735351562508 284.35107421875Q734.5339843750008 284.890625 733.7468750000008 284.890625Z M750.9837890625009 292.2919921875Q748.6732421875009 292.2919921875 747.1561523437509 291.29541015625Q745.6390625000009 290.298828125 745.2582031250009 288.4072265625L747.8861328125009 287.861328125Q748.4574218750009 290.0322265625 751.0091796875009 290.0322265625Q752.3675781250009 290.0322265625 753.1610351562509 289.46728515625Q753.9544921875009 288.90234375 753.9544921875009 288.115234375Q753.9544921875009 286.76953125 751.9613281250009 286.3251953125L749.5746093750009 285.779296875Q745.6644531250009 284.9033203125 745.6644531250009 281.8564453125Q745.6644531250009 280.5869140625 746.3690429687509 279.634765625Q747.0736328125009 278.6826171875 748.3114257812509 278.15576171875Q749.5492187500009 277.62890625 751.1615234375009 277.62890625Q753.4593750000009 277.62890625 754.7669921875009 278.61279296875Q756.0746093750009 279.5966796875 756.5316406250009 281.1708984375L754.0306640625009 281.716796875Q753.7640625000009 280.9677734375 753.1039062500009 280.40283203125Q752.4437500000009 279.837890625 751.1869140625009 279.837890625Q750.0316406250009 279.837890625 749.2572265625009 280.3583984375Q748.4828125000009 280.87890625 748.4828125000009 281.6787109375Q748.4828125000009 282.3896484375 748.9969726562509 282.82763671875Q749.5111328125009 283.265625 750.6791015625009 283.5322265625L752.9642578125009 284.0400390625Q756.8363281250009 284.916015625 756.8363281250009 287.8740234375Q756.8363281250009 289.1689453125 756.0936523437509 290.16552734375Q755.3509765625009 291.162109375 754.0306640625009 291.72705078125Q752.7103515625009 292.2919921875 750.9837890625009 292.2919921875Z M763.569531250001 292.3173828125Q762.211132812501 292.3173828125 761.125683593751 291.81591796875Q760.040234375001 291.314453125 759.405468750001 290.349609375Q758.770703125001 289.384765625 758.770703125001 287.98828125Q758.770703125001 286.7822265625 759.240429687501 286.00146484375Q759.710156250001 285.220703125 760.497265625001 284.77001953125Q761.284375000001 284.3193359375 762.255566406251 284.0908203125Q763.226757812501 283.8623046875 764.229687500001 283.748046875Q766.108593750001 283.5322265625 766.959179687501 283.37353515625Q767.809765625001 283.21484375 767.809765625001 282.4658203125V282.3896484375Q767.809765625001 281.208984375 767.117871093751 280.55517578125Q766.425976562501 279.9013671875 765.092968750001 279.9013671875Q763.696484375001 279.9013671875 762.896679687501 280.5107421875Q762.096875000001 281.1201171875 761.804882812501 281.84375L759.176953125001 281.158203125Q759.659375000001 279.888671875 760.560742187501 279.1142578125Q761.462109375001 278.33984375 762.623730468751 277.984375Q763.785351562501 277.62890625 765.054882812501 277.62890625Q765.905468750001 277.62890625 766.870312500001 277.83203125Q767.835156250001 278.03515625 768.685742187501 278.56201171875Q769.536328125001 279.0888671875 770.069531250001 280.06640625Q770.602734375001 281.0439453125 770.602734375001 282.580078125V292.0H767.898632812501V290.0576171875H767.758984375001Q767.340039062501 290.8955078125 766.318066406251 291.6064453125Q765.296093750001 292.3173828125 763.569531250001 292.3173828125ZM764.191601562501 290.0703125Q765.321484375001 290.0703125 766.133984375001 289.61962890625Q766.946484375001 289.1689453125 767.384472656251 288.4453125Q767.822460937501 287.7216796875 767.822460937501 286.8837890625V285.068359375Q767.619335937501 285.271484375 766.952832031251 285.41748046875Q766.286328125001 285.5634765625 765.550000000001 285.6650390625Q764.813671875001 285.7666015625 764.382031250001 285.8173828125Q763.201367187501 285.982421875 762.357128906251 286.45849609375Q761.512890625001 286.9345703125 761.512890625001 288.0263671875Q761.512890625001 289.0419921875 762.268261718751 289.55615234375Q763.023632812501 290.0703125 764.191601562501 290.0703125Z M781.093750000001 277.806640625V280.0791015625H777.919921875001V292.0H775.126953125001V280.0791015625H772.435546875001V277.806640625H775.126953125001V276.181640625Q775.126953125001 274.861328125 775.717285156251 273.97265625Q776.307617187501 273.083984375 777.266113281251 272.6396484375Q778.224609375001 272.1953125 779.354492187501 272.1953125Q780.192382812501 272.1953125 780.795410156251 272.32861328125Q781.398437500001 272.4619140625 781.690429687501 272.576171875L781.042968750001 274.8359375Q780.839843750001 274.78515625 780.535156250001 274.708984375Q780.230468750001 274.6328125 779.798828125001 274.6328125Q778.795898437501 274.6328125 778.357910156251 275.1279296875Q777.919921875001 275.623046875 777.919921875001 276.5625V277.806640625Z M789.7439453125011 292.2919921875Q787.6492187500011 292.2919921875 786.1257812500011 291.390625Q784.6023437500011 290.4892578125 783.7834960937511 288.8515625Q782.9646484375011 287.2138671875 782.9646484375011 285.0048828125Q782.9646484375011 282.8212890625 783.7708007812511 281.158203125Q784.5769531250011 279.4951171875 786.0496093750011 278.56201171875Q787.5222656250011 277.62890625 789.5027343750011 277.62890625Q791.1150390625011 277.62890625 792.5686523437511 278.34619140625Q794.0222656250011 279.0634765625 794.9299804687511 280.63134765625Q795.8376953125011 282.19921875 795.8376953125011 284.763671875V285.75390625H785.7703125000011Q785.8464843750011 287.810546875 786.9382812500011 288.89599609375Q788.0300781250011 289.9814453125 789.7693359375011 289.9814453125Q790.9373046875011 289.9814453125 791.7815429687511 289.4736328125Q792.6257812500011 288.9658203125 792.9939453125011 287.9755859375L795.6218750000011 288.59765625Q795.1140625000011 290.2607421875 793.5652343750011 291.2763671875Q792.0164062500011 292.2919921875 789.7439453125011 292.2919921875ZM785.7830078125011 283.671875H793.0701171875011Q792.9177734375011 281.99609375 792.0227539062511 280.9677734375Q791.1277343750011 279.939453125 789.5154296875011 279.939453125Q787.8396484375011 279.939453125 786.8684570312511 281.03759765625Q785.8972656250011 282.1357421875 785.7830078125011 283.671875Z M804.6656250000011 277.806640625V280.0791015625H801.8345703125011V288.166015625Q801.8345703125011 289.0166015625 802.1963867187511 289.41650390625Q802.5582031250011 289.81640625 803.3833984375011 289.81640625Q803.6119140625011 289.81640625 803.9610351562511 289.765625Q804.3101562500011 289.71484375 804.5640625000011 289.6640625L805.0591796875011 291.8984375Q804.6148437500011 292.05078125 804.1006835937511 292.12060546875Q803.5865234375011 292.1904296875 803.1041015625011 292.1904296875Q801.1744140625011 292.1904296875 800.1080078125011 291.19384765625Q799.0416015625011 290.197265625 799.0416015625011 288.39453125V280.0791015625H796.9722656250011V277.806640625H799.0416015625011V274.4296875H801.8345703125011V277.806640625Z M806.9554687500012 297.103515625 807.6410156250012 294.8310546875 807.9583984375012 294.9072265625Q809.0375000000012 295.19921875 809.7928710937512 294.83740234375Q810.5482421875012 294.4755859375 810.9417968750012 293.1044921875L811.2464843750012 292.0634765625L805.8509765625012 277.806640625H808.8724609375012L811.6781250000012 285.8681640625Q811.9955078125012 286.8076171875 812.2367187500012 287.7216796875Q812.4779296875012 288.6357421875 812.7064453125012 289.5498046875Q812.9476562500012 288.6357421875 813.2015625000012 287.71533203125Q813.4554687500012 286.794921875 813.7855468750012 285.8681640625L816.6419921875012 277.806640625H819.6380859375012L813.4681640625012 293.9677734375Q812.8207031250012 295.6689453125 811.7225585937512 296.53857421875Q810.6244140625012 297.408203125 808.9105468750012 297.408203125Q808.2503906250012 297.408203125 807.7362304687512 297.31298828125Q807.2220703125012 297.2177734375 806.9554687500012 297.103515625Z M830.5019531250013 284.890625Q829.7148437500013 284.890625 829.1689453125013 284.35107421875Q828.6230468750013 283.8115234375 828.6230468750013 283.0244140625Q828.6230468750013 282.2373046875 829.1689453125013 281.69140625Q829.7148437500013 281.1455078125 830.5019531250013 281.1455078125Q831.2890625000013 281.1455078125 831.8286132812513 281.69140625Q832.3681640625013 282.2373046875 832.3681640625013 283.0244140625Q832.3681640625013 283.8115234375 831.8286132812513 284.35107421875Q831.2890625000013 284.890625 830.5019531250013 284.890625Z M847.7388671875013 292.2919921875Q845.4283203125013 292.2919921875 843.9112304687513 291.29541015625Q842.3941406250013 290.298828125 842.0132812500013 288.4072265625L844.6412109375013 287.861328125Q845.2125000000013 290.0322265625 847.7642578125013 290.0322265625Q849.1226562500013 290.0322265625 849.9161132812513 289.46728515625Q850.7095703125013 288.90234375 850.7095703125013 288.115234375Q850.7095703125013 286.76953125 848.7164062500013 286.3251953125L846.3296875000013 285.779296875Q842.4195312500013 284.9033203125 842.4195312500013 281.8564453125Q842.4195312500013 280.5869140625 843.1241210937513 279.634765625Q843.8287109375013 278.6826171875 845.0665039062513 278.15576171875Q846.3042968750013 277.62890625 847.9166015625013 277.62890625Q850.2144531250013 277.62890625 851.5220703125013 278.61279296875Q852.8296875000013 279.5966796875 853.2867187500013 281.1708984375L850.7857421875013 281.716796875Q850.5191406250013 280.9677734375 849.8589843750013 280.40283203125Q849.1988281250013 279.837890625 847.9419921875013 279.837890625Q846.7867187500013 279.837890625 846.0123046875013 280.3583984375Q845.2378906250013 280.87890625 845.2378906250013 281.6787109375Q845.2378906250013 282.3896484375 845.7520507812513 282.82763671875Q846.2662109375013 283.265625 847.4341796875013 283.5322265625L849.7193359375013 284.0400390625Q853.5914062500013 284.916015625 853.5914062500013 287.8740234375Q853.5914062500013 289.1689453125 852.8487304687513 290.16552734375Q852.1060546875013 291.162109375 850.7857421875013 291.72705078125Q849.4654296875013 292.2919921875 847.7388671875013 292.2919921875Z M862.4193359375014 277.806640625V280.0791015625H859.5882812500014V288.166015625Q859.5882812500014 289.0166015625 859.9500976562514 289.41650390625Q860.3119140625014 289.81640625 861.1371093750014 289.81640625Q861.3656250000014 289.81640625 861.7147460937514 289.765625Q862.0638671875014 289.71484375 862.3177734375014 289.6640625L862.8128906250014 291.8984375Q862.3685546875014 292.05078125 861.8543945312514 292.12060546875Q861.3402343750014 292.1904296875 860.8578125000014 292.1904296875Q858.9281250000014 292.1904296875 857.8617187500014 291.19384765625Q856.7953125000014 290.197265625 856.7953125000014 288.39453125V280.0791015625H854.7259765625014V277.806640625H856.7953125000014V274.4296875H859.5882812500014V277.806640625Z M869.7365234375014 292.177734375Q867.5656250000014 292.177734375 866.2326171875014 290.81298828125Q864.8996093750014 289.4482421875 864.8996093750014 286.8203125V277.806640625H867.6925781250014V286.4775390625Q867.6925781250014 288.013671875 868.4987304687514 288.876953125Q869.3048828125014 289.740234375 870.6886718750014 289.740234375Q872.1105468750014 289.740234375 873.0500000000014 288.81982421875Q873.9894531250014 287.8994140625 873.9894531250014 286.2109375V277.806640625H876.7951171875014V292.0H874.1164062500014L874.1037109375014 289.2451171875Q873.4308593750014 290.7939453125 872.3200195312514 291.48583984375Q871.2091796875014 292.177734375 869.7365234375014 292.177734375Z M885.5214843750015 292.279296875Q883.7949218750015 292.279296875 882.4555664062515 291.4033203125Q881.1162109375015 290.52734375 880.3481445312515 288.876953125Q879.5800781250015 287.2265625 879.5800781250015 284.94140625Q879.5800781250015 282.630859375 880.3544921875015 280.9931640625Q881.1289062500015 279.35546875 882.4682617187515 278.4921875Q883.8076171875015 277.62890625 885.5214843750015 277.62890625Q886.8417968750015 277.62890625 887.6542968750015 278.06689453125Q888.4667968750015 278.5048828125 888.9174804687515 279.09521484375Q889.3681640625015 279.685546875 889.6093750000015 280.1171875H889.7617187500015V273.083984375H892.5546875000015V292.0H889.8378906250015V289.7783203125H889.6093750000015Q889.3554687500015 290.2353515625 888.8920898437515 290.8193359375Q888.4287109375015 291.4033203125 887.6162109375015 291.84130859375Q886.8037109375015 292.279296875 885.5214843750015 292.279296875ZM886.1308593750015 289.9052734375Q887.9082031250015 289.9052734375 888.8603515625015 288.521484375Q889.8125000000015 287.1376953125 889.8125000000015 284.916015625Q889.8125000000015 282.70703125 888.8730468750015 281.35498046875Q887.9335937500015 280.0029296875 886.1308593750015 280.0029296875Q884.8994140625015 280.0029296875 884.0805664062515 280.650390625Q883.2617187500015 281.2978515625 882.8491210937515 282.40869140625Q882.4365234375015 283.51953125 882.4365234375015 284.916015625Q882.4365234375015 286.3251953125 882.8554687500015 287.455078125Q883.2744140625015 288.5849609375 884.0996093750015 289.2451171875Q884.9248046875015 289.9052734375 886.1308593750015 289.9052734375Z M896.0125000000015 292.0V277.806640625H898.8054687500015V292.0ZM897.4216796875015 275.6357421875Q896.6980468750015 275.6357421875 896.1838867187515 275.1533203125Q895.6697265625015 274.6708984375 895.6697265625015 273.9853515625Q895.6697265625015 273.287109375 896.1838867187515 272.8046875Q896.6980468750015 272.322265625 897.4216796875015 272.322265625Q898.1453125000015 272.322265625 898.6658203125015 272.8046875Q899.1863281250015 273.287109375 899.1863281250015 273.9853515625Q899.1863281250015 274.6708984375 898.6658203125015 275.1533203125Q898.1453125000015 275.6357421875 897.4216796875015 275.6357421875Z M908.2300781250016 292.2919921875Q906.2369140625016 292.2919921875 904.7452148437516 291.3779296875Q903.2535156250016 290.4638671875 902.4283203125016 288.81982421875Q901.6031250000016 287.17578125 901.6031250000016 284.9794921875Q901.6031250000016 282.7705078125 902.4283203125016 281.11376953125Q903.2535156250016 279.45703125 904.7452148437516 278.54296875Q906.2369140625016 277.62890625 908.2300781250016 277.62890625Q910.2359375000016 277.62890625 911.7276367187516 278.54296875Q913.2193359375016 279.45703125 914.0445312500016 281.11376953125Q914.8697265625016 282.7705078125 914.8697265625016 284.9794921875Q914.8697265625016 287.17578125 914.0445312500016 288.81982421875Q913.2193359375016 290.4638671875 911.7276367187516 291.3779296875Q910.2359375000016 292.2919921875 908.2300781250016 292.2919921875ZM908.2300781250016 289.9306640625Q909.5250000000016 289.9306640625 910.3692382812516 289.25146484375Q911.2134765625016 288.572265625 911.6260742187516 287.44873046875Q912.0386718750016 286.3251953125 912.0386718750016 284.9794921875Q912.0386718750016 283.62109375 911.6260742187516 282.48486328125Q911.2134765625016 281.3486328125 910.3692382812516 280.66943359375Q909.5250000000016 279.990234375 908.2300781250016 279.990234375Q906.9478515625016 279.990234375 906.1099609375016 280.66943359375Q905.2720703125016 281.3486328125 904.8594726562516 282.48486328125Q904.4468750000016 283.62109375 904.4468750000016 284.9794921875Q904.4468750000016 286.3251953125 904.8594726562516 287.44873046875Q905.2720703125016 288.572265625 906.1099609375016 289.25146484375Q906.9478515625016 289.9306640625 908.2300781250016 289.9306640625Z" fill="#0E1116"/>
    <line x1="490" y1="332" x2="570" y2="332" stroke="#F5C518" stroke-width="6"/>
    <path d="M491.5 372.0V358.8984375H494.7578125L494.8984375 361.44140625Q495.42578125 360.01171875 496.4453125 359.35546875Q497.46484375 358.69921875 498.63671875 358.69921875Q501.12109375 358.69921875 502.01171875 361.640625Q502.5625 360.12890625 503.716796875 359.4140625Q504.87109375 358.69921875 506.21875 358.69921875Q508.0234375 358.69921875 509.212890625 359.865234375Q510.40234375 361.03125 510.40234375 363.1640625V372.0H506.875V363.83203125Q506.875 362.73046875 506.27734375 362.185546875Q505.6796875 361.640625 504.80078125 361.640625Q503.8046875 361.640625 503.224609375 362.2734375Q502.64453125 362.90625 502.64453125 363.9375V372.0H499.24609375V363.73828125Q499.24609375 362.77734375 498.677734375 362.208984375Q498.109375 361.640625 497.20703125 361.640625Q496.28125 361.640625 495.6484375 362.267578125Q495.015625 362.89453125 495.015625 364.078125V372.0Z M518.91796875 364.41796875V372.0H515.40234375V354.5390625H518.84765625V361.40625Q519.421875 360.12890625 520.40625 359.431640625Q521.390625 358.734375 522.84375 358.734375Q524.8828125 358.734375 526.119140625 360.046875Q527.35546875 361.359375 527.35546875 363.66796875V372.0H523.828125V364.27734375Q523.828125 363.05859375 523.201171875 362.3671875Q522.57421875 361.67578125 521.4609375 361.67578125Q520.3359375 361.67578125 519.626953125 362.396484375Q518.91796875 363.1171875 518.91796875 364.41796875Z M535.859375 354.5390625V372.0H532.34375V354.5390625Z M540.53125 368.89453125V366.0703125L547.83203125 354.5390625H552.3203125V366.01171875H554.5V368.89453125H552.3203125V372.0H548.88671875V368.89453125ZM548.95703125 366.01171875V358.4765625H548.81640625L544.140625 365.87109375V366.01171875Z M559.03125 372.0V369.421875L565.21875 363.62109375Q566.40234375 362.4609375 567.041015625 361.599609375Q567.6796875 360.73828125 567.6796875 359.68359375Q567.6796875 358.51171875 566.912109375 357.837890625Q566.14453125 357.1640625 564.97265625 357.1640625Q563.75390625 357.1640625 563.021484375 357.890625Q562.2890625 358.6171875 562.2890625 359.89453125H558.8671875Q558.8671875 358.1953125 559.646484375 356.935546875Q560.42578125 355.67578125 561.80859375 354.990234375Q563.19140625 354.3046875 564.99609375 354.3046875Q566.84765625 354.3046875 568.23046875 354.966796875Q569.61328125 355.62890625 570.380859375 356.7890625Q571.1484375 357.94921875 571.1484375 359.4609375Q571.1484375 360.43359375 570.767578125 361.3828125Q570.38671875 362.33203125 569.408203125 363.509765625Q568.4296875 364.6875 566.63671875 366.328125L564.0 368.9296875V369.05859375H571.3828125V372.0Z M578.703125 372.22265625Q577.84765625 372.22265625 577.26171875 371.642578125Q576.67578125 371.0625 576.67578125 370.20703125Q576.67578125 369.3515625 577.26171875 368.771484375Q577.84765625 368.19140625 578.703125 368.19140625Q579.55859375 368.19140625 580.14453125 368.771484375Q580.73046875 369.3515625 580.73046875 370.20703125Q580.73046875 371.0625 580.14453125 371.642578125Q579.55859375 372.22265625 578.703125 372.22265625Z M589.8671875 372.2578125Q587.9921875 372.2578125 586.75 371.267578125Q585.5078125 370.27734375 585.5078125 368.33203125Q585.5078125 366.8671875 586.2109375 366.03515625Q586.9140625 365.203125 588.0390625 364.81640625Q589.1640625 364.4296875 590.453125 364.3125Q592.140625 364.1484375 592.884765625 363.966796875Q593.62890625 363.78515625 593.62890625 363.140625V363.08203125Q593.62890625 362.25 593.095703125 361.79296875Q592.5625 361.3359375 591.578125 361.3359375Q590.55859375 361.3359375 589.9375 361.775390625Q589.31640625 362.21484375 589.10546875 362.84765625L585.8828125 362.30859375Q586.38671875 360.609375 587.892578125 359.671875Q589.3984375 358.734375 591.58984375 358.734375Q592.99609375 358.734375 594.267578125 359.1796875Q595.5390625 359.625 596.341796875 360.603515625Q597.14453125 361.58203125 597.14453125 363.17578125V372.0H593.81640625V370.18359375H593.69921875Q593.21875 371.09765625 592.26953125 371.677734375Q591.3203125 372.2578125 589.8671875 372.2578125ZM590.86328125 369.78515625Q592.09375 369.78515625 592.873046875 369.0703125Q593.65234375 368.35546875 593.65234375 367.3125V365.89453125Q593.44140625 366.046875 592.966796875 366.158203125Q592.4921875 366.26953125 591.96484375 366.357421875Q591.4375 366.4453125 591.05078125 366.4921875Q590.078125 366.6328125 589.48046875 367.04296875Q588.8828125 367.453125 588.8828125 368.23828125Q588.8828125 369.0 589.439453125 369.392578125Q589.99609375 369.78515625 590.86328125 369.78515625Z M602.14453125 372.0V358.8984375H605.66015625V372.0ZM603.90234375 357.1875Q603.10546875 357.1875 602.54296875 356.66015625Q601.98046875 356.1328125 601.98046875 355.3828125Q601.98046875 354.6328125 602.54296875 354.10546875Q603.10546875 353.578125 603.90234375 353.578125Q604.69921875 353.578125 605.267578125 354.10546875Q605.8359375 354.6328125 605.8359375 355.3828125Q605.8359375 356.1328125 605.267578125 356.66015625Q604.69921875 357.1875 603.90234375 357.1875Z" fill="#0E1116"/>
  </g>

</svg>
