<?xml version="1.0" encoding="UTF-8"?>
<svg xmlns="http://www.w3.org/2000/svg" viewBox="0 0 1500 500" preserveAspectRatio="xMidYMid meet">


  <defs>
    <pattern id="xdots" width="22" height="22" patternUnits="userSpaceOnUse">
      <circle cx="2" cy="2" r="1.1" fill="rgba(250,246,238,0.08)"/>
    </pattern>
  </defs>
  <rect width="1500" height="500" fill="#0E1116"/>
  <rect width="1500" height="500" fill="url(#xdots)"/>
  <rect x="0" y="0" width="14" height="500" fill="#F5C518"/>
  <g transform="translate(120,140)">
    <rect x="20" y="20" width="200" height="200" rx="20" fill="none" stroke="#FAF6EE" stroke-width="6"/>
  <path d="M41.380859375 60.376953125V57.08203125L49.8984375 43.62890625H55.134765625V57.013671875H57.677734375V60.376953125H55.134765625V64.0H51.12890625V60.376953125ZM51.2109375 57.013671875V48.22265625H51.046875L45.591796875 56.849609375V57.013671875Z M60.130859375 64.0V60.9921875L67.349609375 54.224609375Q68.73046875 52.87109375 69.4755859375 51.8662109375Q70.220703125 50.861328125 70.220703125 49.630859375Q70.220703125 48.263671875 69.3251953125 47.4775390625Q68.4296875 46.69140625 67.0625 46.69140625Q65.640625 46.69140625 64.7861328125 47.5390625Q63.931640625 48.38671875 63.931640625 49.876953125H59.939453125Q59.939453125 47.89453125 60.8486328125 46.4248046875Q61.7578125 44.955078125 63.37109375 44.1552734375Q64.984375 43.35546875 67.08984375 43.35546875Q69.25 43.35546875 70.86328125 44.1279296875Q72.4765625 44.900390625 73.3720703125 46.25390625Q74.267578125 47.607421875 74.267578125 49.37109375Q74.267578125 50.505859375 73.8232421875 51.61328125Q73.37890625 52.720703125 72.2373046875 54.0947265625Q71.095703125 55.46875 69.00390625 57.3828125L65.927734375 60.41796875V60.568359375H74.541015625V64.0Z" fill="#FAF6EE"/>
  <circle cx="200" cy="48" r="6" fill="#F5C518"/>
  <path d="M37.23828125 148.0V89.796875H58.72265625L66.14453125 112.453125Q66.73046875 114.4453125 67.4921875 117.6484375Q68.25390625 120.8515625 69.03515625 124.5625Q69.81640625 128.2734375 70.51953125 131.75Q71.18359375 128.2734375 71.9453125 124.58203125Q72.70703125 120.890625 73.46875 117.66796875Q74.23046875 114.4453125 74.81640625 112.453125L82.12109375 89.796875H103.64453125V148.0H89.77734375V122.921875Q89.77734375 120.6953125 89.875 117.08203125Q89.97265625 113.46875 90.08984375 109.25Q90.20703125 105.03125 90.28515625 101.125Q89.30859375 105.265625 88.234375 109.4453125Q87.16015625 113.625 86.18359375 117.16015625Q85.20703125 120.6953125 84.50390625 122.921875L76.22265625 148.0H64.69921875L56.30078125 122.921875Q55.63671875 120.7734375 54.66015625 117.375Q53.68359375 113.9765625 52.609375 109.93359375Q51.53515625 105.890625 50.55859375 101.7890625Q50.63671875 105.6171875 50.75390625 109.6796875Q50.87109375 113.7421875 50.96875 117.23828125Q51.06640625 120.734375 51.06640625 122.921875V148.0Z M109.70703125 148.0V89.796875H123.49609375V112.6484375H146.73828125V89.796875H160.48828125V148.0H146.73828125V123.8984375H123.49609375V148.0Z M166.58984375 148.0V89.796875H180.37890625V136.75H204.71484375V148.0Z" fill="#FAF6EE"/>
  </g>
  <g>
    <path d="M424.3046875 236.0V180.70703125H444.71484375L451.765625 202.23046875Q452.322265625 204.123046875 453.0458984375 207.166015625Q453.76953125 210.208984375 454.51171875 213.734375Q455.25390625 217.259765625 455.921875 220.5625Q456.552734375 217.259765625 457.2763671875 213.7529296875Q458.0 210.24609375 458.7236328125 207.1845703125Q459.447265625 204.123046875 460.00390625 202.23046875L466.943359375 180.70703125H487.390625V236.0H474.216796875V212.17578125Q474.216796875 210.060546875 474.3095703125 206.6279296875Q474.40234375 203.1953125 474.513671875 199.1875Q474.625 195.1796875 474.69921875 191.46875Q473.771484375 195.40234375 472.7509765625 199.373046875Q471.73046875 203.34375 470.802734375 206.7021484375Q469.875 210.060546875 469.20703125 212.17578125L461.33984375 236.0H450.392578125L442.4140625 212.17578125Q441.783203125 210.134765625 440.85546875 206.90625Q439.927734375 203.677734375 438.9072265625 199.8369140625Q437.88671875 195.99609375 436.958984375 192.099609375Q437.033203125 195.736328125 437.14453125 199.595703125Q437.255859375 203.455078125 437.3486328125 206.7763671875Q437.44140625 210.09765625 437.44140625 212.17578125V236.0Z M513.22265625 236.779296875Q506.728515625 236.779296875 502.052734375 234.0888671875Q497.376953125 231.3984375 494.8720703125 226.5927734375Q492.3671875 221.787109375 492.3671875 215.404296875Q492.3671875 209.021484375 494.8720703125 204.197265625Q497.376953125 199.373046875 502.052734375 196.6826171875Q506.728515625 193.9921875 513.22265625 193.9921875Q519.716796875 193.9921875 524.3740234375 196.6826171875Q529.03125 199.373046875 531.5361328125 204.197265625Q534.041015625 209.021484375 534.041015625 215.404296875Q534.041015625 221.787109375 531.5361328125 226.5927734375Q529.03125 231.3984375 524.3740234375 234.0888671875Q519.716796875 236.779296875 513.22265625 236.779296875ZM513.22265625 226.87109375Q516.93359375 226.87109375 518.900390625 223.6982421875Q520.8671875 220.525390625 520.8671875 215.330078125Q520.8671875 210.134765625 518.900390625 207.017578125Q516.93359375 203.900390625 513.22265625 203.900390625Q509.51171875 203.900390625 507.544921875 207.017578125Q505.578125 210.134765625 505.578125 215.330078125Q505.578125 220.525390625 507.544921875 223.6982421875Q509.51171875 226.87109375 513.22265625 226.87109375Z M556.49609375 236.779296875Q548.517578125 236.779296875 543.3779296875 233.4208984375Q538.23828125 230.0625 537.162109375 224.125L549.185546875 222.232421875Q549.96484375 224.94140625 551.8203125 226.314453125Q553.67578125 227.6875 556.978515625 227.6875Q559.6875 227.6875 561.24609375 226.7412109375Q562.8046875 225.794921875 562.8046875 224.236328125Q562.8046875 221.52734375 557.720703125 220.525390625L550.484375 219.115234375Q538.201171875 216.77734375 538.201171875 207.166015625Q538.201171875 200.96875 543.1552734375 197.48046875Q548.109375 193.9921875 556.458984375 193.9921875Q564.251953125 193.9921875 568.96484375 197.072265625Q573.677734375 200.15234375 574.75390625 205.49609375L563.32421875 207.314453125Q562.0625 202.8984375 556.681640625 202.8984375Q554.34375 202.8984375 552.7294921875 203.8447265625Q551.115234375 204.791015625 551.115234375 206.38671875Q551.115234375 207.6484375 552.1171875 208.5947265625Q553.119140625 209.541015625 555.791015625 210.060546875L563.732421875 211.544921875Q575.94140625 213.845703125 575.94140625 222.751953125Q575.94140625 227.01953125 573.4365234375 230.173828125Q570.931640625 233.328125 566.552734375 235.0537109375Q562.173828125 236.779296875 556.49609375 236.779296875Z M602.9609375 194.51171875V204.123046875H595.501953125V223.30859375Q595.501953125 226.537109375 598.8046875 226.537109375Q599.47265625 226.537109375 600.6787109375 226.3701171875Q601.884765625 226.203125 602.404296875 226.091796875L604.07421875 235.517578125Q601.884765625 236.1484375 599.84375 236.37109375Q597.802734375 236.59375 595.984375 236.59375Q589.37890625 236.59375 585.96484375 233.4951171875Q582.55078125 230.396484375 582.55078125 224.458984375V204.123046875H577.05859375V194.51171875H582.55078125V184.640625H595.501953125V194.51171875Z M620.5546875 180.70703125V236.0H607.603515625V180.70703125Z M627.015625 250.546875 629.91015625 241.083984375 631.54296875 241.529296875Q635.03125 242.45703125 637.18359375 241.41796875Q639.3359375 240.37890625 639.1875 237.818359375L639.150390625 236.07421875L623.67578125 194.51171875H637.33203125L643.529296875 214.810546875Q644.345703125 217.482421875 644.90234375 220.154296875Q645.458984375 222.826171875 645.978515625 225.609375Q646.609375 222.7890625 647.314453125 220.1171875Q648.01953125 217.4453125 648.873046875 214.810546875L655.515625 194.51171875H669.0234375L651.619140625 240.37890625Q649.7265625 245.42578125 645.978515625 248.6171875Q642.23046875 251.80859375 635.25390625 251.80859375Q630.244140625 251.80859375 627.015625 250.546875Z M686.76953125 236.0V180.70703125H699.869140625V202.416015625H721.94921875V180.70703125H735.01171875V236.0H721.94921875V213.103515625H699.869140625V236.0Z M753.236328125 236.7421875Q747.26171875 236.7421875 743.4208984375 233.69921875Q739.580078125 230.65625 739.580078125 224.49609375Q739.580078125 219.89453125 741.6953125 217.185546875Q743.810546875 214.4765625 747.3173828125 213.177734375Q750.82421875 211.87890625 755.017578125 211.5078125Q760.287109375 211.0625 762.5693359375 210.4130859375Q764.8515625 209.763671875 764.8515625 207.833984375V207.685546875Q764.8515625 205.533203125 763.3486328125 204.3642578125Q761.845703125 203.1953125 759.2109375 203.1953125Q756.501953125 203.1953125 754.7578125 204.345703125Q753.013671875 205.49609375 752.494140625 207.462890625L740.767578125 205.94140625Q741.9921875 200.634765625 746.7607421875 197.3134765625Q751.529296875 193.9921875 759.322265625 193.9921875Q764.48046875 193.9921875 768.6552734375 195.587890625Q772.830078125 197.18359375 775.2978515625 200.2822265625Q777.765625 203.380859375 777.765625 207.833984375V236.0H765.59375V230.173828125H765.259765625Q761.80859375 236.7421875 753.236328125 236.7421875ZM757.169921875 228.169921875Q760.435546875 228.169921875 762.69921875 226.240234375Q764.962890625 224.310546875 764.962890625 221.23046875V217.259765625Q763.849609375 217.853515625 761.734375 218.26171875Q759.619140625 218.669921875 757.80078125 218.966796875Q751.826171875 219.857421875 751.826171875 223.90234375Q751.826171875 225.98046875 753.3291015625 227.0751953125Q754.83203125 228.169921875 757.169921875 228.169921875Z M784.337890625 236.0V194.51171875H796.91796875V202.08203125H797.36328125Q798.4765625 198.0 801.0556640625 195.99609375Q803.634765625 193.9921875 807.048828125 193.9921875Q808.94140625 193.9921875 810.72265625 194.4375V205.71875Q809.794921875 205.384765625 808.2919921875 205.2177734375Q806.7890625 205.05078125 805.6015625 205.05078125Q802.001953125 205.05078125 799.6455078125 207.3515625Q797.2890625 209.65234375 797.2890625 213.36328125V236.0Z M814.251953125 236.0V194.51171875H826.1640625L826.7578125 202.75Q828.46484375 198.07421875 831.7119140625 196.0146484375Q834.958984375 193.955078125 838.70703125 193.955078125Q842.640625 193.955078125 845.2568359375 196.21875Q847.873046875 198.482421875 849.39453125 203.56640625Q851.287109375 198.4453125 854.9794921875 196.2001953125Q858.671875 193.955078125 862.865234375 193.955078125Q868.69140625 193.955078125 872.4208984375 197.703125Q876.150390625 201.451171875 876.150390625 208.01953125V236.0H863.19921875V210.951171875Q863.19921875 207.796875 861.56640625 206.1640625Q859.93359375 204.53125 857.373046875 204.53125Q854.626953125 204.53125 853.03125 206.3310546875Q851.435546875 208.130859375 851.435546875 211.099609375V236.0H839.00390625V210.765625Q839.00390625 207.908203125 837.3896484375 206.2197265625Q835.775390625 204.53125 833.21484375 204.53125Q830.580078125 204.53125 828.8916015625 206.3125Q827.203125 208.09375 827.203125 211.359375V236.0Z M895.673828125 180.70703125V236.0H882.72265625V180.70703125Z M921.580078125 236.779296875Q911.8203125 236.779296875 906.2353515625 231.0830078125Q900.650390625 225.38671875 900.650390625 215.404296875Q900.650390625 209.021484375 903.1552734375 204.197265625Q905.66015625 199.373046875 910.26171875 196.6826171875Q914.86328125 193.9921875 921.09765625 193.9921875Q926.923828125 193.9921875 931.4326171875 196.4228515625Q935.94140625 198.853515625 938.5205078125 203.5849609375Q941.099609375 208.31640625 941.099609375 215.14453125V218.41015625H913.37890625Q913.564453125 222.900390625 915.8466796875 225.1455078125Q918.12890625 227.390625 921.802734375 227.390625Q924.400390625 227.390625 926.29296875 226.2958984375Q928.185546875 225.201171875 928.96484375 223.123046875L940.505859375 225.015625Q938.947265625 230.396484375 934.0302734375 233.587890625Q929.11328125 236.779296875 921.580078125 236.779296875ZM913.453125 210.876953125H928.81640625Q928.4453125 207.3515625 926.515625 205.3662109375Q924.5859375 203.380859375 921.208984375 203.380859375Q917.794921875 203.380859375 915.8095703125 205.4033203125Q913.82421875 207.42578125 913.453125 210.876953125Z M963.369140625 236.779296875Q955.390625 236.779296875 950.2509765625 233.4208984375Q945.111328125 230.0625 944.03515625 224.125L956.05859375 222.232421875Q956.837890625 224.94140625 958.693359375 226.314453125Q960.548828125 227.6875 963.8515625 227.6875Q966.560546875 227.6875 968.119140625 226.7412109375Q969.677734375 225.794921875 969.677734375 224.236328125Q969.677734375 221.52734375 964.59375 220.525390625L957.357421875 219.115234375Q945.07421875 216.77734375 945.07421875 207.166015625Q945.07421875 200.96875 950.0283203125 197.48046875Q954.982421875 193.9921875 963.33203125 193.9921875Q971.125 193.9921875 975.837890625 197.072265625Q980.55078125 200.15234375 981.626953125 205.49609375L970.197265625 207.314453125Q968.935546875 202.8984375 963.5546875 202.8984375Q961.216796875 202.8984375 959.6025390625 203.8447265625Q957.98828125 204.791015625 957.98828125 206.38671875Q957.98828125 207.6484375 958.990234375 208.5947265625Q959.9921875 209.541015625 962.6640625 210.060546875L970.60546875 211.544921875Q982.814453125 213.845703125 982.814453125 222.751953125Q982.814453125 227.01953125 980.3095703125 230.173828125Q977.8046875 233.328125 973.42578125 235.0537109375Q969.046875 236.779296875 963.369140625 236.779296875Z M1004.935546875 236.779296875Q996.95703125 236.779296875 991.8173828125 233.4208984375Q986.677734375 230.0625 985.6015625 224.125L997.625 222.232421875Q998.404296875 224.94140625 1000.259765625 226.314453125Q1002.115234375 227.6875 1005.41796875 227.6875Q1008.126953125 227.6875 1009.685546875 226.7412109375Q1011.244140625 225.794921875 1011.244140625 224.236328125Q1011.244140625 221.52734375 1006.16015625 220.525390625L998.923828125 219.115234375Q986.640625 216.77734375 986.640625 207.166015625Q986.640625 200.96875 991.5947265625 197.48046875Q996.548828125 193.9921875 1004.8984375 193.9921875Q1012.69140625 193.9921875 1017.404296875 197.072265625Q1022.1171875 200.15234375 1023.193359375 205.49609375L1011.763671875 207.314453125Q1010.501953125 202.8984375 1005.12109375 202.8984375Q1002.783203125 202.8984375 1001.1689453125 203.8447265625Q999.5546875 204.791015625 999.5546875 206.38671875Q999.5546875 207.6484375 1000.556640625 208.5947265625Q1001.55859375 209.541015625 1004.23046875 210.060546875L1012.171875 211.544921875Q1024.380859375 213.845703125 1024.380859375 222.751953125Q1024.380859375 227.01953125 1021.8759765625 230.173828125Q1019.37109375 233.328125 1014.9921875 235.0537109375Q1010.61328125 236.779296875 1004.935546875 236.779296875Z" fill="#FAF6EE"/>
    <path d="M426.302734375 286.341796875Q424.83984375 286.341796875 423.6708984375 285.8017578125Q422.501953125 285.26171875 421.818359375 284.22265625Q421.134765625 283.18359375 421.134765625 281.6796875Q421.134765625 280.380859375 421.640625 279.5400390625Q422.146484375 278.69921875 422.994140625 278.2138671875Q423.841796875 277.728515625 424.8876953125 277.482421875Q425.93359375 277.236328125 427.013671875 277.11328125Q429.037109375 276.880859375 429.953125 276.7099609375Q430.869140625 276.5390625 430.869140625 275.732421875V275.650390625Q430.869140625 274.37890625 430.1240234375 273.6748046875Q429.37890625 272.970703125 427.943359375 272.970703125Q426.439453125 272.970703125 425.578125 273.626953125Q424.716796875 274.283203125 424.40234375 275.0625L421.572265625 274.32421875Q422.091796875 272.95703125 423.0625 272.123046875Q424.033203125 271.2890625 425.2841796875 270.90625Q426.53515625 270.5234375 427.90234375 270.5234375Q428.818359375 270.5234375 429.857421875 270.7421875Q430.896484375 270.9609375 431.8125 271.5283203125Q432.728515625 272.095703125 433.302734375 273.1484375Q433.876953125 274.201171875 433.876953125 275.85546875V286.0H430.96484375V283.908203125H430.814453125Q430.36328125 284.810546875 429.2626953125 285.576171875Q428.162109375 286.341796875 426.302734375 286.341796875ZM426.97265625 283.921875Q428.189453125 283.921875 429.064453125 283.4365234375Q429.939453125 282.951171875 430.4111328125 282.171875Q430.8828125 281.392578125 430.8828125 280.490234375V278.53515625Q430.6640625 278.75390625 429.9462890625 278.9111328125Q429.228515625 279.068359375 428.435546875 279.177734375Q427.642578125 279.287109375 427.177734375 279.341796875Q425.90625 279.51953125 424.9970703125 280.0322265625Q424.087890625 280.544921875 424.087890625 281.720703125Q424.087890625 282.814453125 424.9013671875 283.3681640625Q425.71484375 283.921875 426.97265625 283.921875Z M440.631640625 276.94921875V286.0H437.623828125V270.71484375H440.494921875L440.50859375 273.654296875Q441.21953125 272.041015625 442.4158203125 271.2822265625Q443.612109375 270.5234375 445.225390625 270.5234375Q447.56328125 270.5234375 448.9919921875 271.9931640625Q450.420703125 273.462890625 450.420703125 276.29296875V286.0H447.412890625V276.662109375Q447.412890625 275.0078125 446.5515625 274.078125Q445.690234375 273.1484375 444.186328125 273.1484375Q442.655078125 273.1484375 441.643359375 274.1396484375Q440.631640625 275.130859375 440.631640625 276.94921875Z M460.00624999999997 286.0 467.25234374999997 265.62890625H471.08046874999997L478.46328124999997 286.0H475.08632812499997L473.21328124999997 280.626953125H465.20156249999997L463.38320312499997 286.0ZM466.09023437499997 278.029296875H472.29726562499997L471.12148437499997 274.666015625Q470.71132812499997 273.44921875 470.23281249999997 271.8427734375Q469.75429687499997 270.236328125 469.15273437499997 268.076171875Q468.55117187499997 270.263671875 468.07949218749997 271.8837890625Q467.60781249999997 273.50390625 467.22499999999997 274.666015625Z M484.23359374999995 265.62890625V286.0H481.11640624999995V265.62890625Z M498.38554687499993 265.62890625V286.0H495.37773437499993V265.62890625Z M506.4117187499999 286.341796875Q504.9488281249999 286.341796875 503.7798828124999 285.8017578125Q502.6109374999999 285.26171875 501.9273437499999 284.22265625Q501.2437499999999 283.18359375 501.2437499999999 281.6796875Q501.2437499999999 280.380859375 501.7496093749999 279.5400390625Q502.2554687499999 278.69921875 503.1031249999999 278.2138671875Q503.9507812499999 277.728515625 504.9966796874999 277.482421875Q506.0425781249999 277.236328125 507.1226562499999 277.11328125Q509.1460937499999 276.880859375 510.0621093749999 276.7099609375Q510.9781249999999 276.5390625 510.9781249999999 275.732421875V275.650390625Q510.9781249999999 274.37890625 510.2330078124999 273.6748046875Q509.4878906249999 272.970703125 508.0523437499999 272.970703125Q506.5484374999999 272.970703125 505.6871093749999 273.626953125Q504.8257812499999 274.283203125 504.5113281249999 275.0625L501.6812499999999 274.32421875Q502.2007812499999 272.95703125 503.1714843749999 272.123046875Q504.1421874999999 271.2890625 505.3931640624999 270.90625Q506.6441406249999 270.5234375 508.0113281249999 270.5234375Q508.9273437499999 270.5234375 509.9664062499999 270.7421875Q511.0054687499999 270.9609375 511.92148437499986 271.5283203125Q512.8374999999999 272.095703125 513.4117187499999 273.1484375Q513.9859374999999 274.201171875 513.9859374999999 275.85546875V286.0H511.0738281249999V283.908203125H510.9234374999999Q510.4722656249999 284.810546875 509.3716796874999 285.576171875Q508.2710937499999 286.341796875 506.4117187499999 286.341796875ZM507.0816406249999 283.921875Q508.2984374999999 283.921875 509.1734374999999 283.4365234375Q510.0484374999999 282.951171875 510.5201171874999 282.171875Q510.9917968749999 281.392578125 510.9917968749999 280.490234375V278.53515625Q510.7730468749999 278.75390625 510.0552734374999 278.9111328125Q509.3374999999999 279.068359375 508.5445312499999 279.177734375Q507.7515624999999 279.287109375 507.2867187499999 279.341796875Q506.0152343749999 279.51953125 505.1060546874999 280.0322265625Q504.1968749999999 280.544921875 504.1968749999999 281.720703125Q504.1968749999999 282.814453125 505.0103515624999 283.3681640625Q505.8238281249999 283.921875 507.0816406249999 283.921875Z M525.3207031249999 286.30078125Q523.9261718749999 286.30078125 523.0511718749999 285.8291015625Q522.1761718749999 285.357421875 521.6771484374999 284.728515625Q521.1781249999999 284.099609375 520.9046874999999 283.607421875H520.6585937499999V286.0H517.7328124999999V265.62890625H520.7406249999999V273.203125H520.9046874999999Q521.1644531249999 272.73828125 521.6498046874999 272.1025390625Q522.1351562499999 271.466796875 523.0101562499999 270.9951171875Q523.8851562499999 270.5234375 525.3207031249999 270.5234375Q527.1527343749999 270.5234375 528.5951171874999 271.453125Q530.0374999999999 272.3828125 530.8714843749999 274.146484375Q531.7054687499999 275.91015625 531.7054687499999 278.3984375Q531.7054687499999 280.859375 530.8851562499999 282.63671875Q530.0648437499999 284.4140625 528.6224609374999 285.357421875Q527.1800781249999 286.30078125 525.3207031249999 286.30078125ZM524.6507812499999 283.744140625Q525.9632812499999 283.744140625 526.8451171874999 283.033203125Q527.7269531249999 282.322265625 528.1781249999999 281.10546875Q528.6292968749999 279.888671875 528.6292968749999 278.37109375Q528.6292968749999 276.8671875 528.1849609374999 275.6708984375Q527.7406249999999 274.474609375 526.8587890624999 273.77734375Q525.9769531249999 273.080078125 524.6507812499999 273.080078125Q522.7093749999999 273.080078125 521.6976562499999 274.5361328125Q520.6859374999999 275.9921875 520.6859374999999 278.37109375Q520.6859374999999 280.763671875 521.7113281249999 282.25390625Q522.7367187499999 283.744140625 524.6507812499999 283.744140625Z M547.8125 286.287109375Q545.76171875 286.287109375 544.2783203125 285.53515625Q542.794921875 284.783203125 541.9951171875 283.51171875Q541.1953125 282.240234375 541.1953125 280.66796875Q541.1953125 279.396484375 541.701171875 278.453125Q542.20703125 277.509765625 543.0888671875 276.7099609375Q543.970703125 275.91015625 545.1328125 275.076171875Q544.1484375 273.88671875 543.5263671875 272.7451171875Q542.904296875 271.603515625 542.904296875 270.208984375Q542.904296875 268.828125 543.5400390625 267.7412109375Q544.17578125 266.654296875 545.337890625 266.0390625Q546.5 265.423828125 548.05859375 265.423828125Q549.630859375 265.423828125 550.7587890625 266.0322265625Q551.88671875 266.640625 552.501953125 267.6728515625Q553.1171875 268.705078125 553.1171875 269.94921875Q553.1171875 271.357421875 552.365234375 272.46484375Q551.61328125 273.572265625 550.41015625 274.4609375L549.015625 275.486328125L553.076171875 280.3125Q553.47265625 279.546875 553.69140625 278.64453125Q553.91015625 277.7421875 553.91015625 276.716796875H556.630859375Q556.630859375 278.8359375 556.111328125 280.2509765625Q555.591796875 281.666015625 554.935546875 282.52734375L557.84765625 286.0H554.4296875L553.0625 284.4140625Q552.0234375 285.357421875 550.6015625 285.822265625Q549.1796875 286.287109375 547.8125 286.287109375ZM551.3671875 282.41796875 546.828125 277.0859375 546.30859375 277.46875Q545.1875 278.302734375 544.7021484375 279.0341796875Q544.216796875 279.765625 544.216796875 280.66796875Q544.216796875 282.048828125 545.1875 282.896484375Q546.158203125 283.744140625 547.73046875 283.744140625Q549.7265625 283.744140625 551.3671875 282.41796875ZM547.361328125 273.50390625 548.619140625 272.6015625Q549.193359375 272.19140625 549.7744140625 271.5625Q550.35546875 270.93359375 550.35546875 269.9765625Q550.35546875 269.1015625 549.7607421875 268.5205078125Q549.166015625 267.939453125 548.11328125 267.939453125Q547.046875 267.939453125 546.390625 268.568359375Q545.734375 269.197265625 545.734375 270.208984375Q545.734375 271.056640625 546.1787109375 271.8291015625Q546.623046875 272.6015625 547.361328125 273.50390625Z M572.5464843750001 286.314453125Q570.0582031250001 286.314453125 568.4244140625001 285.2412109375Q566.7906250000001 284.16796875 566.3804687500001 282.130859375L569.2105468750001 281.54296875Q569.8257812500001 283.880859375 572.5738281250001 283.880859375Q574.0367187500001 283.880859375 574.8912109375001 283.2724609375Q575.7457031250001 282.6640625 575.7457031250001 281.81640625Q575.7457031250001 280.3671875 573.5992187500001 279.888671875L571.0289062500001 279.30078125Q566.8179687500001 278.357421875 566.8179687500001 275.076171875Q566.8179687500001 273.708984375 567.5767578125001 272.68359375Q568.3355468750001 271.658203125 569.6685546875001 271.0908203125Q571.0015625000001 270.5234375 572.7378906250001 270.5234375Q575.2125000000001 270.5234375 576.6207031250001 271.5830078125Q578.0289062500001 272.642578125 578.5210937500001 274.337890625L575.8277343750001 274.92578125Q575.5406250000001 274.119140625 574.8296875000001 273.5107421875Q574.1187500000001 272.90234375 572.7652343750001 272.90234375Q571.5210937500001 272.90234375 570.6871093750001 273.462890625Q569.8531250000001 274.0234375 569.8531250000001 274.884765625Q569.8531250000001 275.650390625 570.4068359375001 276.1220703125Q570.9605468750001 276.59375 572.2183593750001 276.880859375L574.6792968750001 277.427734375Q578.8492187500001 278.37109375 578.8492187500001 281.556640625Q578.8492187500001 282.951171875 578.0494140625001 284.0244140625Q577.2496093750001 285.09765625 575.8277343750001 285.7060546875Q574.4058593750001 286.314453125 572.5464843750001 286.314453125Z M588.3792968750001 270.71484375V273.162109375H585.3304687500001V281.87109375Q585.3304687500001 282.787109375 585.7201171875001 283.2177734375Q586.1097656250001 283.6484375 586.9984375000001 283.6484375Q587.2445312500001 283.6484375 587.6205078125001 283.59375Q587.9964843750001 283.5390625 588.2699218750001 283.484375L588.8031250000001 285.890625Q588.3246093750001 286.0546875 587.7708984375001 286.1298828125Q587.2171875000001 286.205078125 586.6976562500001 286.205078125Q584.6195312500001 286.205078125 583.4710937500001 285.1318359375Q582.3226562500001 284.05859375 582.3226562500001 282.1171875V273.162109375H580.0941406250001V270.71484375H582.3226562500001V267.078125H585.3304687500001V270.71484375Z M596.2824218750002 286.19140625Q593.9445312500002 286.19140625 592.5089843750002 284.7216796875Q591.0734375000002 283.251953125 591.0734375000002 280.421875V270.71484375H594.0812500000002V280.052734375Q594.0812500000002 281.70703125 594.9494140625002 282.63671875Q595.8175781250002 283.56640625 597.3078125000002 283.56640625Q598.8390625000002 283.56640625 599.8507812500002 282.5751953125Q600.8625000000002 281.583984375 600.8625000000002 279.765625V270.71484375H603.8839843750002V286.0H600.9992187500002L600.9855468750002 283.033203125Q600.2609375000002 284.701171875 599.0646484375002 285.4462890625Q597.8683593750002 286.19140625 596.2824218750002 286.19140625Z M613.3046875000002 286.30078125Q611.4453125000002 286.30078125 610.0029296875002 285.357421875Q608.5605468750002 284.4140625 607.7333984375002 282.63671875Q606.9062500000002 280.859375 606.9062500000002 278.3984375Q606.9062500000002 275.91015625 607.7402343750002 274.146484375Q608.5742187500002 272.3828125 610.0166015625002 271.453125Q611.4589843750002 270.5234375 613.3046875000002 270.5234375Q614.7265625000002 270.5234375 615.6015625000002 270.9951171875Q616.4765625000002 271.466796875 616.9619140625002 272.1025390625Q617.4472656250002 272.73828125 617.7070312500002 273.203125H617.8710937500002V265.62890625H620.8789062500002V286.0H617.9531250000002V283.607421875H617.7070312500002Q617.4335937500002 284.099609375 616.9345703125002 284.728515625Q616.4355468750002 285.357421875 615.5605468750002 285.8291015625Q614.6855468750002 286.30078125 613.3046875000002 286.30078125ZM613.9609375000002 283.744140625Q615.8750000000002 283.744140625 616.9003906250002 282.25390625Q617.9257812500002 280.763671875 617.9257812500002 278.37109375Q617.9257812500002 275.9921875 616.9140625000002 274.5361328125Q615.9023437500002 273.080078125 613.9609375000002 273.080078125Q612.6347656250002 273.080078125 611.7529296875002 273.77734375Q610.8710937500002 274.474609375 610.4267578125002 275.6708984375Q609.9824218750002 276.8671875 609.9824218750002 278.37109375Q609.9824218750002 279.888671875 610.4335937500002 281.10546875Q610.8847656250002 282.322265625 611.7734375000002 283.033203125Q612.6621093750002 283.744140625 613.9609375000002 283.744140625Z M624.6257812500003 286.0V270.71484375H627.6335937500003V286.0ZM626.1433593750003 268.376953125Q625.3640625000003 268.376953125 624.8103515625003 267.857421875Q624.2566406250003 267.337890625 624.2566406250003 266.599609375Q624.2566406250003 265.84765625 624.8103515625003 265.328125Q625.3640625000003 264.80859375 626.1433593750003 264.80859375Q626.9226562500003 264.80859375 627.4832031250003 265.328125Q628.0437500000003 265.84765625 628.0437500000003 266.599609375Q628.0437500000003 267.337890625 627.4832031250003 267.857421875Q626.9226562500003 268.376953125 626.1433593750003 268.376953125Z M637.8062500000003 286.314453125Q635.6597656250003 286.314453125 634.0533203125003 285.330078125Q632.4468750000003 284.345703125 631.5582031250003 282.5751953125Q630.6695312500003 280.8046875 630.6695312500003 278.439453125Q630.6695312500003 276.060546875 631.5582031250003 274.2763671875Q632.4468750000003 272.4921875 634.0533203125003 271.5078125Q635.6597656250003 270.5234375 637.8062500000003 270.5234375Q639.9664062500003 270.5234375 641.5728515625003 271.5078125Q643.1792968750003 272.4921875 644.0679687500003 274.2763671875Q644.9566406250003 276.060546875 644.9566406250003 278.439453125Q644.9566406250003 280.8046875 644.0679687500003 282.5751953125Q643.1792968750003 284.345703125 641.5728515625003 285.330078125Q639.9664062500003 286.314453125 637.8062500000003 286.314453125ZM637.8062500000003 283.771484375Q639.2007812500003 283.771484375 640.1099609375003 283.0400390625Q641.0191406250003 282.30859375 641.4634765625003 281.0986328125Q641.9078125000003 279.888671875 641.9078125000003 278.439453125Q641.9078125000003 276.9765625 641.4634765625003 275.7529296875Q641.0191406250003 274.529296875 640.1099609375003 273.7978515625Q639.2007812500003 273.06640625 637.8062500000003 273.06640625Q636.4253906250003 273.06640625 635.5230468750003 273.7978515625Q634.6207031250003 274.529296875 634.1763671875003 275.7529296875Q633.7320312500003 276.9765625 633.7320312500003 278.439453125Q633.7320312500003 279.888671875 634.1763671875003 281.0986328125Q634.6207031250003 282.30859375 635.5230468750003 283.0400390625Q636.4253906250003 283.771484375 637.8062500000003 283.771484375Z M681.1339843750004 276.1015625V278.712890625H653.1339843750004V276.1015625Z M694.3015625000005 286.341796875Q692.8386718750005 286.341796875 691.6697265625005 285.8017578125Q690.5007812500005 285.26171875 689.8171875000005 284.22265625Q689.1335937500005 283.18359375 689.1335937500005 281.6796875Q689.1335937500005 280.380859375 689.6394531250005 279.5400390625Q690.1453125000005 278.69921875 690.9929687500005 278.2138671875Q691.8406250000005 277.728515625 692.8865234375005 277.482421875Q693.9324218750005 277.236328125 695.0125000000005 277.11328125Q697.0359375000005 276.880859375 697.9519531250005 276.7099609375Q698.8679687500005 276.5390625 698.8679687500005 275.732421875V275.650390625Q698.8679687500005 274.37890625 698.1228515625005 273.6748046875Q697.3777343750005 272.970703125 695.9421875000005 272.970703125Q694.4382812500005 272.970703125 693.5769531250005 273.626953125Q692.7156250000005 274.283203125 692.4011718750005 275.0625L689.5710937500005 274.32421875Q690.0906250000005 272.95703125 691.0613281250005 272.123046875Q692.0320312500005 271.2890625 693.2830078125005 270.90625Q694.5339843750005 270.5234375 695.9011718750005 270.5234375Q696.8171875000005 270.5234375 697.8562500000005 270.7421875Q698.8953125000005 270.9609375 699.8113281250005 271.5283203125Q700.7273437500005 272.095703125 701.3015625000005 273.1484375Q701.8757812500005 274.201171875 701.8757812500005 275.85546875V286.0H698.9636718750005V283.908203125H698.8132812500005Q698.3621093750005 284.810546875 697.2615234375005 285.576171875Q696.1609375000005 286.341796875 694.3015625000005 286.341796875ZM694.9714843750005 283.921875Q696.1882812500005 283.921875 697.0632812500005 283.4365234375Q697.9382812500005 282.951171875 698.4099609375005 282.171875Q698.8816406250005 281.392578125 698.8816406250005 280.490234375V278.53515625Q698.6628906250005 278.75390625 697.9451171875005 278.9111328125Q697.2273437500005 279.068359375 696.4343750000005 279.177734375Q695.6414062500005 279.287109375 695.1765625000005 279.341796875Q693.9050781250005 279.51953125 692.9958984375005 280.0322265625Q692.0867187500005 280.544921875 692.0867187500005 281.720703125Q692.0867187500005 282.814453125 692.9001953125005 283.3681640625Q693.7136718750005 283.921875 694.9714843750005 283.921875Z M712.0210937500005 292.04296875Q709.3687500000005 292.04296875 707.7691406250005 291.072265625Q706.1695312500005 290.1015625 705.5269531250005 288.720703125L708.0425781250005 287.53125Q708.3160156250005 287.96875 708.7740234375005 288.4541015625Q709.2320312500005 288.939453125 710.0044921875005 289.28125Q710.7769531250005 289.623046875 712.0074218750005 289.623046875Q713.7437500000005 289.623046875 714.8375000000005 288.7958984375Q715.9312500000005 287.96875 715.9312500000005 286.205078125V283.224609375H715.6714843750005Q715.3980468750005 283.73046875 714.9126953125005 284.318359375Q714.4273437500005 284.90625 713.5591796875005 285.3369140625Q712.6910156250005 285.767578125 711.2964843750005 285.767578125Q709.4917968750005 285.767578125 708.0494140625005 284.919921875Q706.6070312500005 284.072265625 705.7593750000005 282.4111328125Q704.9117187500005 280.75 704.9117187500005 278.302734375Q704.9117187500005 275.869140625 705.7525390625005 274.1259765625Q706.5933593750005 272.3828125 708.0425781250005 271.453125Q709.4917968750005 270.5234375 711.3375000000005 270.5234375Q712.7457031250005 270.5234375 713.6275390625005 270.9951171875Q714.5093750000005 271.466796875 715.0083984375005 272.095703125Q715.5074218750005 272.724609375 715.7671875000005 273.203125H715.9859375000005V270.71484375H718.9253906250005V286.21875Q718.9253906250005 288.228515625 718.0093750000005 289.513671875Q717.0933593750005 290.798828125 715.5347656250005 291.4208984375Q713.9761718750005 292.04296875 712.0210937500005 292.04296875ZM711.9937500000005 283.265625Q713.9078125000005 283.265625 714.9263671875005 281.939453125Q715.9449218750005 280.61328125 715.9449218750005 278.26171875Q715.9449218750005 275.96484375 714.9400390625005 274.5224609375Q713.9351562500005 273.080078125 711.9937500000005 273.080078125Q710.6675781250005 273.080078125 709.7720703125005 273.7705078125Q708.8765625000005 274.4609375 708.4322265625005 275.6298828125Q707.9878906250005 276.798828125 707.9878906250005 278.26171875Q707.9878906250005 280.50390625 709.0064453125005 281.884765625Q710.0250000000005 283.265625 711.9937500000005 283.265625Z M729.2621093750006 286.314453125Q727.0062500000006 286.314453125 725.3656250000006 285.34375Q723.7250000000006 284.373046875 722.8431640625006 282.609375Q721.9613281250006 280.845703125 721.9613281250006 278.466796875Q721.9613281250006 276.115234375 722.8294921875006 274.32421875Q723.6976562500006 272.533203125 725.2835937500006 271.5283203125Q726.8695312500006 270.5234375 729.0023437500006 270.5234375Q730.7386718750006 270.5234375 732.3041015625006 271.2958984375Q733.8695312500006 272.068359375 734.8470703125006 273.7568359375Q735.8246093750006 275.4453125 735.8246093750006 278.20703125V279.2734375H724.9828125000006Q725.0648437500006 281.48828125 726.2406250000006 282.6572265625Q727.4164062500006 283.826171875 729.2894531250006 283.826171875Q730.5472656250006 283.826171875 731.4564453125006 283.279296875Q732.3656250000006 282.732421875 732.7621093750006 281.666015625L735.5921875000006 282.3359375Q735.0453125000006 284.126953125 733.3773437500006 285.220703125Q731.7093750000006 286.314453125 729.2621093750006 286.314453125ZM724.9964843750006 277.03125H732.8441406250006Q732.6800781250006 275.2265625 731.7162109375006 274.119140625Q730.7523437500006 273.01171875 729.0160156250006 273.01171875Q727.2113281250006 273.01171875 726.1654296875006 274.1943359375Q725.1195312500006 275.376953125 724.9964843750006 277.03125Z M741.8273437500006 276.94921875V286.0H738.8195312500006V270.71484375H741.6906250000006L741.7042968750006 273.654296875Q742.4152343750006 272.041015625 743.6115234375006 271.2822265625Q744.8078125000006 270.5234375 746.4210937500006 270.5234375Q748.7589843750006 270.5234375 750.1876953125006 271.9931640625Q751.6164062500006 273.462890625 751.6164062500006 276.29296875V286.0H748.6085937500006V276.662109375Q748.6085937500006 275.0078125 747.7472656250006 274.078125Q746.8859375000006 273.1484375 745.3820312500006 273.1484375Q743.8507812500006 273.1484375 742.8390625000006 274.1396484375Q741.8273437500006 275.130859375 741.8273437500006 276.94921875Z M761.8984375000007 270.71484375V273.162109375H758.8496093750007V281.87109375Q758.8496093750007 282.787109375 759.2392578125007 283.2177734375Q759.6289062500007 283.6484375 760.5175781250007 283.6484375Q760.7636718750007 283.6484375 761.1396484375007 283.59375Q761.5156250000007 283.5390625 761.7890625000007 283.484375L762.3222656250007 285.890625Q761.8437500000007 286.0546875 761.2900390625007 286.1298828125Q760.7363281250007 286.205078125 760.2167968750007 286.205078125Q758.1386718750007 286.205078125 756.9902343750007 285.1318359375Q755.8417968750007 284.05859375 755.8417968750007 282.1171875V273.162109375H753.6132812500007V270.71484375H755.8417968750007V267.078125H758.8496093750007V270.71484375Z M770.0750000000007 286.314453125Q767.5867187500007 286.314453125 765.9529296875007 285.2412109375Q764.3191406250007 284.16796875 763.9089843750007 282.130859375L766.7390625000007 281.54296875Q767.3542968750007 283.880859375 770.1023437500007 283.880859375Q771.5652343750007 283.880859375 772.4197265625007 283.2724609375Q773.2742187500007 282.6640625 773.2742187500007 281.81640625Q773.2742187500007 280.3671875 771.1277343750007 279.888671875L768.5574218750007 279.30078125Q764.3464843750007 278.357421875 764.3464843750007 275.076171875Q764.3464843750007 273.708984375 765.1052734375007 272.68359375Q765.8640625000007 271.658203125 767.1970703125007 271.0908203125Q768.5300781250007 270.5234375 770.2664062500007 270.5234375Q772.7410156250007 270.5234375 774.1492187500007 271.5830078125Q775.5574218750007 272.642578125 776.0496093750007 274.337890625L773.3562500000007 274.92578125Q773.0691406250007 274.119140625 772.3582031250007 273.5107421875Q771.6472656250007 272.90234375 770.2937500000007 272.90234375Q769.0496093750007 272.90234375 768.2156250000007 273.462890625Q767.3816406250007 274.0234375 767.3816406250007 274.884765625Q767.3816406250007 275.650390625 767.9353515625007 276.1220703125Q768.4890625000007 276.59375 769.7468750000007 276.880859375L772.2078125000007 277.427734375Q776.3777343750007 278.37109375 776.3777343750007 281.556640625Q776.3777343750007 282.951171875 775.5779296875007 284.0244140625Q774.7781250000007 285.09765625 773.3562500000007 285.7060546875Q771.9343750000007 286.314453125 770.0750000000007 286.314453125Z M779.0582031250008 291.072265625 780.2613281250008 283.07421875H783.5015625000008L781.2457031250008 291.072265625Z M800.2101562500009 286.314453125Q797.7218750000009 286.314453125 796.0880859375009 285.2412109375Q794.4542968750009 284.16796875 794.0441406250009 282.130859375L796.8742187500009 281.54296875Q797.4894531250009 283.880859375 800.2375000000009 283.880859375Q801.7003906250009 283.880859375 802.5548828125009 283.2724609375Q803.4093750000009 282.6640625 803.4093750000009 281.81640625Q803.4093750000009 280.3671875 801.2628906250009 279.888671875L798.6925781250009 279.30078125Q794.4816406250009 278.357421875 794.4816406250009 275.076171875Q794.4816406250009 273.708984375 795.2404296875009 272.68359375Q795.9992187500009 271.658203125 797.3322265625009 271.0908203125Q798.6652343750009 270.5234375 800.4015625000009 270.5234375Q802.8761718750009 270.5234375 804.2843750000009 271.5830078125Q805.6925781250009 272.642578125 806.1847656250009 274.337890625L803.4914062500009 274.92578125Q803.2042968750009 274.119140625 802.4933593750009 273.5107421875Q801.7824218750009 272.90234375 800.4289062500009 272.90234375Q799.1847656250009 272.90234375 798.3507812500009 273.462890625Q797.5167968750009 274.0234375 797.5167968750009 274.884765625Q797.5167968750009 275.650390625 798.0705078125009 276.1220703125Q798.6242187500009 276.59375 799.8820312500009 276.880859375L802.3429687500009 277.427734375Q806.5128906250009 278.37109375 806.5128906250009 281.556640625Q806.5128906250009 282.951171875 805.7130859375009 284.0244140625Q804.9132812500009 285.09765625 803.4914062500009 285.7060546875Q802.0695312500009 286.314453125 800.2101562500009 286.314453125Z M816.0976562500009 286.314453125Q813.8417968750009 286.314453125 812.2011718750009 285.34375Q810.5605468750009 284.373046875 809.6787109375009 282.609375Q808.7968750000009 280.845703125 808.7968750000009 278.466796875Q808.7968750000009 276.115234375 809.6650390625009 274.32421875Q810.5332031250009 272.533203125 812.1191406250009 271.5283203125Q813.7050781250009 270.5234375 815.8378906250009 270.5234375Q817.5742187500009 270.5234375 819.1396484375009 271.2958984375Q820.7050781250009 272.068359375 821.6826171875009 273.7568359375Q822.6601562500009 275.4453125 822.6601562500009 278.20703125V279.2734375H811.8183593750009Q811.9003906250009 281.48828125 813.0761718750009 282.6572265625Q814.2519531250009 283.826171875 816.1250000000009 283.826171875Q817.3828125000009 283.826171875 818.2919921875009 283.279296875Q819.2011718750009 282.732421875 819.5976562500009 281.666015625L822.4277343750009 282.3359375Q821.8808593750009 284.126953125 820.2128906250009 285.220703125Q818.5449218750009 286.314453125 816.0976562500009 286.314453125ZM811.8320312500009 277.03125H819.6796875000009Q819.5156250000009 275.2265625 818.5517578125009 274.119140625Q817.5878906250009 273.01171875 815.8515625000009 273.01171875Q814.0468750000009 273.01171875 813.0009765625009 274.1943359375Q811.9550781250009 275.376953125 811.8320312500009 277.03125Z M832.080859375001 286.314453125Q829.920703125001 286.314453125 828.321093750001 285.330078125Q826.721484375001 284.345703125 825.832812500001 282.5751953125Q824.944140625001 280.8046875 824.944140625001 278.439453125Q824.944140625001 276.060546875 825.832812500001 274.2763671875Q826.721484375001 272.4921875 828.321093750001 271.5078125Q829.920703125001 270.5234375 832.080859375001 270.5234375Q834.459765625001 270.5234375 836.189257812501 271.7197265625Q837.918750000001 272.916015625 838.479296875001 275.03515625L835.621875000001 275.71875Q835.307421875001 274.529296875 834.398242187501 273.7978515625Q833.489062500001 273.06640625 832.094531250001 273.06640625Q830.713671875001 273.06640625 829.804492187501 273.791015625Q828.895312500001 274.515625 828.450976562501 275.7392578125Q828.006640625001 276.962890625 828.006640625001 278.439453125Q828.006640625001 279.90234375 828.450976562501 281.1123046875Q828.895312500001 282.322265625 829.804492187501 283.046875Q830.713671875001 283.771484375 832.094531250001 283.771484375Q833.516406250001 283.771484375 834.446093750001 283.0126953125Q835.375781250001 282.25390625 835.676562500001 281.009765625L838.520312500001 281.693359375Q837.959765625001 283.853515625 836.223437500001 285.083984375Q834.487109375001 286.314453125 832.080859375001 286.314453125Z M846.724218750001 286.19140625Q844.386328125001 286.19140625 842.950781250001 284.7216796875Q841.515234375001 283.251953125 841.515234375001 280.421875V270.71484375H844.523046875001V280.052734375Q844.523046875001 281.70703125 845.391210937501 282.63671875Q846.259375000001 283.56640625 847.749609375001 283.56640625Q849.280859375001 283.56640625 850.292578125001 282.5751953125Q851.304296875001 281.583984375 851.304296875001 279.765625V270.71484375H854.325781250001V286.0H851.441015625001L851.427343750001 283.033203125Q850.702734375001 284.701171875 849.506445312501 285.4462890625Q848.310156250001 286.19140625 846.724218750001 286.19140625Z M858.058984375001 286.0V270.71484375H860.971093750001V273.17578125H861.135156250001Q861.545312500001 271.931640625 862.604882812501 271.2138671875Q863.664453125001 270.49609375 865.004296875001 270.49609375Q865.291406250001 270.49609375 865.667382812501 270.5234375Q866.043359375001 270.55078125 866.275781250001 270.578125V273.44921875Q866.111718750001 273.408203125 865.646875000001 273.3466796875Q865.182031250001 273.28515625 864.703515625001 273.28515625Q863.131250000001 273.28515625 862.099023437501 274.2490234375Q861.066796875001 275.212890625 861.066796875001 276.716796875V286.0Z M868.5871093750011 286.0V270.71484375H871.5949218750011V286.0ZM870.1046875000011 268.376953125Q869.3253906250011 268.376953125 868.7716796875011 267.857421875Q868.2179687500011 267.337890625 868.2179687500011 266.599609375Q868.2179687500011 265.84765625 868.7716796875011 265.328125Q869.3253906250011 264.80859375 870.1046875000011 264.80859375Q870.8839843750011 264.80859375 871.4445312500011 265.328125Q872.0050781250011 265.84765625 872.0050781250011 266.599609375Q872.0050781250011 267.337890625 871.4445312500011 267.857421875Q870.8839843750011 268.376953125 870.1046875000011 268.376953125Z M881.8769531250011 270.71484375V273.162109375H878.8281250000011V281.87109375Q878.8281250000011 282.787109375 879.2177734375011 283.2177734375Q879.6074218750011 283.6484375 880.4960937500011 283.6484375Q880.7421875000011 283.6484375 881.1181640625011 283.59375Q881.4941406250011 283.5390625 881.7675781250011 283.484375L882.3007812500011 285.890625Q881.8222656250011 286.0546875 881.2685546875011 286.1298828125Q880.7148437500011 286.205078125 880.1953125000011 286.205078125Q878.1171875000011 286.205078125 876.9687500000011 285.1318359375Q875.8203125000011 284.05859375 875.8203125000011 282.1171875V273.162109375H873.5917968750011V270.71484375H875.8203125000011V267.078125H878.8281250000011V270.71484375Z M884.3660156250012 291.49609375 885.1042968750012 289.048828125 885.4460937500012 289.130859375Q886.6082031250012 289.4453125 887.4216796875012 289.0556640625Q888.2351562500012 288.666015625 888.6589843750012 287.189453125L888.9871093750012 286.068359375L883.1765625000012 270.71484375H886.4304687500012L889.4519531250012 279.396484375Q889.7937500000012 280.408203125 890.0535156250012 281.392578125Q890.3132812500012 282.376953125 890.5593750000012 283.361328125Q890.8191406250012 282.376953125 891.0925781250012 281.3857421875Q891.3660156250012 280.39453125 891.7214843750012 279.396484375L894.7976562500012 270.71484375H898.0242187500012L891.3796875000012 288.119140625Q890.6824218750012 289.951171875 889.4998046875012 290.8876953125Q888.3171875000012 291.82421875 886.4714843750012 291.82421875Q885.7605468750012 291.82421875 885.2068359375012 291.7216796875Q884.6531250000012 291.619140625 884.3660156250012 291.49609375Z M900.0621093750012 291.072265625 901.2652343750012 283.07421875H904.5054687500012L902.2496093750012 291.072265625Z M921.2140625000013 286.314453125Q918.7257812500013 286.314453125 917.0919921875013 285.2412109375Q915.4582031250013 284.16796875 915.0480468750013 282.130859375L917.8781250000013 281.54296875Q918.4933593750013 283.880859375 921.2414062500013 283.880859375Q922.7042968750013 283.880859375 923.5587890625013 283.2724609375Q924.4132812500013 282.6640625 924.4132812500013 281.81640625Q924.4132812500013 280.3671875 922.2667968750013 279.888671875L919.6964843750013 279.30078125Q915.4855468750013 278.357421875 915.4855468750013 275.076171875Q915.4855468750013 273.708984375 916.2443359375013 272.68359375Q917.0031250000013 271.658203125 918.3361328125013 271.0908203125Q919.6691406250013 270.5234375 921.4054687500013 270.5234375Q923.8800781250013 270.5234375 925.2882812500013 271.5830078125Q926.6964843750013 272.642578125 927.1886718750013 274.337890625L924.4953125000013 274.92578125Q924.2082031250013 274.119140625 923.4972656250013 273.5107421875Q922.7863281250013 272.90234375 921.4328125000013 272.90234375Q920.1886718750013 272.90234375 919.3546875000013 273.462890625Q918.5207031250013 274.0234375 918.5207031250013 274.884765625Q918.5207031250013 275.650390625 919.0744140625013 276.1220703125Q919.6281250000013 276.59375 920.8859375000013 276.880859375L923.3468750000013 277.427734375Q927.5167968750013 278.37109375 927.5167968750013 281.556640625Q927.5167968750013 282.951171875 926.7169921875013 284.0244140625Q925.9171875000013 285.09765625 924.4953125000013 285.7060546875Q923.0734375000013 286.314453125 921.2140625000013 286.314453125Z M934.7910156250014 286.341796875Q933.3281250000014 286.341796875 932.1591796875014 285.8017578125Q930.9902343750014 285.26171875 930.3066406250014 284.22265625Q929.6230468750014 283.18359375 929.6230468750014 281.6796875Q929.6230468750014 280.380859375 930.1289062500014 279.5400390625Q930.6347656250014 278.69921875 931.4824218750014 278.2138671875Q932.3300781250014 277.728515625 933.3759765625014 277.482421875Q934.4218750000014 277.236328125 935.5019531250014 277.11328125Q937.5253906250014 276.880859375 938.4414062500014 276.7099609375Q939.3574218750014 276.5390625 939.3574218750014 275.732421875V275.650390625Q939.3574218750014 274.37890625 938.6123046875014 273.6748046875Q937.8671875000014 272.970703125 936.4316406250014 272.970703125Q934.9277343750014 272.970703125 934.0664062500014 273.626953125Q933.2050781250014 274.283203125 932.8906250000014 275.0625L930.0605468750014 274.32421875Q930.5800781250014 272.95703125 931.5507812500014 272.123046875Q932.5214843750014 271.2890625 933.7724609375014 270.90625Q935.0234375000014 270.5234375 936.3906250000014 270.5234375Q937.3066406250014 270.5234375 938.3457031250014 270.7421875Q939.3847656250014 270.9609375 940.3007812500014 271.5283203125Q941.2167968750014 272.095703125 941.7910156250014 273.1484375Q942.3652343750014 274.201171875 942.3652343750014 275.85546875V286.0H939.4531250000014V283.908203125H939.3027343750014Q938.8515625000014 284.810546875 937.7509765625014 285.576171875Q936.6503906250014 286.341796875 934.7910156250014 286.341796875ZM935.4609375000014 283.921875Q936.6777343750014 283.921875 937.5527343750014 283.4365234375Q938.4277343750014 282.951171875 938.8994140625014 282.171875Q939.3710937500014 281.392578125 939.3710937500014 280.490234375V278.53515625Q939.1523437500014 278.75390625 938.4345703125014 278.9111328125Q937.7167968750014 279.068359375 936.9238281250014 279.177734375Q936.1308593750014 279.287109375 935.6660156250014 279.341796875Q934.3945312500014 279.51953125 933.4853515625014 280.0322265625Q932.5761718750014 280.544921875 932.5761718750014 281.720703125Q932.5761718750014 282.814453125 933.3896484375014 283.3681640625Q934.2031250000014 283.921875 935.4609375000014 283.921875Z M953.6863281250014 270.71484375V273.162109375H950.2683593750014V286.0H947.2605468750014V273.162109375H944.3621093750014V270.71484375H947.2605468750014V268.96484375Q947.2605468750014 267.54296875 947.8962890625014 266.5859375Q948.5320312500014 265.62890625 949.5642578125014 265.150390625Q950.5964843750014 264.671875 951.8132812500014 264.671875Q952.7156250000014 264.671875 953.3650390625014 264.8154296875Q954.0144531250014 264.958984375 954.3289062500014 265.08203125L953.6316406250014 267.515625Q953.4128906250014 267.4609375 953.0847656250014 267.37890625Q952.7566406250014 267.296875 952.2917968750014 267.296875Q951.2117187500014 267.296875 950.7400390625014 267.830078125Q950.2683593750014 268.36328125 950.2683593750014 269.375V270.71484375Z M963.0250000000015 286.314453125Q960.7691406250015 286.314453125 959.1285156250015 285.34375Q957.4878906250015 284.373046875 956.6060546875015 282.609375Q955.7242187500015 280.845703125 955.7242187500015 278.466796875Q955.7242187500015 276.115234375 956.5923828125015 274.32421875Q957.4605468750015 272.533203125 959.0464843750015 271.5283203125Q960.6324218750015 270.5234375 962.7652343750015 270.5234375Q964.5015625000015 270.5234375 966.0669921875015 271.2958984375Q967.6324218750015 272.068359375 968.6099609375015 273.7568359375Q969.5875000000015 275.4453125 969.5875000000015 278.20703125V279.2734375H958.7457031250015Q958.8277343750015 281.48828125 960.0035156250015 282.6572265625Q961.1792968750015 283.826171875 963.0523437500015 283.826171875Q964.3101562500015 283.826171875 965.2193359375015 283.279296875Q966.1285156250015 282.732421875 966.5250000000015 281.666015625L969.3550781250015 282.3359375Q968.8082031250015 284.126953125 967.1402343750015 285.220703125Q965.4722656250015 286.314453125 963.0250000000015 286.314453125ZM958.7593750000015 277.03125H966.6070312500015Q966.4429687500015 275.2265625 965.4791015625015 274.119140625Q964.5152343750015 273.01171875 962.7789062500015 273.01171875Q960.9742187500015 273.01171875 959.9283203125015 274.1943359375Q958.8824218750015 275.376953125 958.7593750000015 277.03125Z M979.1175781250015 270.71484375V273.162109375H976.0687500000015V281.87109375Q976.0687500000015 282.787109375 976.4583984375015 283.2177734375Q976.8480468750015 283.6484375 977.7367187500015 283.6484375Q977.9828125000015 283.6484375 978.3587890625015 283.59375Q978.7347656250015 283.5390625 979.0082031250015 283.484375L979.5414062500015 285.890625Q979.0628906250015 286.0546875 978.5091796875015 286.1298828125Q977.9554687500015 286.205078125 977.4359375000015 286.205078125Q975.3578125000015 286.205078125 974.2093750000015 285.1318359375Q973.0609375000015 284.05859375 973.0609375000015 282.1171875V273.162109375H970.8324218750015V270.71484375H973.0609375000015V267.078125H976.0687500000015V270.71484375Z M981.6066406250015 291.49609375 982.3449218750015 289.048828125 982.6867187500015 289.130859375Q983.8488281250015 289.4453125 984.6623046875015 289.0556640625Q985.4757812500015 288.666015625 985.8996093750015 287.189453125L986.2277343750015 286.068359375L980.4171875000015 270.71484375H983.6710937500015L986.6925781250015 279.396484375Q987.0343750000015 280.408203125 987.2941406250015 281.392578125Q987.5539062500015 282.376953125 987.8000000000015 283.361328125Q988.0597656250015 282.376953125 988.3332031250015 281.3857421875Q988.6066406250015 280.39453125 988.9621093750015 279.396484375L992.0382812500015 270.71484375H995.2648437500015L988.6203125000015 288.119140625Q987.9230468750015 289.951171875 986.7404296875015 290.8876953125Q985.5578125000015 291.82421875 983.7121093750015 291.82421875Q983.0011718750015 291.82421875 982.4474609375015 291.7216796875Q981.8937500000015 291.619140625 981.6066406250015 291.49609375Z M997.3027343750016 291.072265625 998.5058593750016 283.07421875H1001.7460937500016L999.4902343750016 291.072265625Z M1019.5074218750017 270.71484375V273.162109375H1016.4585937500017V281.87109375Q1016.4585937500017 282.787109375 1016.8482421875017 283.2177734375Q1017.2378906250017 283.6484375 1018.1265625000017 283.6484375Q1018.3726562500017 283.6484375 1018.7486328125017 283.59375Q1019.1246093750017 283.5390625 1019.3980468750017 283.484375L1019.9312500000017 285.890625Q1019.4527343750017 286.0546875 1018.8990234375017 286.1298828125Q1018.3453125000017 286.205078125 1017.8257812500017 286.205078125Q1015.7476562500017 286.205078125 1014.5992187500017 285.1318359375Q1013.4507812500017 284.05859375 1013.4507812500017 282.1171875V273.162109375H1011.2222656250017V270.71484375H1013.4507812500017V267.078125H1016.4585937500017V270.71484375Z M1022.2015625000017 286.0V270.71484375H1025.1136718750017V273.17578125H1025.2777343750017Q1025.6878906250017 271.931640625 1026.7474609375017 271.2138671875Q1027.8070312500017 270.49609375 1029.1468750000017 270.49609375Q1029.4339843750017 270.49609375 1029.8099609375017 270.5234375Q1030.1859375000017 270.55078125 1030.4183593750017 270.578125V273.44921875Q1030.2542968750017 273.408203125 1029.7894531250017 273.3466796875Q1029.3246093750017 273.28515625 1028.8460937500017 273.28515625Q1027.2738281250017 273.28515625 1026.2416015625017 274.2490234375Q1025.2093750000017 275.212890625 1025.2093750000017 276.716796875V286.0Z M1037.0089843750018 286.341796875Q1035.5460937500018 286.341796875 1034.3771484375018 285.8017578125Q1033.2082031250018 285.26171875 1032.5246093750018 284.22265625Q1031.8410156250018 283.18359375 1031.8410156250018 281.6796875Q1031.8410156250018 280.380859375 1032.3468750000018 279.5400390625Q1032.8527343750018 278.69921875 1033.7003906250018 278.2138671875Q1034.5480468750018 277.728515625 1035.5939453125018 277.482421875Q1036.6398437500018 277.236328125 1037.7199218750018 277.11328125Q1039.7433593750018 276.880859375 1040.6593750000018 276.7099609375Q1041.5753906250018 276.5390625 1041.5753906250018 275.732421875V275.650390625Q1041.5753906250018 274.37890625 1040.8302734375018 273.6748046875Q1040.0851562500018 272.970703125 1038.6496093750018 272.970703125Q1037.1457031250018 272.970703125 1036.2843750000018 273.626953125Q1035.4230468750018 274.283203125 1035.1085937500018 275.0625L1032.2785156250018 274.32421875Q1032.7980468750018 272.95703125 1033.7687500000018 272.123046875Q1034.7394531250018 271.2890625 1035.9904296875018 270.90625Q1037.2414062500018 270.5234375 1038.6085937500018 270.5234375Q1039.5246093750018 270.5234375 1040.5636718750018 270.7421875Q1041.6027343750018 270.9609375 1042.5187500000018 271.5283203125Q1043.4347656250018 272.095703125 1044.0089843750018 273.1484375Q1044.5832031250018 274.201171875 1044.5832031250018 275.85546875V286.0H1041.6710937500018V283.908203125H1041.5207031250018Q1041.0695312500018 284.810546875 1039.9689453125018 285.576171875Q1038.8683593750018 286.341796875 1037.0089843750018 286.341796875ZM1037.6789062500018 283.921875Q1038.8957031250018 283.921875 1039.7707031250018 283.4365234375Q1040.6457031250018 282.951171875 1041.1173828125018 282.171875Q1041.5890625000018 281.392578125 1041.5890625000018 280.490234375V278.53515625Q1041.3703125000018 278.75390625 1040.6525390625018 278.9111328125Q1039.9347656250018 279.068359375 1039.1417968750018 279.177734375Q1038.3488281250018 279.287109375 1037.8839843750018 279.341796875Q1036.6125000000018 279.51953125 1035.7033203125018 280.0322265625Q1034.7941406250018 280.544921875 1034.7941406250018 281.720703125Q1034.7941406250018 282.814453125 1035.6076171875018 283.3681640625Q1036.4210937500018 283.921875 1037.6789062500018 283.921875Z M1048.3300781250018 286.0V270.71484375H1051.3378906250018V286.0ZM1049.8476562500018 268.376953125Q1049.0683593750018 268.376953125 1048.5146484375018 267.857421875Q1047.9609375000018 267.337890625 1047.9609375000018 266.599609375Q1047.9609375000018 265.84765625 1048.5146484375018 265.328125Q1049.0683593750018 264.80859375 1049.8476562500018 264.80859375Q1050.6269531250018 264.80859375 1051.1875000000018 265.328125Q1051.7480468750018 265.84765625 1051.7480468750018 266.599609375Q1051.7480468750018 267.337890625 1051.1875000000018 267.857421875Q1050.6269531250018 268.376953125 1049.8476562500018 268.376953125Z M1058.0925781250019 276.94921875V286.0H1055.0847656250019V270.71484375H1057.9558593750019L1057.9695312500019 273.654296875Q1058.6804687500019 272.041015625 1059.8767578125019 271.2822265625Q1061.0730468750019 270.5234375 1062.6863281250019 270.5234375Q1065.0242187500019 270.5234375 1066.4529296875019 271.9931640625Q1067.8816406250019 273.462890625 1067.8816406250019 276.29296875V286.0H1064.8738281250019V276.662109375Q1064.8738281250019 275.0078125 1064.0125000000019 274.078125Q1063.1511718750019 273.1484375 1061.6472656250019 273.1484375Q1060.1160156250019 273.1484375 1059.1042968750019 274.1396484375Q1058.0925781250019 275.130859375 1058.0925781250019 276.94921875Z M1071.628515625002 286.0V270.71484375H1074.636328125002V286.0ZM1073.146093750002 268.376953125Q1072.366796875002 268.376953125 1071.813085937502 267.857421875Q1071.259375000002 267.337890625 1071.259375000002 266.599609375Q1071.259375000002 265.84765625 1071.813085937502 265.328125Q1072.366796875002 264.80859375 1073.146093750002 264.80859375Q1073.925390625002 264.80859375 1074.485937500002 265.328125Q1075.046484375002 265.84765625 1075.046484375002 266.599609375Q1075.046484375002 267.337890625 1074.485937500002 267.857421875Q1073.925390625002 268.376953125 1073.146093750002 268.376953125Z M1081.391015625002 276.94921875V286.0H1078.383203125002V270.71484375H1081.254296875002L1081.267968750002 273.654296875Q1081.978906250002 272.041015625 1083.175195312502 271.2822265625Q1084.371484375002 270.5234375 1085.984765625002 270.5234375Q1088.322656250002 270.5234375 1089.751367187502 271.9931640625Q1091.180078125002 273.462890625 1091.180078125002 276.29296875V286.0H1088.172265625002V276.662109375Q1088.172265625002 275.0078125 1087.310937500002 274.078125Q1086.449609375002 273.1484375 1084.945703125002 273.1484375Q1083.414453125002 273.1484375 1082.402734375002 274.1396484375Q1081.391015625002 275.130859375 1081.391015625002 276.94921875Z M1101.325390625002 292.04296875Q1098.673046875002 292.04296875 1097.073437500002 291.072265625Q1095.473828125002 290.1015625 1094.831250000002 288.720703125L1097.346875000002 287.53125Q1097.620312500002 287.96875 1098.078320312502 288.4541015625Q1098.536328125002 288.939453125 1099.308789062502 289.28125Q1100.081250000002 289.623046875 1101.311718750002 289.623046875Q1103.048046875002 289.623046875 1104.141796875002 288.7958984375Q1105.235546875002 287.96875 1105.235546875002 286.205078125V283.224609375H1104.975781250002Q1104.702343750002 283.73046875 1104.216992187502 284.318359375Q1103.731640625002 284.90625 1102.863476562502 285.3369140625Q1101.995312500002 285.767578125 1100.600781250002 285.767578125Q1098.796093750002 285.767578125 1097.353710937502 284.919921875Q1095.911328125002 284.072265625 1095.063671875002 282.4111328125Q1094.216015625002 280.75 1094.216015625002 278.302734375Q1094.216015625002 275.869140625 1095.056835937502 274.1259765625Q1095.897656250002 272.3828125 1097.346875000002 271.453125Q1098.796093750002 270.5234375 1100.641796875002 270.5234375Q1102.050000000002 270.5234375 1102.931835937502 270.9951171875Q1103.813671875002 271.466796875 1104.312695312502 272.095703125Q1104.811718750002 272.724609375 1105.071484375002 273.203125H1105.290234375002V270.71484375H1108.229687500002V286.21875Q1108.229687500002 288.228515625 1107.313671875002 289.513671875Q1106.397656250002 290.798828125 1104.839062500002 291.4208984375Q1103.280468750002 292.04296875 1101.325390625002 292.04296875ZM1101.298046875002 283.265625Q1103.212109375002 283.265625 1104.230664062502 281.939453125Q1105.249218750002 280.61328125 1105.249218750002 278.26171875Q1105.249218750002 275.96484375 1104.244335937502 274.5224609375Q1103.239453125002 273.080078125 1101.298046875002 273.080078125Q1099.971875000002 273.080078125 1099.076367187502 273.7705078125Q1098.180859375002 274.4609375 1097.736523437502 275.6298828125Q1097.292187500002 276.798828125 1097.292187500002 278.26171875Q1097.292187500002 280.50390625 1098.310742187502 281.884765625Q1099.329296875002 283.265625 1101.298046875002 283.265625Z" fill="#FAF6EE"/>
    <path d="M421.375 340.0V327.990234375H424.361328125L424.490234375 330.3212890625Q424.9736328125 329.0107421875 425.908203125 328.4091796875Q426.8427734375 327.8076171875 427.9169921875 327.8076171875Q430.1943359375 327.8076171875 431.0107421875 330.50390625Q431.515625 329.1181640625 432.57373046875 328.462890625Q433.6318359375 327.8076171875 434.8671875 327.8076171875Q436.521484375 327.8076171875 437.61181640625 328.87646484375Q438.7021484375 329.9453125 438.7021484375 331.900390625V340.0H435.46875V332.5126953125Q435.46875 331.5029296875 434.9208984375 331.00341796875Q434.373046875 330.50390625 433.5673828125 330.50390625Q432.654296875 330.50390625 432.12255859375 331.083984375Q431.5908203125 331.6640625 431.5908203125 332.609375V340.0H428.4755859375V332.4267578125Q428.4755859375 331.5458984375 427.95458984375 331.02490234375Q427.43359375 330.50390625 426.6064453125 330.50390625Q425.7578125 330.50390625 425.177734375 331.07861328125Q424.59765625 331.6533203125 424.59765625 332.73828125V340.0Z M447.1748046875 333.0498046875V340.0H443.9521484375V323.994140625H447.1103515625V330.2890625Q447.63671875 329.1181640625 448.5390625 328.47900390625Q449.44140625 327.83984375 450.7734375 327.83984375Q452.642578125 327.83984375 453.77587890625 329.04296875Q454.9091796875 330.24609375 454.9091796875 332.3623046875V340.0H451.67578125V332.9208984375Q451.67578125 331.8037109375 451.10107421875 331.169921875Q450.5263671875 330.5361328125 449.505859375 330.5361328125Q448.474609375 330.5361328125 447.82470703125 331.19677734375Q447.1748046875 331.857421875 447.1748046875 333.0498046875Z M463.37109375 323.994140625V340.0H460.1484375V323.994140625Z M468.3203125 337.1533203125V334.564453125L475.0126953125 323.994140625H479.126953125V334.5107421875H481.125V337.1533203125H479.126953125V340.0H475.9794921875V337.1533203125ZM476.0439453125 334.5107421875V327.603515625H475.9150390625L471.62890625 334.3818359375V334.5107421875Z M485.9453125 340.0V337.63671875L491.6171875 332.3193359375Q492.7021484375 331.255859375 493.28759765625 330.46630859375Q493.873046875 329.6767578125 493.873046875 328.7099609375Q493.873046875 327.6357421875 493.16943359375 327.01806640625Q492.4658203125 326.400390625 491.3916015625 326.400390625Q490.2744140625 326.400390625 489.60302734375 327.06640625Q488.931640625 327.732421875 488.931640625 328.9033203125H485.794921875Q485.794921875 327.345703125 486.50927734375 326.19091796875Q487.2236328125 325.0361328125 488.4912109375 324.40771484375Q489.7587890625 323.779296875 491.4130859375 323.779296875Q493.1103515625 323.779296875 494.3779296875 324.38623046875Q495.6455078125 324.9931640625 496.34912109375 326.056640625Q497.052734375 327.1201171875 497.052734375 328.505859375Q497.052734375 329.3974609375 496.70361328125 330.267578125Q496.3544921875 331.1376953125 495.45751953125 332.21728515625Q494.560546875 333.296875 492.9169921875 334.80078125L490.5 337.185546875V337.3037109375H497.267578125V340.0Z M504.64453125 340.2041015625Q503.8603515625 340.2041015625 503.3232421875 339.67236328125Q502.7861328125 339.140625 502.7861328125 338.3564453125Q502.7861328125 337.572265625 503.3232421875 337.04052734375Q503.8603515625 336.5087890625 504.64453125 336.5087890625Q505.4287109375 336.5087890625 505.9658203125 337.04052734375Q506.5029296875 337.572265625 506.5029296875 338.3564453125Q506.5029296875 339.140625 505.9658203125 339.67236328125Q505.4287109375 340.2041015625 504.64453125 340.2041015625Z M515.544921875 340.236328125Q513.826171875 340.236328125 512.6875 339.32861328125Q511.548828125 338.4208984375 511.548828125 336.6376953125Q511.548828125 335.294921875 512.193359375 334.5322265625Q512.837890625 333.76953125 513.869140625 333.4150390625Q514.900390625 333.060546875 516.08203125 332.953125Q517.62890625 332.802734375 518.31103515625 332.63623046875Q518.9931640625 332.4697265625 518.9931640625 331.87890625V331.8251953125Q518.9931640625 331.0625 518.50439453125 330.6435546875Q518.015625 330.224609375 517.11328125 330.224609375Q516.1787109375 330.224609375 515.609375 330.62744140625Q515.0400390625 331.0302734375 514.8466796875 331.6103515625L511.892578125 331.1162109375Q512.3544921875 329.55859375 513.73486328125 328.69921875Q515.115234375 327.83984375 517.1240234375 327.83984375Q518.4130859375 327.83984375 519.57861328125 328.248046875Q520.744140625 328.65625 521.47998046875 329.55322265625Q522.2158203125 330.4501953125 522.2158203125 331.9111328125V340.0H519.1650390625V338.3349609375H519.0576171875Q518.6171875 339.1728515625 517.7470703125 339.70458984375Q516.876953125 340.236328125 515.544921875 340.236328125ZM516.4580078125 337.9697265625Q517.5859375 337.9697265625 518.30029296875 337.314453125Q519.0146484375 336.6591796875 519.0146484375 335.703125V334.4033203125Q518.8212890625 334.54296875 518.38623046875 334.64501953125Q517.951171875 334.7470703125 517.4677734375 334.82763671875Q516.984375 334.908203125 516.6298828125 334.951171875Q515.73828125 335.080078125 515.1904296875 335.4560546875Q514.642578125 335.83203125 514.642578125 336.5517578125Q514.642578125 337.25 515.15283203125 337.60986328125Q515.6630859375 337.9697265625 516.4580078125 337.9697265625Z M527.4658203125 340.0V327.990234375H530.6884765625V340.0ZM529.0771484375 326.421875Q528.3466796875 326.421875 527.8310546875 325.9384765625Q527.3154296875 325.455078125 527.3154296875 324.767578125Q527.3154296875 324.080078125 527.8310546875 323.5966796875Q528.3466796875 323.11328125 529.0771484375 323.11328125Q529.8076171875 323.11328125 530.32861328125 323.5966796875Q530.849609375 324.080078125 530.849609375 324.767578125Q530.849609375 325.455078125 530.32861328125 325.9384765625Q529.8076171875 326.421875 529.0771484375 326.421875Z" fill="#F5C518"/>
  </g>

</svg>
